<?xml version="1.0" standalone="no"?>
<!DOCTYPE svg PUBLIC "-//W3C//DTD SVG 1.1//EN" "http://www.w3.org/Graphics/SVG/1.1/DTD/svg11.dtd" >
<svg xmlns="http://www.w3.org/2000/svg">
<metadata>
This is a custom SVG webfont generated by Font Squirrel.
Copyright   : Typeface  your company 2009 All Rights Reserved
</metadata>
<defs>
<font id="LullabyRegular" horiz-adv-x="1082" >
<font-face units-per-em="2048" ascent="1638" descent="-410" />
<missing-glyph horiz-adv-x="597" />
<glyph unicode=" "  horiz-adv-x="597" />
<glyph unicode="&#x09;" horiz-adv-x="597" />
<glyph unicode="&#xa0;" horiz-adv-x="597" />
<glyph unicode="!" horiz-adv-x="517" d="M101 360q-3 -3 -1 -5q1 -1 5 1q3 3 1 5q-2 1 -5 -1zM202 365q-3 -2 -1 -4q1 -2 4 1q3 2 1 4q-1 2 -4 -1zM213 1199q-3 -2 -1 -5q1 -1 5 2q3 2 1 4q-2 1 -5 -1zM268 1234q10 -7 12 6q2 12 -6 10q-1 -6 -6 -5v-11zM341 1385q11 3 11 5q-11 -3 -11 -5zM318 1424q17 3 35 3 q24 1 38 3q12 -4 44 2q24 5 29 -8q6 -28 -18 -36q-6 -2 -22 -4q-15 -2 -22 -5q-41 -31 -56 -50q-49 -115 -61 -364q-23 -148 -28 -269q-11 -235 22 -324q2 -8 23 -25q15 -14 11 -37q-68 -23 -135 23q-34 -20 -83 -17q-41 15 -62 39q2 17 28 25q29 8 34 20q-2 21 11 28 q3 28 1 75q-3 53 -1 82q1 15 0 44q0 2 3 6q3 3 2 6q0 -1 -3 4q-2 4 -2 7q0 12 5 35q5 25 6 37q2 38 2 114q1 71 4 110q-1 -1 5 129q10 214 -22 274q-11 18 -28 28q-2 7 -22 6q-19 0 -17 11q-5 42 61 39q7 3 84 6q10 -9 37 -22q25 -13 36 -23q41 25 61 28zM103 364 q-2 1 -3 -3q0 -3 3 -4q2 -1 3 4q0 3 -3 3zM145 227h51q53 -26 72 -48q31 -36 23 -97q-25 -54 -75 -82q-58 -33 -115 -2q-13 20 -34 67q0 75 22 123q45 31 51 34q-1 5 5 5z" />
<glyph unicode="#" horiz-adv-x="1437" d="M339 94q-3 -2 -1 -3q1 -1 3 1q3 2 1 3q-1 1 -3 -1zM816 231q-3 -8 -2 -6q-2 -5 -1 -5l3 3q5 8 3 11t-3 -3zM937 705q-2 0 -2 -3t2 -3q2 -1 2 3q0 2 -2 3zM699 892q-57 -2 -74 -5q-10 -52 -35 -125q-33 -98 -39 -121q59 5 137 1q118 -5 145 -5q9 38 38 128q27 79 36 131 q-10 1 -68 -1q-42 0 -62 6q-25 -7 -78 -9zM819 924q5 -5 11 -4q7 1 7 8q-17 -2 -18 -4zM1062 1297q-2 1 -2 -3q0 -2 2 -3t2 3q0 2 -2 3zM755 1316q-2 -2 -1 -3q1 -2 4 0q2 3 1 4t-4 -1zM1193 1384q-3 2 -4 -2q0 -4 4 -4q5 0 5 4q-1 0 -5 2zM870 1377q-22 -18 -37 -18 q-9 -6 -23 -21t-23 -21q-7 -18 -32 -75q-20 -45 -29 -78q-14 -26 -29 -76q-21 -66 -26 -81q38 -5 123 -2q99 5 145 2q13 22 33 102q26 88 27 106q46 83 37 148q-10 9 -33 1q-20 -7 -27 4q-8 27 9 43q15 14 44 17q69 5 91 -32q7 -3 14 7q6 8 9 2q3 4 16 5t16 4h51 q-2 2 28 -12q17 -8 9 -20q-10 -27 -32 -14q-57 -50 -95 -164q-9 -26 -31 -99q-18 -63 -31 -98q17 -1 63 0q50 1 75 0q9 0 31 -3q19 -2 30 -2q114 3 106 5q-1 -8 6 -13t8 -10q-6 -58 -86 -75q-23 -5 -69 -9q-46 -5 -63 -9q-6 3 -129 10q-12 -6 -18 -26q-13 -42 -10 -35 q-5 -9 -12 -32q-6 -23 -11 -32q-40 -148 -37 -139q15 -2 61 0q52 1 73 0l37 9q23 -3 74 0q66 5 88 5q4 0 12 1t11 1q12 1 19 -7q4 -4 4 -14q0 -9 -4 -14q-2 -7 4 -11q7 -5 5 -12q-14 -8 -32 -29q-21 -25 -28 -31q-67 -18 -173 -17q-146 2 -184 -1q-17 -38 -32 -114 q-19 -90 -28 -118q-7 -28 -38 -108q-25 -65 -31 -114q10 -7 28 -4q18 4 23 13q5 2 16 16q9 11 25 7q12 -38 -23 -69q-6 -6 -24 -11q-16 -6 -22 -12q-92 10 -83 4q-47 -17 -144 -13q-21 13 -51 46q-15 7 -20 29q-6 23 11 31q19 0 21 -19q3 -20 16 -23q29 -4 49 16q9 9 25 40 q6 11 21 45q12 29 21 43q3 6 10 31q5 21 13 29q37 119 88 255q-22 4 -134 4h-139q-14 -13 -24 -50q-11 -44 -18 -56q-1 -19 -32 -111q-5 -20 -19 -54t-18 -53q-39 -75 -37 -106q9 -6 31 4q20 10 33 0q5 -19 -12 -42q-4 -5 -15 -19q-10 -11 -14 -17q-71 -9 -88 9 q-17 -16 -51 -23q-77 0 -111 41q0 4 -13 51q-8 31 4 47q33 -8 46 -14q-5 2 15 -14q11 -9 27 -5q4 -1 7 2q4 3 6 3q18 7 29 38q13 36 22 45q5 34 24 81q22 54 27 76q23 61 51 158q-16 7 -79 5q-213 -9 -273 -14q-10 59 19 120q19 7 162 14q186 8 213 4q5 5 23 61q2 4 7 13 t7 14q1 5 2 17q1 11 2 16q4 10 23 59q15 37 19 61q-49 6 -131 0q-120 -9 -133 -9q-21 -3 -27 14q-23 -12 -51 4q-19 52 18 84q92 11 111 18q47 2 123 5q95 3 123 4q-11 -6 32 84q16 36 23 65l-2 10q-1 5 7 3q4 28 25 91q17 56 21 95q-2 17 -19 46q-10 1 -28 -9q-16 -9 -27 0 q-8 22 18 35q7 4 25 11q15 5 22 9h55q44 -19 47 -23l69 19q44 -8 65 -19q24 -13 25 -14q12 -11 7 -32q-12 -4 -46 4z" />
<glyph unicode="$" horiz-adv-x="900" d="M263 117q-2 -1 -1 -3q1 -1 3 1q3 2 1 3q-1 1 -3 -1zM561 400q-3 -245 -2 -282q61 23 62 24q-7 -6 55 31q4 8 13 20q11 13 14 19q3 5 11 24q6 16 13 23q1 14 7 36q7 23 9 34q-1 16 0 51q1 27 0 47q-6 7 -4 19q-5 7 -12 35q-6 24 -16 32q-1 15 -13 33q-12 20 -14 33 q-5 3 -35 43q-12 7 -20 19q-1 5 -11 11q-8 5 -8 13q-12 4 -28 17q-17 14 -27 18q0 -2 -2 -5t-2 -7q12 -112 10 -288zM432 709q6 -28 6 -44q2 -21 0 -57q-1 -39 0 -56q1 -18 4 -48q3 -34 4 -46q5 -70 8 -86q0 2 -4 -219q0 -3 2 -10t2 -9q-1 -3 -4 -16q-2 -9 0 -15q14 -6 70 7 q-4 284 -12 348q3 10 2 22q0 12 2 21q-7 40 -8 117q-1 79 -7 117q-45 26 -75 31q0 -5 4 -11q0 -19 6 -46zM274 1087q1 -32 4 -43q58 -101 74 -110q-6 46 -8 55q2 25 -1 67q-3 47 -3 66q1 11 -1 74q-2 50 1 74q-2 0 -5 2q-3 3 -6 2q-49 -63 -59 -145q4 -12 4 -42zM389 1200 q8 -79 6 -106q5 -39 9 -106q3 -72 7 -105q76 -41 82 -43q-1 82 -12 240q-10 163 -12 229q-40 7 -78 -8q-8 -36 -2 -101zM415 173q-2 183 -4 226q-1 8 -8 85q-5 52 -4 95q-10 54 -8 86q-16 79 -19 117q-3 8 -17 13q-15 5 -19 10q-5 1 -17 10q-10 7 -22 6q-6 8 -23 20t-23 19 q-13 3 -34 3t-29 1q-10 16 4 66q-5 28 -21 71q-17 49 -22 70q5 11 4 43q0 9 7 28q5 17 5 30q6 9 15 30q9 20 16 29q1 14 13 32t14 30q10 6 28 32q12 6 27 27q7 1 51 27q-1 10 -8 48q-5 29 -4 42q44 17 66 -4q-4 -62 -4 -66q9 2 82 4q2 81 0 74q6 8 28 9q20 0 31 -5 q5 -14 4 -48q0 -33 4 -42q46 -20 62 -19q11 -10 51 -24q-1 -7 8 -8q34 -28 27 -27q0 -9 6 -17q9 -10 10 -14q0 -7 8 -15t7 -17q7 -6 17 -30q8 -22 19 -28q0 1 11 -43q2 -2 11 -15q6 -9 13 -12q5 -3 22 1q16 3 25 -5q7 -23 -11 -37q-4 -3 -16 -11q-11 -6 -16 -11 q-12 2 -20 -4q-33 -1 -43 4q-3 -3 -43 -15q-27 2 -66 27q0 5 -12 19q0 -2 -5 31q-3 18 5 24q25 -3 27 -16q2 -5 13 -7q12 -2 15 -4q11 33 -24 93q-7 12 -27 30q-20 17 -27 29q-11 -1 -20 6q-11 8 -16 10q-1 -5 1 -37t-4 -41q3 -5 4 -18t3 -18q-1 -247 4 -355q13 -15 55 -31 q8 -4 27 -17q16 -10 28 -14q10 -7 25 -18q20 -14 25 -18q1 -5 11 -11q8 -5 9 -12q5 -1 11 -9q6 -6 12 -7q19 -39 51 -74q9 -35 27 -66q5 -31 16 -74q-2 -13 2 -32q3 -19 2 -31q7 -15 8 -23q5 -10 22 -33q15 -19 21 -34q-1 -8 -12 -13q-13 -6 -16 -10q-2 -8 -15 -28 q-10 -16 -12 -31q-5 -2 -13 -12q-7 -9 -14 -11q-3 -21 -20 -43q-19 -26 -23 -39q-10 -5 -23 -22t-24 -21q3 4 -47 -39l-117 -55v-66q-39 -15 -35 -16q-13 16 -4 71q5 -3 -67 4q-5 -12 0 -35t-3 -40q-13 1 -25 6q-11 6 -18 6q-10 30 4 63q-95 26 -161 62q-15 19 -23 20 q0 8 -9 12q-14 6 -14 7q-16 26 -39 43q-37 76 -51 164q-17 16 -39 23q-5 2 -27 4q-17 1 -24 8q2 12 18 19q21 9 25 12h55q11 -2 35 -23q4 8 16 15q16 9 19 12q35 5 41 5q25 -1 29 -16q1 -9 -8 -14q-10 -5 -11 -10q-8 1 -13 -7t-11 -9q-19 -81 43 -148q12 -5 37 -18 q23 -12 37 -17q5 1 6 -1q2 -3 -2 -3q1 -9 4 -4q5 8 12 4q8 -6 25 -12q19 -8 26 -11q4 12 4 74z" />
<glyph unicode="%" horiz-adv-x="1262" d="M307 1169q5 59 2 84q-6 41 -34 56q-78 9 -106 -72q-25 -71 -2 -157q12 -11 56 -9q45 15 84 98zM209 1439q-1 4 5 5q20 -7 55 -8t52 -6q46 -24 52 -42q14 -4 25 -21q16 -21 21 -26q7 -24 24 -56q14 -93 9 -144q-6 -54 -61 -150q-63 -75 -205 -70q-46 10 -98 61 q-3 11 -17 51q-11 31 -16 52q-1 57 -4 65q0 7 9 53q8 38 9 64q21 28 28 70q15 13 38 56q14 6 33 22q24 19 32 24h9zM394 517q-3 -2 -1 -4q1 -1 4 1q2 2 1 4q-2 1 -4 -1zM660 925q6 10 -6 8v-2v-2q-6 -8 -4 -10q4 -5 10 6zM1154 1371q-2 -2 -1 -4q2 -1 4 1q3 2 1 4 q-1 1 -4 -1zM1005 1375q-3 -2 -1 -3q1 -1 4 1q2 2 1 3q-1 2 -4 -1zM1148 1388q-3 2 -4 -2q0 -4 4 -4q5 0 5 4q-1 0 -5 2zM1046 1400q-15 -1 -19 -10q18 -2 19 10zM870 1399q-3 -2 -1 -4q1 -1 4 1q2 2 0 4q-1 1 -3 -1zM1181 1316q-14 -1 -28 11q-15 12 -28 12q-9 0 -21 -4 q-15 -4 -21 -5q-19 -10 -43 -36q-28 -30 -41 -39q-46 -58 -74 -84q-50 -69 -70 -89q1 4 -28 -51q-7 -4 -18 -20q-9 -14 -20 -17q-15 -35 -52 -90q-41 -60 -55 -87q-21 -28 -56 -84q-37 -59 -56 -84q-15 -39 -28 -47q-23 -40 -28 -42q-1 -10 -12 -23q-10 -13 -11 -24 q-8 -4 -14 -21t-14 -21q-1 -12 -10 -25q-11 -16 -13 -21q-3 -7 -13 -23q-8 -14 -11 -24q-38 -79 -42 -98q-51 -65 -42 -163q3 -10 17 -16q17 -7 21 -12q7 -7 28 -2q19 4 23 -8q0 -18 -13 -29q-4 -4 -12 -9l-12 -8q-6 -10 -23 -18q-19 -10 -24 -15q-6 1 -35 0q-27 0 -40 5 q-10 2 -22 12q-15 13 -20 16q-10 0 -25 -8q-14 -7 -26 -6q-34 4 -33 4q-3 1 -9 9q-6 9 -9 10q-4 2 -11 6q-7 5 -13 8q-2 9 -29 47q-19 28 -13 51q11 6 28 -4q20 -12 33 -10q28 8 54 48q29 44 49 55q2 29 32 56q11 46 42 74q35 63 42 70q8 29 38 75q46 76 42 70q5 14 88 135 q56 102 89 136q15 46 65 111q33 49 37 52q22 38 38 51q-7 -12 144 205q0 9 6 25q6 14 4 27q-1 11 -33 42q-6 5 -31 4q-23 -1 -30 5q-7 16 13 28q5 3 18 10q12 5 16 9h89q2 -1 34 -8q21 -5 26 -16q9 3 22 12t20 12q15 0 42 5q25 5 42 4q12 -2 70 -33q22 -67 0 -88zM399 522 q2 2 3 1q2 -2 -1 -4q-2 -2 -3 -1q-2 2 1 4zM379 509q4 8 19 9q-2 -12 -19 -9zM401 520q4 -2 6 -2q-1 -4 -5 -4t-4 4q1 4 3 2zM399 522q2 2 3 1q2 -2 -1 -4q-2 -2 -3 -1q-2 2 1 4zM399 522q2 2 3 1q2 -2 -1 -4q-2 -2 -3 -1q-2 2 1 4zM398 520q-1 3 0 3q11 2 5 -9t-10 -5 q-2 2 5 9v2zM399 522q2 2 3 1q2 -2 -1 -4q-2 -2 -3 -1q-2 2 1 4zM394 517q-3 -2 -1 -4q1 -1 4 1q2 2 1 4q-2 1 -4 -1zM986 319q-1 -3 -5 -5t-5 -4q-30 -15 -33 -24q-12 -75 0 -130q14 -8 29 -24q2 0 55 14q23 54 28 103q-25 50 -69 70zM787 317q-12 -10 -21 -12 q0 -13 -10 -27q-11 -15 -13 -24q0 -128 117 -117q16 12 41 51q1 5 4 36q3 22 1 39q-4 6 -13 26q-8 17 -15 25q-28 15 -70 14q-10 -1 -21 -11zM995 25q-31 -2 -38 14q-5 -2 -15 -14q-9 -11 -22 -9q-34 -1 -37 23q-10 2 -14 -9q-5 -12 -14 -10q-45 2 -47 47q-130 21 -140 187 q19 62 24 65q0 5 -4 11q-3 5 -1 12q3 3 14 5q11 1 14 5q66 58 177 60q-3 1 121 -28q96 -66 117 -144q-2 9 -14 -75q-8 -1 -19 -23q-79 -54 -74 -52q4 -42 -28 -65zM398 522q3 2 4 1q2 -2 -1 -4q-2 -2 -3 -1q-2 2 0 4z" />
<glyph unicode="&#x26;" horiz-adv-x="1357" d="M162 424q-2 -2 -1 -3t3 1q2 1 1 3q-1 1 -3 -1zM565 735q-17 26 -22 35q-1 4 -6 13q-4 7 -1 16q-8 1 -12 12q-7 17 -6 16q-2 0 -5 3q-3 2 -6 1q0 -3 -3 -6t-4 -5q-3 -1 -13 -10q-8 -6 -16 -8q-3 -13 -20 -29q-18 -17 -22 -28q-3 -2 -22 -28q-1 -6 -10 -17q-7 -9 -8 -19 q-22 -10 -42 -57q0 -7 9 -15t9 -17q-15 -23 -43 -21q-18 -17 -54 -132q-1 -17 -7 -55q-7 -35 -7 -56q-1 -62 0 -60q5 -7 4 -18q38 -78 49 -85q-1 2 29 -40q4 -5 19 -17q12 -10 17 -18q6 0 15 -5q7 -5 17 -2q12 -16 44 -22q7 -2 28 -5q18 -3 27 -6q88 -7 118 -7q6 2 46 4 q70 30 86 32q32 25 46 25q15 19 50 36q11 14 18 14q-3 8 5 11q7 4 6 10q-1 0 64 50q-14 44 -50 86q-3 5 -15 19q-10 11 -14 20q-6 11 -17 18q2 8 -6 12t-9 9q-21 35 -32 46q-3 5 -18 23q-12 13 -17 24q-16 13 -36 46q-9 7 -19 22q-14 21 -17 24q-16 4 -25 11q-5 1 -16 1 q-11 1 -17 2q-18 3 -20 15q-6 11 7 19q17 10 18 17q-9 8 -26 30q-16 21 -28 30q-6 15 -20 36zM842 1198q-6 0 -39 25q-1 26 -4 29q-41 68 -99 60q-2 6 -12 8q-11 2 -13 6q-32 2 -29 0q-6 -1 -27 -12q-15 -9 -30 -9l-14 -11q-7 0 -12 -11q-4 -11 -13 -10q1 3 -22 -96 q10 -35 4 -50q11 -43 7 -54q17 -37 22 -57q28 -55 32 -71q2 -3 10 -21q14 -14 43 -61q4 -9 39 -61q-4 6 39 -64q5 -11 21 -30q15 -17 19 -30q9 -1 25 -15q45 -2 60 -14q4 -22 0 -18q1 -10 -11 -15q-15 -5 -17 -10q0 -8 17 -28q7 -16 22 -25q7 -21 33 -50q27 -30 35 -50 q14 -13 37 -46t37 -46q31 48 47 135q0 6 5 11q5 6 5 10q-5 55 -7 57q-2 3 -75 40q-18 -18 -42 3q2 30 30 45q-3 -2 55 19q74 -17 64 -14q31 -22 29 -21q9 3 33 20q20 13 38 15q33 0 50 -3q1 0 25 -6q15 -3 18 -12q18 3 36 -11v-25q-7 -6 -20 -5q-16 1 -23 -2q-3 -1 -12 -6 q-7 -4 -13 -5q0 1 -11 -13q-7 -9 -18 -8q-33 -72 -35 -82q-6 -15 -13 -46q-8 -33 -12 -47q-13 -31 -36 -82q-12 -30 -21 -39q-1 3 -7 -21q-5 -3 -2 -10q2 -5 -6 -4q-1 -8 4 -13q6 -6 7 -9q1 -5 5 -11q5 -6 6 -10q5 -11 21 -18q-2 -7 2 -10q2 -1 5 -2q3 -2 4 -2q-2 -12 7 -20 q10 -10 11 -16q21 -22 21 -21q11 -2 34 -14q21 -12 34 -11q5 -1 12 -5q8 -5 13 -6q9 -1 20 1q13 3 19 3q18 -23 7 -47q-11 -8 -42 -13q-32 -5 -43 -12q-11 3 -29 -3q-10 8 -46 3q-36 17 -64 18q-19 17 -22 25q-8 0 -15 8q-6 10 -13 10q-2 8 -7 17q-6 12 -8 15q-12 0 -17 14 q-8 -11 -27 -30q-19 -20 -27 -30q1 1 -18 -11q-10 -6 -10 -18h-15q-15 -19 -17 -25q-19 -3 -43 -28q-22 -4 -72 -26q-43 -19 -78 -21q-17 -6 -56 -11q-42 -4 -58 -10q-106 -2 -153 21h-25q-5 4 -16 9q-12 6 -16 9q-4 -4 -15 3q-12 7 -21 4q-6 19 -36 25q-15 23 -42 36 q0 -1 -22 18q-6 14 -21 18q-6 11 -26 41q-17 26 -24 44q-5 6 -46 89q1 15 -7 36q2 13 -2 42q-4 31 -2 51q6 50 4 57q-2 5 5 13q6 6 2 8q-1 5 2 13t1 15q5 5 39 93q0 14 -16 26q-16 13 -16 28q10 7 35 12q28 5 37 9q3 5 7 16q5 12 7 16t14 23q9 14 11 27q4 2 25 32q4 2 11 18 q7 0 7 21q7 3 17 14q11 12 18 15q5 13 21 29q17 19 22 28q5 3 14 10q10 8 15 11q1 7 12 13q11 5 13 12q10 2 22 10q13 9 20 11q-4 16 -16 50q-11 31 -16 50q0 7 -14 18q3 26 4 25q-16 37 -18 135q4 6 7 20q4 15 7 20q0 8 4 19q2 9 0 20q-5 -2 28 39q3 7 13 19q9 11 12 20 q18 22 18 18q11 3 27 12q18 10 26 13q63 15 61 14q5 -2 26 -1q19 1 27 -6q12 10 25 7l16 -3q10 -2 9 -11q21 6 32 -7q6 5 16 0q12 -5 20 -4q3 -8 18 -10q18 -49 21 -65q6 -5 25 -60q3 -8 16 -21q12 -12 13 -25q-8 -14 -29 -29z" />
<glyph unicode="'" horiz-adv-x="344" d="M186 1143q-3 2 -6 7q-5 6 -5 7q-2 5 -6 17q-4 11 -6 18q-4 8 -12 35q-8 23 -15 34q-1 21 -10 49q-11 34 -13 47q-7 17 -13 45q-6 32 -10 43v66q5 9 15 21q12 16 16 21q35 6 46 12q34 -2 62 -17q18 -10 46 -33q0 -3 2 -28q1 -18 5 -30q-6 -24 -30 -116q-18 -72 -31 -115 q-3 -29 0 -58q-7 0 -9 -14q-1 -14 -10 -12q-8 -7 -16 1zM492 986q-2 -2 0 -3q1 -1 3 0q2 2 1 4q-1 0 -4 -1z" />
<glyph unicode="(" horiz-adv-x="597" d="M176 1057q-3 -2 -1 -4q1 -1 4 1q2 2 1 4q-1 1 -4 -1zM259 1357q-2 -2 -1 -4q2 -1 4 1q3 2 1 4q-1 1 -4 -1zM317 1476h10v10h-10v-10zM513 1449q-2 0 -17 2q-12 1 -21 1q-9 -4 -27 -8q-19 -4 -27 -7q-3 -1 -8 -5q-3 -4 -7 -5q-12 -4 -24 -26q-11 -20 -25 -23 q-9 -25 -32 -62q-24 -42 -32 -61q-56 -131 -54 -128q-7 -26 -22 -71q-16 -48 -23 -72q2 6 -29 -152q-13 -232 44 -398q11 -31 10 -34q15 -31 34 -89q15 -10 20 -44q-6 3 25 -40q45 -73 49 -78q1 -3 98 -153q12 -4 41 -1q23 3 33 -8q7 -17 0 -26q3 4 -20 -14q-22 -17 -54 -14 q-41 -44 -49 -50q-76 -18 -103 0q0 18 25 27q26 9 29 23q-7 23 -54 68q-14 27 -53 93q-34 57 -50 94q-8 18 -25 49q-18 33 -25 49q-36 87 -44 99q-4 29 -17 79q-13 51 -17 78q-9 132 -15 177v143q47 207 103 314q50 122 64 143q9 31 36 67q37 49 43 61q0 17 -18 36 q-18 17 -17 37q53 27 104 15q14 -3 28 -16q19 -17 21 -18q37 9 75 3q51 -8 53 -43q-9 -13 -26 -12z" />
<glyph unicode=")" horiz-adv-x="619" d="M419 354q3 3 1 4q-1 2 -4 -1q-3 -2 -1 -4q1 -1 4 1zM334 50q3 2 1 4q-1 1 -4 -1q-2 -2 -1 -4q2 -1 4 1zM276 -71h-10v-10h10v10zM77 -43q2 0 17 -2q13 -1 22 -1q8 3 27 8q19 4 28 7q3 1 7 5q4 5 8 5q12 4 24 26q11 21 26 24q9 25 31 63q25 42 33 62q58 133 55 130 q7 26 23 72q16 48 22 72q-2 -5 30 155q14 236 -45 404q-11 32 -10 35q-15 31 -35 90q-14 10 -20 45q7 -3 -25 40q-45 74 -49 80q-2 2 -100 154q-12 4 -42 1q-23 -2 -33 9q-7 17 0 26q-3 -4 20 14t55 15q41 45 50 50q77 19 104 0q0 -18 -25 -27q-27 -9 -29 -23q7 -24 54 -70 q14 -27 54 -94q34 -58 51 -95q8 -19 25 -50q18 -33 25 -50q37 -88 45 -100q4 -29 17 -80q14 -52 18 -80q9 -133 15 -179v-145q-47 -210 -105 -319q-50 -124 -65 -145q-9 -31 -36 -68q-37 -50 -44 -62q0 -18 19 -36q18 -18 16 -39q-53 -26 -104 -14q-15 3 -30 16 q-18 17 -20 18q-38 -9 -77 -3q-51 8 -53 43q9 13 26 13z" />
<glyph unicode="*" horiz-adv-x="573" d="M308 1434q9 6 12 12q4 3 11 9q8 7 11 10q6 1 11 10q5 8 12 9q2 5 9 11t9 11q10 2 38 15h38q1 -9 15 -7q17 -25 19 -30q9 -19 7 -42q-22 -78 -135 -97q-4 -2 -3 -4q1 -1 5 -3q10 -5 9 -8q5 -1 7 -8q3 -7 8 -8q13 -17 30 -30q1 -9 10 -22q9 -12 9 -23q6 -5 9 -22 q4 -18 10 -23q-4 -6 -4 -11q-3 -17 -16 -30q-7 -7 -26 -19q-43 -1 -63 11q-4 2 -10 9q-7 8 -9 10q-29 26 -49 72q-7 -3 -10 -17t-9 -17q0 -9 -8 -18q-9 -10 -11 -16q-66 -28 -101 -23q-28 4 -53 42q-1 24 4 49q3 3 19 25q12 16 22 23q7 11 22 24q20 18 23 22q-9 2 -29 9 q-19 7 -31 9q-10 11 -40 30q-27 17 -39 30q1 9 -4 15q-6 8 -7 12q1 15 10 29q3 5 8 12q6 8 8 11q12 1 15 8q45 5 83 -19q3 -2 11 -5l12 -6q3 -2 20 -14q12 -9 21 -12q7 12 -15 41q-2 21 -19 71v45q3 6 12 19q9 10 11 19q15 3 22 15q28 8 56 0q24 -7 42 -22q2 -12 7 -33 q6 -21 8 -31l-45 -132q2 -4 11 3z" />
<glyph unicode="+" horiz-adv-x="865" d="M492 372q-3 -2 -1 -4q1 -1 4 1q2 2 0 4q-1 1 -3 -1zM608 1048q5 -6 0 -12q-5 -7 0 -15q-2 -2 -40 -4q-42 -34 -58 -108q-12 -57 -10 -154q11 2 50 3q43 2 67 4q85 7 98 25q0 -2 14 41q1 11 -14 25q-12 13 -4 24q9 10 18 9q5 -1 18 -9q29 -17 32 -22q0 -1 -1 -5q0 -3 1 -4 q2 -3 10 -12q6 -7 8 -11q3 -10 4 -59q-7 -33 -18 -45q2 -9 8 -21q8 -15 10 -19q0 -66 -4 -81q-5 -3 -27 -34q-15 -22 -32 -16q-10 -3 -10 16q0 18 5 20v50q-11 9 -13 27q-23 15 -110 12q-26 -1 -65 -4q-38 -3 -45 -4q-2 -11 3 -42q5 -26 -3 -39q-3 6 13 -85q13 -39 23 -63 q9 -21 41 -50q29 2 45 -4q0 -30 -25 -48q-5 -4 -22 -14q-14 -8 -21 -15q-69 -12 -140 22q-56 -9 -63 -9q-45 19 -76 59q-6 23 -3 41q3 24 21 27q8 1 10 -8q4 -16 3 -15q5 -1 9 -7q5 -6 9 -6q31 -1 50 13q31 44 31 176l-6 29q-3 16 2 29q-10 2 -103 2q-93 -1 -117 3 q-17 -1 -18 -18q-17 -1 -18 -18q-3 -18 14 -36q15 -17 8 -32q-11 -7 -26 2q-19 12 -28 12q-9 4 -45 27q1 37 -4 49q5 7 11 23q7 16 11 22q-2 10 -13 21t-14 20q0 8 -3 32q-3 20 -1 35q3 9 8 21q8 17 10 20l28 18q19 9 35 0q3 -8 -5 -30q-9 -24 -4 -42q15 -31 118 -34 q20 -1 83 0q49 0 68 -2q2 20 -2 53q-6 46 -7 55q0 6 1 25q1 16 -1 25q-2 13 -10 30q-10 21 -12 28q-21 26 -68 45q-11 1 -36 -8q-15 -6 -27 8q4 23 29 36q5 3 22 11q14 7 21 12h72q61 -18 72 -36q103 45 158 13z" />
<glyph unicode="," horiz-adv-x="557" d="M197 -148q-1 9 0 14q0 13 12 20q-2 9 5 12q9 4 10 8q5 1 6 11q2 10 9 9q-6 6 -4 14q0 2 2 7t2 9q-11 10 -35 19q-40 16 -40 15q-23 20 -33 36q-15 24 -16 54q-2 14 2 35q4 20 3 35q5 11 20 36q14 23 19 38q14 5 20 8q9 6 10 17q81 11 95 10q24 -4 51 -19q6 -3 21 -13 q14 -8 22 -13q0 -10 8 -19q11 -13 12 -16q0 -7 11 -14q10 -6 9 -15t5 -10q-2 -18 -30 -140q-12 -9 -22 -29l-9 -18q-5 -11 -9 -17q-4 -10 -21 -31q-14 -19 -18 -34q-6 1 -8 -2q-2 -2 -2 -8q-7 -3 -23 -11q-15 -9 -24 -13q-30 -12 -58 -1q0 4 -2 16z" />
<glyph unicode="-" horiz-adv-x="670" d="M560 487q-2 -29 2 -45l-4 -4l-4 -4q-6 -4 -14 -3q-4 -1 -7 -10q-3 -7 -7 -8q-123 5 -128 5q-68 1 -121 -9h-9h-9q-11 0 -15 4q-41 -9 -104 0q-13 -3 -21 -1q-4 1 -15 8q-1 9 3 38q5 32 4 52q4 2 19 9q11 5 17 9q21 -1 60 8q36 8 52 7q30 4 63 4q37 -1 60 -8q21 2 52 0 q43 -4 48 -4q8 0 19 1q15 1 19 1q22 0 38 -5q5 -17 2 -45z" />
<glyph unicode="." horiz-adv-x="557" d="M277 258q52 -27 51 -27q7 -12 37 -49q8 -43 9 -86q-44 -94 -145 -100q-38 4 -64 30q-18 18 -36 56q-4 56 15 101q12 29 44 71q7 -1 13 6q5 6 14 3q30 12 62 -5z" />
<glyph unicode="/" horiz-adv-x="942" d="M286 177q-3 -2 -1 -3q1 -2 3 1q3 2 1 3q-1 2 -3 -1zM585 1104q-3 -2 -1 -4q1 -1 4 1q2 2 1 4q-2 1 -4 -1zM874 1360q-35 -1 -54 -9q-15 -5 -30 -23q-18 -20 -28 -26q-8 -12 -43 -62q-6 -14 -36 -69q-22 -41 -32 -71q-84 -207 -111 -309q-38 -91 -53 -159 q-53 -133 -58 -150q-13 -24 -30 -76q-17 -57 -28 -78q-46 -161 -43 -222q3 -7 9 -27q6 -17 10 -26q7 -5 77 -19q-11 -36 -9 -34q-13 1 -29 -19q-15 0 -33 -6q-25 -8 -30 -9q-68 7 -101 34q-11 -8 -53 -15q-81 1 -140 68q-4 44 -4 42q1 26 18 35q13 3 19 -3q2 -1 5 -5 q4 -5 5 -6q10 2 17 -5t17 -5q41 13 65 70q35 86 41 94q6 41 31 93q30 64 37 86q7 25 36 84q25 52 31 89q11 10 21 35q12 29 18 38q5 9 13 40q7 26 16 37q12 28 25 76q15 57 23 78q2 5 24 53q2 4 8 12q5 8 7 12q1 4 0 12q-1 9 0 12q0 2 5 6q4 3 4 4q5 16 10 47q6 35 10 50 q23 96 24 135q-10 46 -34 62q-16 2 -41 -10q-22 -10 -36 -4q-7 20 -5 43q8 38 51 58q13 6 39 15q28 9 40 14q65 -8 77 -5q28 -11 39 -29q9 4 24 15t24 14q1 10 5 8q9 -2 15 2q0 5 11 5q11 1 13 5h67q40 -26 50 -35q24 -23 27 -57q-15 -9 -47 -10z" />
<glyph unicode="0" horiz-adv-x="995" d="M738 936q-4 6 -4 12q-10 126 -69 250q-65 72 -60 65q-23 8 -43 26q-94 21 -186 -5q-19 -13 -44 -41q-33 -36 -42 -45q-54 -136 -56 -203q-9 -15 -14 -43q-5 -29 -12 -43q7 -29 3 -73q-4 -53 -3 -74q10 -5 9 -21q3 -4 21 -24q14 -14 18 -28q-2 -3 -22 -26 q-20 -73 -13 -129q2 -9 7 -22q5 -12 6 -17q0 -2 -2 -5q-3 -2 -2 -4l4 -2q4 -1 4 -2t-3 -10q-3 -7 -1 -12q21 -70 30 -146q16 -20 18 -56q41 -79 73 -108q88 -40 108 -43q72 7 69 8q8 9 34 22q12 6 39 17q6 12 17 17q7 15 22 18q1 16 17 17q0 9 17 22q0 7 13 25q1 18 10 41 q10 27 12 37q1 13 10 40q8 23 7 42q5 1 7 10q2 10 6 12q-1 23 17 77q6 100 6 107q-1 58 -23 87q-3 4 -19 5q-15 0 -15 8q-7 18 0 35q-9 -2 -10 9q-2 12 -8 12q-8 0 -10 9t2 13q3 -3 15 -17q10 -10 19 -13q11 18 0 17q6 2 1 6q-8 6 -5 11q5 0 13 -8q8 -6 17 -5q-1 -3 0 138 q-1 3 -5 10zM929 711q-7 -3 -11 -15q-5 -13 -11 -16q1 -5 -13 -60q-4 -120 -4 -116q-2 -6 -13 -78q-10 -67 -9 -73q4 0 -13 -31q-9 -25 -8 -30q-2 -8 -10 -29q-7 -17 -8 -31q-8 -8 -21 -31q-12 -21 -22 -30q-3 -5 -23 -26q-14 -16 -20 -30q-13 0 -21 -9q-2 -2 -7 -8l-6 -9 q-10 -1 -19 -11q-11 -12 -16 -14q-8 2 -14 -8q-8 -13 -12 -14q-1 -1 -6 0t-7 0q-3 -2 -14 -14q-9 -10 -16 -12q-157 -43 -267 0q-77 46 -69 43q-7 17 -39 48q-81 177 -82 181q-7 4 -9 24q-2 19 -8 23q-4 5 -7 27q-2 17 -11 21q-5 31 -30 99q0 29 -12 79q-11 48 -10 81 q1 1 -6 9q-6 5 2 8q-3 10 -18 22t-16 25q-1 20 17 33q22 16 26 23q3 34 13 61q0 -5 0 69q34 184 43 198q-6 20 6 46q13 29 11 49q2 6 17 27q10 16 9 34q29 22 43 51q41 47 43 52q16 4 42 23q24 17 45 20q43 20 94 35q20 -3 63 -4q43 -2 63 -5q5 -2 34 -13q21 -8 30 -17 q3 0 31 -17q10 -7 8 -5q8 -9 22 -8q0 5 21 -26q7 -1 11 -10q5 -10 11 -12q4 -4 20 -23q12 -14 19 -24q14 -16 32 -54q19 -39 32 -54q0 -11 18 -82q17 -68 38 -250q4 -10 26 -43q3 -4 20 -15q13 -9 15 -20q-13 -30 -17 -34z" />
<glyph unicode="1" horiz-adv-x="478" d="M264 431q-2 1 -2 -3q0 -2 2 -2q2 -1 2 2t-2 3zM361 1369q-21 -8 -22 -8q-1 -1 -38 -22q-40 -67 -35 -172q0 -6 -2 -17t-2 -17q0 -13 4 -51q4 -37 4 -57q1 -9 -2 -30q-2 -20 -2 -30q0 -9 2 -27q2 -19 2 -29q0 -1 -2 -3q-2 -3 -2 -5t2 -3q2 -2 2 -1q0 -3 -2 -4q-2 0 -2 -1 q0 1 2 -14q2 -16 2 -24q1 -12 0 -34v-35q7 -16 28 -30q26 -18 33 -26q3 -19 -8 -33q-17 -21 -18 -23q-12 -62 -9 -124q6 -33 9 -39q-4 -45 13 -180q5 -92 21 -185q4 -4 9 -15t8 -15q40 -40 39 -39q-2 3 22 -16q13 -10 12 -27q-8 -8 -27 -16q-22 -10 -28 -14l-18 -4h-43 q-8 0 -21 7q-12 6 -22 6q4 -1 -30 13q-53 -25 -116 -18q-8 4 -18 12q-12 12 -16 14q-3 4 -17 11q-11 6 -13 15q0 16 19 21q24 7 28 13q37 41 39 43q12 39 21 52q-3 23 9 47q3 32 0 92q-4 60 0 93q-7 10 -8 46q-1 34 -9 44q5 29 -2 73q-10 61 -11 73q-3 13 -23 24 q-21 11 -24 23q0 7 17 35q10 -1 14 11q5 13 12 14q8 74 8 73q1 85 -13 134q0 38 -4 98q-4 61 -4 91q-2 9 1 19q4 11 3 19q-7 43 -17 95q-1 1 -3 4q-2 2 -1 4q-2 9 -26 30q-1 9 -13 16q-12 6 -13 15q-37 14 -43 25q0 14 15 23q14 9 24 3q9 1 29 8q17 6 31 5q-1 0 73 -26 q14 1 29 12q18 12 27 14q37 11 81 9q2 -2 29 -19q17 -11 19 -29q0 -12 -13 -17z" />
<glyph unicode="2" horiz-adv-x="1012" d="M108 22q9 3 10 5q-10 -3 -10 -5zM903 208q-3 -2 -1 -4q1 -1 3 1q3 2 1 4q-1 1 -3 -1zM193 1006q-2 -2 -1 -4q1 -1 4 1t1 4q-1 1 -4 -1zM547 1380q9 3 9 5q-9 -3 -9 -5zM752 623q-25 4 -37 1q7 4 -65 -51q-7 -12 -29 -30q-21 -16 -27 -31q-16 -6 -34 -24q-21 -21 -32 -27 q-15 -12 -56 -61q-10 -3 -27 -20q-15 -14 -29 -17q-6 -10 -23 -26t-23 -26q-9 1 -14 -11t-14 -12q0 5 -19 -28q-49 -83 -56 -135q185 -23 513 -10q6 1 14 8q7 6 14 6q42 35 61 70q16 8 30 33q16 30 26 37q47 -6 42 -71q-2 -19 -9 -54q-9 -37 -10 -47q0 -62 5 -80 q-20 -13 -98 -9q-17 2 -55 1q-32 -2 -52 4q-10 2 -15 -4q-7 -7 -13 -6q-20 3 -77 1q-50 -1 -73 4q-9 2 -16 -5t-16 -4q-15 1 -93 1q-52 -1 -85 8q-4 0 -16 -7q-9 -5 -21 -2q-71 10 -233 -10q-4 4 -10 15q-5 10 -9 13q-2 16 19 52q-2 19 14 53q17 37 18 59q10 7 20 24 q12 21 18 27q3 9 17 27q13 15 15 29q15 14 38 49q22 35 37 49q11 22 40 48q34 31 44 45q15 15 84 89q25 15 59 43q44 36 58 46q0 14 14 37q2 10 -2 29q-4 16 2 23q30 11 65 9q8 3 28 42q22 41 23 47q4 13 14 168q-2 9 -14 81q-8 50 -18 77q-7 16 -23 36q-19 25 -24 34 q-6 5 -39 24q-25 14 -36 28q-13 -1 -46 14q-131 5 -173 -33q-5 -2 -18 -15q-10 -10 -24 -8q-23 -29 -51 -52q0 -7 -14 -28q1 -22 -5 -42q-1 -7 3 -16q3 -8 2 -16q2 -12 12 -35q8 -21 11 -35q7 -2 12 -12t11 -12q-1 -28 10 -23q-6 -16 -17 -19q-6 -2 -30 0q-108 0 -192 10 q-6 11 -2 37t-2 37q11 5 9 33q24 77 24 79q7 10 30 53q19 34 35 50q18 35 37 47q2 5 10 11q7 7 9 12q1 3 12 9q8 5 7 14q33 15 51 33q10 -2 16 4q8 9 12 10q19 3 23 14q-4 2 38 9q30 6 98 5q77 -2 98 0q7 -7 36 -10q27 -3 34 -13q15 0 34 -10t36 -9q10 -13 34 -29 q27 -19 36 -27q-1 0 4 -8q3 -6 10 -6q5 -23 21 -53q20 -36 25 -50q8 -17 17 -55q9 -40 16 -57q1 -22 2 -55q1 -27 3 -47q-11 -56 -10 -94q-27 -92 -28 -126q-16 -16 -32 -51q-3 -18 5 -55q6 -31 -1 -48q-7 -5 -28 -1z" />
<glyph unicode="3" horiz-adv-x="1005" d="M933 468q-2 -2 -1 -4q1 -1 4 1q2 2 1 4q-1 1 -4 -1zM465 1405q-3 -2 -1 -4q1 -1 3 1q3 2 1 4q-1 1 -3 -1zM750 754q22 -8 28 -11q54 -45 101 -89q7 -14 20 -33q16 -26 20 -33q4 -6 16 -34q10 -22 19 -32q3 -16 12 -46q9 -29 11 -47q0 -20 4 -53q4 -36 4 -53 q-4 -128 -101 -265q-40 -21 -71 -44q-148 -53 -225 -53q-15 -1 -70 6q-48 6 -81 2q-85 10 -225 80q-27 34 -35 35q-1 13 -13 27q-13 14 -14 26q-5 8 -13 25t-13 24q0 7 -27 97q-6 8 -34 12q-27 4 -32 15q1 13 12 20q-2 -1 23 11q8 9 40 22q64 1 79 -14q31 19 84 23 q6 -3 25 -10q15 -6 23 -11q26 -14 28 -41q-26 -10 -31 -5q-10 3 -18 -2q-8 -7 -13 -7q-16 -14 -14 -75q13 -24 46 -51q41 -33 52 -46q20 0 26 -13q12 -1 71 -13q57 -13 66 -18q164 29 203 53q5 0 10 8q5 6 13 5q62 80 57 75q2 21 18 53q2 15 0 80q0 4 2 7t2 6q0 10 -4 49 q-13 116 -89 207q-115 72 -225 80q-83 6 -80 4q-14 35 -4 67q13 4 55 9q36 4 51 13q59 31 102 70q52 92 57 155q-5 79 -22 150q-6 18 -24 43q-19 27 -25 41q-18 11 -46 35q-31 26 -46 36q-90 14 -89 13q-75 -12 -185 -115q-14 -23 -18 -59q-4 -39 9 -64q20 -5 37 9 q17 15 33 13q11 -13 0 -38q-18 -46 -17 -42q-72 -17 -97 -13q-12 2 -27 8q-17 8 -22 10q-12 -2 -32 -12q-20 -9 -34 -10q1 0 -71 17q-1 5 -10 24q-6 14 -3 29q12 12 35 9q26 -3 40 5q19 7 22 70q5 13 22 97q5 6 17 28q9 18 18 25q6 7 21 22q13 13 19 23q98 53 181 66 q202 3 341 -97q2 -6 14 -17q10 -10 12 -19q14 -9 27 -31q9 -12 22 -37q14 -27 22 -38q2 -18 15 -77q10 -50 11 -82q1 -5 -2 -33q-1 -20 2 -33q0 -1 -39 -124q-27 -43 -27 -40q-9 0 -17 -9q-8 -11 -14 -13q-1 -6 -14 -10q-12 -4 -12 -12q7 -8 25 -15z" />
<glyph unicode="4" horiz-adv-x="1005" d="M603 118q-3 -2 -1 -4q1 -1 3 1q3 2 1 4q-1 1 -3 -1zM95 516q-3 -2 -1 -3q1 -1 4 1q2 2 1 3q-1 2 -4 -1zM540 1144q-54 -79 -71 -128q-12 -11 -27 -38q-15 -28 -25 -38q-4 -16 -23 -44q-17 -26 -20 -46q1 -12 19 -22q16 -9 14 -26q-5 -12 -17 -12q-3 0 -11 1q-10 1 -15 2 q-6 -11 -24 -21q-22 -12 -28 -17q-2 -9 -10 -26q-8 -15 -9 -27q-44 -47 -47 -85q-33 -44 -62 -123q72 -1 147 14q76 -2 166 19q21 -2 51 1q34 4 49 4q14 174 14 199q-8 4 -9 19q-3 4 -13 14q-7 8 -11 14q-3 2 -9 4q-7 3 -10 4q-10 5 -10 16q6 14 33 32q24 17 29 35 q2 -5 -5 42q9 52 10 175q3 130 9 186q-2 9 -4 9l-3 -6q-3 -4 -2 -8q-34 -46 -76 -123zM758 774q-16 -60 -19 -81q-1 -29 0 -71q1 -52 0 -76h124q19 9 18 47q-2 49 1 57q29 -1 44 -32q2 -5 10 -27q6 -17 12 -26q-2 -8 1 -16q4 -8 4 -13q-1 4 -5 -47q0 -13 11 -25 q12 -12 13 -23q2 -9 -19 -118q-11 5 -30 2t-27 3q-5 9 -5 42q-1 30 -9 38q-28 -4 -76 -2q-45 2 -67 -2q-10 -193 -5 -266q6 -23 53 -81q19 -3 23 -14q41 -3 43 -5q-8 -23 -52 -57q-79 -4 -119 0q-6 3 -20 13q-13 8 -22 11q-12 -1 -25 -11q-14 -11 -23 -13q-87 -9 -147 33 q0 9 -18 24q-14 13 -6 24q1 9 15 12q16 2 19 7q9 3 14 -5t14 -5q8 0 25 4q15 3 27 1q6 3 14 12t15 12q19 55 21 145q3 122 7 154q-23 15 -71 0q-261 -19 -299 -29q-14 5 -46 0q-37 -6 -54 -4q-10 0 -31 -7q-18 -6 -30 -3q-4 12 -7 40q-3 29 -8 41q-1 70 -9 90q10 6 16 33 q7 27 17 33q1 5 33 67q35 64 72 128q2 13 -13 31q-13 16 -6 26q1 11 25 10q27 -1 32 4q19 22 45 70q29 52 45 72q0 9 10 19q9 9 9 19q6 3 11 17q6 14 12 17q4 9 21 36q13 22 17 39q55 97 86 143q35 63 42 71q2 8 10 19q8 10 9 19q9 1 13 16t11 17q17 4 83 12q53 6 78 17 q5 1 5 -5h14q6 -4 14 -17q7 -13 15 -16q3 -68 -2 -179q-6 -114 -3 -187q-9 -72 -9 -204q3 -12 21 -24t21 -23q-1 11 -33 -33z" />
<glyph unicode="5" horiz-adv-x="1104" d="M697 30q8 2 8 4q-8 -3 -8 -4zM276 273q-2 -2 0 -3q1 -1 3 1q2 1 1 3q-1 1 -4 -1zM963 1172q14 31 12 25q3 41 -8 63q-36 13 -198 13q-146 0 -198 -9q-162 9 -186 4q-11 -21 -21 -63q-12 -54 -17 -67q-21 -114 -25 -144q26 3 99 14q64 10 103 12q34 1 89 -5q69 -7 88 -8 q44 -10 143 -50q18 -13 47 -38q32 -28 46 -38q100 -154 101 -156q25 -43 51 -194v-89q-24 -166 -106 -282q-16 -18 -54 -48q-39 -31 -55 -49q-32 -6 -59 -33q-15 2 -28 -6q-17 -10 -23 -11q-7 -3 -25 -6q-17 -4 -25 -7q-11 -2 -56 -9q-35 -6 -54 -12q-34 5 -130 8 q-111 24 -207 102q-22 34 -29 42q-31 30 -59 88q-21 44 -26 47q-1 27 -12 70q-11 45 -13 69q-8 5 -19 29q-11 20 -23 25q-7 6 -35 10q-29 4 -41 11q0 27 42 34q9 5 32 7q28 2 27 2q46 -17 68 -47q-4 -2 46 34q83 18 76 17q33 0 38 -2q12 -4 17 -24q-2 -17 -31 -22 q-31 -6 -37 -15q-16 -40 -12 -93q2 -15 9 -35q9 -24 12 -33q66 -85 71 -88q-3 6 85 -76q112 -32 177 -34q3 0 11 4q7 2 14 1q21 6 88 29q8 1 17 11q9 9 17 10q2 7 15 10q13 4 15 11q13 4 30 21t29 21q3 13 15 29q15 20 18 26q22 42 51 202q0 -6 -38 169q-18 29 -42 84 q-6 9 -26 31q-17 19 -25 32q-6 4 -57 36q-34 22 -61 32q-74 22 -152 34q-139 -5 -151 -9q-32 -4 -139 -42q-14 -6 -47 -34q-5 -1 -25 -14q-13 -8 -29 -3q-13 17 -5 51q-1 14 4 32q6 19 5 31q12 132 12 131q11 51 13 122q2 15 10 62q6 38 7 64q7 15 15 44q10 33 14 45 q3 1 161 4q42 1 101 4q11 1 47 7q33 6 50 6q295 0 354 13q8 2 19 12q10 11 18 13q4 8 9 25q5 18 8 25q1 3 5 4q4 2 4 5q31 -16 38 -65q7 -48 -13 -83q-3 5 17 -46q1 -64 -9 -84q-16 -33 -29 -47q-26 -26 -51 -25q-6 11 1 26z" />
<glyph unicode="6" horiz-adv-x="1019" d="M480 761q-9 -5 -28 -8q-22 -4 -29 -6q-8 -8 -22 -8q-16 -1 -24 -6q-5 -4 -29 -21q-17 -12 -27 -21q-13 -6 -29 -23q-18 -18 -28 -24q-5 -16 -23 -40t-23 -40q-35 -132 61 -341q9 -3 9 -14q14 -8 40 -28q25 -20 39 -28q69 -36 94 -47q16 -2 53 -10q33 -7 54 -9 q28 9 202 103q4 9 13 20q12 14 15 18q8 3 15 19t17 18q2 18 14 47t14 47q3 64 5 70q-3 13 -14 58q-8 37 -14 59q-12 15 -27 45q-18 38 -24 48q-28 32 -103 94q-80 27 -84 28q-40 -2 -80 5q-6 -1 -5 -5h-32zM810 1169q-5 12 -12 13l-11 12q-4 6 1 16q-4 38 -42 56 q-19 0 -41 -10q-28 -11 -38 -13q-44 -7 -80 -24q-66 -27 -75 -28q-13 -13 -60 -37q-133 -120 -173 -328q3 -5 14 1q17 8 18 9q21 5 33 14q39 7 75 18q174 -5 163 -4q26 -8 75 -17q54 -10 75 -16q36 -22 103 -56q41 -53 75 -84q55 -113 61 -276q-5 -24 -8 -53q-4 -32 -6 -45 q-7 -22 -23 -55q-18 -36 -24 -53q-8 -5 -16 -24q-8 -18 -17 -23q-1 -11 -13 -24q-13 -13 -15 -22q-22 -12 -55 -39q-35 -30 -53 -41q-24 -16 -135 -51h-75q-136 21 -154 32q-27 9 -63 31q-43 28 -59 35q-87 118 -93 135q-15 29 -32 81q-22 66 -29 83q-12 251 -28 290 q-1 11 -16 19q-16 8 -17 18q2 16 22 28q21 13 25 24q71 195 75 210q13 11 30 43q16 31 30 42q13 15 49 61q30 39 50 60q19 21 55 52q42 36 57 51q41 16 79 47q45 7 66 28l103 23q40 -2 89 10q12 24 -2 59q-14 37 -8 53q14 6 32 -1q19 -8 29 -4q46 -67 56 -117q-5 -29 -3 -71 q3 -58 3 -74q-11 -38 -51 -75q-10 0 -16 11zM480 761q-9 -5 -28 -8q-22 -4 -29 -6q-8 -8 -22 -8q-16 -1 -24 -6q-5 -4 -29 -21q-17 -12 -27 -21q-13 -6 -29 -23q-18 -18 -28 -24q-5 -16 -23 -40t-23 -40q-35 -132 61 -341q9 -3 9 -14q14 -8 40 -28q25 -20 39 -28 q69 -36 94 -47q16 -2 53 -10q33 -7 54 -9q28 9 202 103q4 9 13 20q12 14 15 18q8 3 15 19t17 18q2 18 14 47t14 47q3 64 5 70q-3 13 -14 58q-8 37 -14 59q-12 15 -27 45q-18 38 -24 48q-28 32 -103 94q-80 27 -84 28q-40 -2 -80 5q-6 -1 -5 -5h-32zM810 1169q-5 12 -12 13 l-11 12q-4 6 1 16q-4 38 -42 56q-19 0 -41 -10q-28 -11 -38 -13q-44 -7 -80 -24q-66 -27 -75 -28q-13 -13 -60 -37q-133 -120 -173 -328q3 -5 14 1q17 8 18 9q21 5 33 14q39 7 75 18q174 -5 163 -4q26 -8 75 -17q54 -10 75 -16q36 -22 103 -56q41 -53 75 -84 q55 -113 61 -276q-5 -24 -8 -53q-4 -32 -6 -45q-7 -22 -23 -55q-18 -36 -24 -53q-8 -5 -16 -24q-8 -18 -17 -23q-1 -11 -13 -24q-13 -13 -15 -22q-22 -12 -55 -39q-35 -30 -53 -41q-24 -16 -135 -51h-75q-136 21 -154 32q-27 9 -63 31q-43 28 -59 35q-87 118 -93 135 q-15 29 -32 81q-22 66 -29 83q-12 251 -28 290q-1 11 -16 19q-16 8 -17 18q2 16 22 28q21 13 25 24q71 195 75 210q13 11 30 43q16 31 30 42q13 15 49 61q30 39 50 60q19 21 55 52q42 36 57 51q41 16 79 47q45 7 66 28l103 23q40 -2 89 10q12 24 -2 59q-14 37 -8 53 q14 6 32 -1q19 -8 29 -4q46 -67 56 -117q-5 -29 -3 -71q3 -58 3 -74q-11 -38 -51 -75q-10 0 -16 11z" />
<glyph unicode="7" horiz-adv-x="917" d="M136 45q-3 -2 -1 -4q1 -1 4 1q2 2 1 4q-1 1 -4 -1zM297 1052q-3 -2 -1 -4q1 -1 4 1q2 2 1 4q-1 1 -4 -1zM306 1084q-2 -2 -1 -4q1 -1 4 1q2 2 1 4q-1 1 -4 -1zM311 1098q-3 -2 -1 -4q1 -1 4 1q2 2 0 4q-1 1 -3 -1zM315 1107q-2 -2 -1 -4q2 -1 4 1q3 2 1 4q-1 1 -4 -1z M349 1217q-2 0 -2 -3t2 -3q2 -1 2 3q0 2 -2 3zM-75 1433q-3 -2 -1 -3q1 -1 3 1q3 2 1 3q-1 2 -3 -1zM790 1106q-30 -124 -46 -157q-1 -11 -22 -77q-15 -47 -5 -84q2 -10 19 -20q16 -9 17 -21q4 8 -69 -51q2 -8 -5 -12q-16 -8 -13 -6q0 -9 -28 -78q-10 -54 -27 -78 q0 -23 -9 -49q-12 -36 -14 -43q-36 -110 -51 -175q-3 -9 -9 -46q-5 -29 -14 -41q5 -10 10 -46q-6 10 73 -60q38 -1 32 0q17 -2 19 -14q2 -19 -15 -27q-5 -2 -16 -5q-10 -2 -15 -5q-3 -3 -16 -4q-12 -2 -12 -9q-5 5 -13 3q-2 0 -7 -2q-4 -1 -7 -1h-33q-72 15 -87 41 q-24 -35 -91 -44q-66 -8 -111 16q-43 51 -33 120q20 6 42 -13q25 -23 41 -24q7 0 18 5q10 5 19 4q16 13 32 42q22 37 28 46q12 48 40 127q32 87 43 126q8 30 33 132q20 83 36 130q-75 19 -115 0q-10 -12 -14 -43q-3 -27 -14 -36q-16 -2 -22 13l-10 24v65q37 61 41 64 q-14 35 -7 71q7 35 30 58q34 33 60 18l2 -21q1 -9 -7 -16q-21 -14 -18 -32q2 -14 22 -22q24 -9 29 -15h55q13 18 23 58q12 49 18 62q35 101 41 119q6 14 20 61q11 39 22 59q8 18 18 62t19 62q-179 44 -322 18q-27 -3 -32 14q-15 -7 -69 5q-17 -4 -55 -5q-40 -2 -56 -4 q-27 -9 -87 -78q-18 -50 -28 -65l-7 -38q-5 -23 -20 -26q-21 5 -16 31q1 7 6 22q4 14 5 20q3 19 6 91q2 60 13 93q1 11 -5 23q-5 10 0 19q18 1 54 9q35 7 56 9q6 0 11 -2q5 -3 8 -3l5 3q5 2 8 2q6 0 17 -2q10 -3 16 -3q14 0 49 3q33 3 52 2q414 -15 469 -18q11 -2 24 1 q14 4 22 3q3 -4 13 -7q11 -4 14 -7q-1 -8 6 -12q8 -6 8 -11q-42 -109 -92 -298z" />
<glyph unicode="8" horiz-adv-x="963" d="M660 146q-14 -1 -18 -9q16 -2 18 9zM310 730q-12 -9 -22 -10q-23 -24 -31 -27q-51 -64 -53 -65q3 7 -17 -40q-5 -4 -10 -21q-4 -15 -12 -18q-11 -97 -4 -171q27 -64 61 -122q6 -2 11 -11q5 -10 11 -11q21 -26 22 -27q11 -6 46 -27q30 -18 46 -25q0 -1 2 -4q1 -4 2 -5 q6 -4 48 -17q27 -9 53 -5q15 3 44 7q24 3 39 6q15 5 52 20q32 14 53 20q8 6 37 28q23 17 37 29q6 9 26 33q16 21 23 37q6 5 5 19q0 11 12 11q14 41 18 44q17 94 0 188q-6 12 -35 84q-15 17 -41 42q-33 31 -43 41q-8 1 -70 26q-23 3 -64 3q-47 1 -58 1q-5 0 -5 -4 q-38 -2 -162 -17q-7 -3 -21 -12zM218 1275q-2 -2 0 -4q1 -1 3 1t1 4q-1 1 -4 -1zM139 1127v-88q28 -80 83 -127q118 -53 193 -48q61 22 91 26q81 52 114 105q31 81 9 184q-32 87 -118 140q-14 2 -67 13q-40 7 -69 9q-5 0 -4 -4q-21 0 -47 -12q-28 -13 -45 -14 q-97 -73 -140 -184zM407 1389q-3 -2 -1 -4q1 -1 3 1q3 2 1 4q-1 1 -3 -1zM712 851q11 0 22 -11t22 -11q7 0 39 4q23 3 35 -4q1 -12 -5 -31q-6 -18 -3 -35q2 -17 18 -39q23 -31 26 -35q5 -11 16 -42q9 -27 19 -41q36 -171 -18 -324q-1 -4 -6 -11q-6 -7 -7 -11 q-22 -62 -26 -70q-24 -47 -53 -75q6 9 -92 -78q-17 -4 -42 -11q-32 -9 -41 -11q-9 -4 -41 -10q-26 -5 -38 -12q-195 4 -228 13q-14 10 -64 39q-40 23 -63 40q-59 77 -61 79q-68 183 -65 175q-20 51 -27 197q3 16 11 42q8 28 11 41q-1 19 -9 26q4 8 -6 12q-8 3 -2 6 q-2 12 12 16q17 4 18 10q7 2 17 9q11 7 18 8q27 42 35 49q3 11 18 24t17 24q-13 25 -47 64q-36 40 -49 63q-34 109 -35 114q-2 60 4 127q3 7 11 37q7 22 11 37q51 75 48 70q81 68 162 101q8 2 43 7q27 4 41 10q84 1 157 -8q5 -1 114 -53q-2 3 6 -12q3 -7 12 -5q2 -10 16 -26 q13 -14 14 -27q8 -5 18 -22q9 -17 17 -22q40 -142 40 -140q4 -144 -88 -245q-2 3 48 -22z" />
<glyph unicode="9" horiz-adv-x="1097" d="M586 655q9 5 28 9q24 4 30 6q9 8 24 9q17 0 26 6q5 4 29 21q19 14 29 23q13 6 31 24q18 19 28 25q6 17 25 42q19 26 25 42q36 139 -64 358q-10 3 -10 15q-15 9 -42 29q-27 21 -42 30q-71 37 -98 49q-17 2 -56 10q-34 8 -57 9q-29 -9 -211 -108q-4 -8 -14 -20 q-13 -15 -15 -19q-9 -3 -17 -20q-7 -17 -18 -19q-2 -19 -14 -49q-13 -30 -15 -49q-2 -68 -5 -74q3 -14 15 -62q9 -38 14 -61q13 -16 29 -48q18 -39 25 -50q29 -33 108 -98q84 -28 89 -30q41 2 83 -5q6 1 5 5h35zM238 227q6 -13 14 -14q0 1 10 -13q5 -6 -1 -16q5 -40 45 -59 q20 0 43 10q29 12 40 15q46 6 84 24q69 29 78 30q14 14 64 39q140 126 182 344q-4 6 -16 -1q-17 -9 -19 -9q-22 -6 -34 -15q-41 -7 -79 -20q-183 6 -171 5q-27 8 -79 18q-56 11 -79 17q-37 23 -108 59q-43 55 -78 88q-58 119 -64 290q5 24 8 55q4 34 7 48q6 22 24 57 q19 38 25 56q8 5 17 24q8 20 17 25q2 12 14 25q13 14 16 24q23 12 57 41q37 31 56 42q25 17 142 54h79q142 -22 162 -34q28 -9 65 -32q45 -29 62 -37q92 -124 98 -142q16 -30 34 -84q23 -70 30 -88q13 -263 30 -304q0 -12 17 -20q16 -8 17 -20q-2 -16 -23 -29 q-22 -13 -26 -25q-75 -205 -79 -221q-13 -11 -31 -44t-32 -44q-14 -16 -51 -64q-32 -41 -53 -64q-19 -22 -58 -54q-44 -38 -59 -54q-44 -17 -84 -49q-47 -7 -69 -29l-108 -25q-42 3 -93 -10q-13 -25 2 -62q15 -39 8 -55q-14 -7 -34 1t-30 3q-49 71 -59 123q5 31 3 75 q-3 61 -3 77q11 41 54 79q11 1 16 -11zM586 655q9 5 28 9q24 4 30 6q9 8 24 9q17 0 26 6q5 4 29 21q19 14 29 23q13 6 31 24q18 19 28 25q6 17 25 42q19 26 25 42q36 139 -64 358q-10 3 -10 15q-15 9 -42 29q-27 21 -42 30q-71 37 -98 49q-17 2 -56 10q-34 8 -57 9 q-29 -9 -211 -108q-4 -8 -14 -20q-13 -15 -15 -19q-9 -3 -17 -20q-7 -17 -18 -19q-2 -19 -14 -49q-13 -30 -15 -49q-2 -68 -5 -74q3 -14 15 -62q9 -38 14 -61q13 -16 29 -48q18 -39 25 -50q29 -33 108 -98q84 -28 89 -30q41 2 83 -5q6 1 5 5h35zM238 227q6 -13 14 -14 q0 1 10 -13q5 -6 -1 -16q5 -40 45 -59q20 0 43 10q29 12 40 15q46 6 84 24q69 29 78 30q14 14 64 39q140 126 182 344q-4 6 -16 -1q-17 -9 -19 -9q-22 -6 -34 -15q-41 -7 -79 -20q-183 6 -171 5q-27 8 -79 18q-56 11 -79 17q-37 23 -108 59q-43 55 -78 88q-58 119 -64 290 q5 24 8 55q4 34 7 48q6 22 24 57q19 38 25 56q8 5 17 24q8 20 17 25q2 12 14 25q13 14 16 24q23 12 57 41q37 31 56 42q25 17 142 54h79q142 -22 162 -34q28 -9 65 -32q45 -29 62 -37q92 -124 98 -142q16 -30 34 -84q23 -70 30 -88q13 -263 30 -304q0 -12 17 -20 q16 -8 17 -20q-2 -16 -23 -29q-22 -13 -26 -25q-75 -205 -79 -221q-13 -11 -31 -44t-32 -44q-14 -16 -51 -64q-32 -41 -53 -64q-19 -22 -58 -54q-44 -38 -59 -54q-44 -17 -84 -49q-47 -7 -69 -29l-108 -25q-42 3 -93 -10q-13 -25 2 -62q15 -39 8 -55q-14 -7 -34 1t-30 3 q-49 71 -59 123q5 31 3 75q-3 61 -3 77q11 41 54 79q11 1 16 -11z" />
<glyph unicode=":" horiz-adv-x="422" d="M136 232q-12 -4 -12 -6q2 0 18 -1q12 -1 12 7h-18zM233 992q10 -3 30 -12q18 -8 27 -11q46 -60 54 -102q2 -9 -3 -18t-3 -18q-48 -115 -168 -126q-50 5 -73 41q-21 32 -19 82q2 102 61 159q10 -3 16 2q8 5 15 4q27 12 63 -1zM163 127q-3 1 -3 -3q0 -3 2 -4q3 -1 4 4 q0 3 -3 3zM215 298q53 -6 47 -6q54 -56 52 -54q26 -34 26 -78q-32 -115 -162 -138q-5 2 -16 3t-14 3q-1 0 -18 12q-31 20 -42 42q-2 2 -3 11q-1 8 -3 13q-2 2 -7 5q-4 2 -5 7q-12 37 6 102q18 24 42 42q15 0 28 14q14 15 26 16q13 10 43 6z" />
<glyph unicode=";" horiz-adv-x="557" d="M197 -148q-1 9 0 14q0 13 12 20q-2 9 5 12q9 4 10 8q5 1 6 11q2 10 9 9q-6 6 -4 14q0 2 2 7t2 9q-11 10 -35 19q-40 16 -40 15q-23 20 -33 36q-15 24 -16 54q-2 14 2 35q4 20 3 35q5 11 20 36q14 23 19 38q14 5 20 8q9 6 10 17q81 11 95 10q24 -4 51 -19q6 -3 21 -13 q14 -8 22 -13q0 -10 8 -19q11 -13 12 -16q0 -7 11 -14q10 -6 9 -15t5 -10q-2 -18 -30 -140q-12 -9 -22 -29l-9 -18q-5 -11 -9 -17q-4 -10 -21 -31q-14 -19 -18 -34q-6 1 -8 -2q-2 -2 -2 -8q-7 -3 -23 -11q-15 -9 -24 -13q-30 -12 -58 -1q0 4 -2 16zM223 812q-3 1 -4 -5 q0 -4 3 -5q4 -1 5 5q0 3 -4 5zM289 1026q6 -1 31 -5q18 -3 27 -3q68 -70 66 -67q32 -43 33 -99q-40 -144 -204 -174q-7 3 -20 5q-14 1 -18 3q-9 3 -14 7q-8 7 -9 8q-26 18 -27 19q-13 11 -26 34q-2 3 -3 14t-4 16q-2 3 -8 6q-6 4 -7 9q-15 48 7 129q23 30 53 53q19 -1 36 17 q17 19 32 20q17 13 55 8z" />
<glyph unicode="&#x3c;" horiz-adv-x="752" d="M134 642q-2 -2 -1 -3t3 0q2 2 1 3t-3 0zM231 807q8 2 8 4q-8 -3 -8 -4zM314 818q-2 -2 -1 -3t3 0q2 2 1 3t-3 0zM325 822q-2 -2 0 -4q1 -1 3 1t1 3t-4 0zM427 888q-2 -2 -1 -3t3 1q3 1 1 3q-1 1 -3 -1zM669 971q-2 -19 8 -24q-1 18 -8 24zM673 1065q-5 7 23 -133 q1 -9 -3 -6q-8 4 -13 2q-3 -7 -15 -8q-5 -3 -18 -6t-17 -6q-73 -24 -71 -23q-85 -45 -137 -55q-6 -8 -35 -15q-11 -12 -35 -12q-12 -7 -74 -20q-29 -7 -71 -23q-56 -19 -70 -24q3 -11 19 -20q20 -11 24 -15q6 -4 27 -12q17 -8 24 -15q7 1 15 -2q9 -4 16 -2q9 -8 33 -18 q25 -10 34 -17q39 -7 95 -30q67 -26 92 -33q16 -7 45 -18q33 -12 45 -17q9 -6 43 -20q28 -11 39 -23q5 -9 1 -18q-6 -12 -5 -21q1 -41 -2 -55q-4 -27 -21 -35q5 0 -39 19q-4 5 -17 11q-12 6 -15 13q-32 9 -70 39q-25 6 -62 24q-40 21 -59 27q-100 52 -113 58q-11 5 -32 15 q-21 11 -35 17q-1 0 -5 1q-4 2 -7 3q-2 0 -15 7q-11 5 -20 8q-56 20 -66 28q-13 2 -32 11q-2 4 -14 7q-11 3 -13 9q-6 8 0 19q7 14 4 24q1 18 -3 55q-2 29 3 51q33 12 81 34q67 31 79 36q24 10 51 20q12 4 55 11q8 7 29 16q21 8 29 16q33 5 145 54q73 44 133 63q4 -1 6 1 q4 3 6 3h8z" />
<glyph unicode="=" horiz-adv-x="829" d="M594 845q-2 -2 -1 -3t4 1q2 2 1 3t-4 -1zM744 646q-10 -28 -41 -39q-27 -10 -73 -7q-6 -2 -28 -6q-18 -3 -26 -7q-38 -1 -102 -8q-76 -9 -107 -11q-97 -6 -118 -9q-80 -10 -118 -9q-41 44 -28 100q50 19 129 28q21 2 69 6q46 4 70 7q231 27 277 32q38 8 73 0 q29 -49 23 -77zM595 846q-2 -1 -3 -1q-3 -1 -3 -3h3t3 1q3 0 3 3h-3zM581 846q-2 -1 -3 -1q-3 -1 -3 -3h3t3 1q3 0 3 3h-3zM444 850q-2 -2 -1 -4q1 -1 4 1t1 4q-1 1 -4 -1zM707 896q-6 -34 -5 -54q-27 -17 -74 -25q-46 -8 -85 -3q-156 -31 -236 -36q-20 -5 -58 -11 q-45 -6 -51 -7q-71 -18 -109 -9q-8 13 -8 31l-1 42q2 5 4 16q3 14 4 17q4 19 15 26q6 5 10 3q-1 1 8 -8q9 6 23 5q257 39 504 63q11 5 27 5q17 0 27 -5q17 -34 5 -50z" />
<glyph unicode="&#x3e;" horiz-adv-x="780" d="M620 808q3 2 1 3q-1 1 -3 -1q-2 -1 -1 -3q1 -1 3 1zM524 645q-7 -3 -7 -4q7 2 7 4zM442 634q2 1 1 3q-1 1 -3 -1t-1 -3t3 1zM431 630q2 2 0 3q0 1 -3 -1q-2 -2 0 -3q1 -1 3 1zM330 564q2 2 1 3t-3 -1q-2 -1 -1 -3q1 -1 3 1zM91 482q1 18 -8 23q1 -17 8 -23zM87 389 q5 -7 -23 132q-1 8 3 6q8 -5 12 -3q3 7 16 8q5 4 17 6q13 3 17 6q73 24 70 23q85 44 136 54q6 8 35 16q11 11 34 11q12 7 74 20q28 7 70 22q56 20 69 24q-3 12 -19 20q-19 11 -23 15q-6 4 -27 12q-16 8 -24 15q-7 -1 -15 2t-16 2q-8 8 -32 18q-25 9 -33 17q-40 7 -95 29 q-66 26 -91 33q-16 7 -45 17q-32 13 -44 18q-9 6 -43 19q-28 11 -39 23q-5 9 0 18q5 12 4 21q0 41 2 54q5 27 21 35q-4 0 39 -19q4 -5 17 -11q11 -5 14 -13q32 -8 70 -38q25 -6 61 -24q40 -21 59 -27q99 -51 112 -58q11 -4 32 -15q21 -10 34 -16q1 0 5 -1q4 -2 7 -3 q2 0 14 -6t21 -9q55 -20 65 -27q13 -2 31 -12q3 -3 15 -7q10 -3 12 -8q6 -8 1 -19q-7 -14 -4 -24q-1 -18 2 -55q3 -28 -2 -49q-33 -12 -81 -34q-66 -31 -78 -36q-23 -10 -51 -19q-11 -4 -54 -12q-7 -6 -29 -15q-21 -9 -29 -16q-32 -5 -143 -54q-73 -43 -132 -62q-3 0 -6 -2 t-5 -2h-8z" />
<glyph unicode="?" horiz-adv-x="801" d="M540 811q-2 -2 0 -4q1 0 3 1q2 2 1 3t-4 0zM739 1014q-2 2 -3 -2q0 -4 1 -6q1 -3 3 2q0 4 -1 6zM457 303q-6 -7 -10 -12q-16 3 -51 -1q-34 -4 -53 1q-4 1 -7 15q-2 11 -13 9q-1 27 0 32q0 3 -6 4t-6 4q6 10 -1 18q-6 8 -3 14q-2 25 -12 36q6 20 0 56q0 5 8 28q-3 16 3 43 q7 31 5 49q17 37 16 44q8 0 12 9q5 10 8 11q9 23 8 28q11 6 22 23q12 20 18 25q5 8 22 23q15 13 18 25q10 2 21 12q11 11 20 12q6 16 44 53q4 4 19 26q12 16 25 22q8 15 32 57q21 36 32 59q7 60 8 68q0 8 -3 27q-3 16 -1 29q-16 52 -28 76q-1 1 -3 4q-1 2 -1 4q-1 6 -12 13 q-11 6 -12 11q-3 10 -8 16q-11 4 -55 17q-34 11 -54 19q-16 -2 -52 8q-6 -2 -27 -5q-17 -3 -25 -7q-6 -2 -21 -11q-12 -7 -23 -9q-4 -4 -17 -16q-11 -11 -19 -16q-3 -2 -19 -15q-11 -10 -21 -13q-18 -24 -44 -72q0 -20 -12 -68q0 -67 4 -84q1 -3 8 -10q6 -5 4 -14 q7 -14 20 -12q-1 -7 1 -13q3 -8 3 -11q1 -10 -8 -14q-2 -1 -8 -3q-5 -2 -8 -3q-4 -5 -13 -9q-12 -6 -15 -7q5 3 -25 -21q-16 -12 -31 -11q-13 0 -24 11q-18 19 -20 21q4 3 7 13l5 15q6 -6 -8 44q-1 7 -9 19q-6 11 -7 21q-1 6 -10 18q-7 10 -6 22q-3 6 -20 20q-13 12 -12 28 q1 12 13 21q16 11 19 15q18 27 32 32q1 11 12 26q11 14 12 26q2 2 28 48q3 9 13 25q9 15 11 27q4 9 16 22t16 22q18 8 64 40q6 4 36 14q23 8 32 18q20 -2 60 12q32 -10 76 8q44 -1 149 -32q50 -39 68 -48q2 -9 11 -19q10 -12 13 -17q7 -17 28 -32q4 -13 32 -60 q19 -84 28 -104q-6 -26 4 -44q-5 -21 -6 -56q-2 -37 -6 -60q-12 -55 -12 -52q-11 -7 -20 -27q-11 -23 -16 -29q-3 -13 -16 -29q-13 -17 -16 -28q-12 -10 -76 -76q-46 -47 -80 -72q-34 -47 -65 -84q-9 -22 -32 -148q2 -15 7 -44q4 -29 5 -44q2 -6 12 -21q8 -12 8 -23 q-2 -4 -10 -12zM436 191q7 -6 20 -16q14 -11 20 -16q-2 -14 8 -16q4 -51 -4 -84q-48 -50 -84 -56q-52 0 -93 48q-15 66 16 120q31 22 45 20q9 6 72 0z" />
<glyph unicode="@" horiz-adv-x="1596" d="M1048 -167q11 4 12 6q-12 -3 -12 -6zM376 85q28 14 24 0q-23 11 -24 0zM228 281q-3 -2 -1 -4q1 -2 4 1q4 2 2 5q-2 1 -5 -2zM90 503q-3 -3 -1 -5q1 -1 5 2q3 2 1 4t-5 -1zM1037 922q-4 -2 -1 -4q1 -2 4 1q4 3 2 5q-2 1 -5 -2zM691 935q-28 -27 -45 -41q-19 -68 -48 -102 q-10 -78 -18 -102q8 -23 9 -56q1 -42 3 -58q8 -2 6 -12q11 -15 30 -36q25 -29 30 -36q16 -2 45 -20q26 -17 51 -16q0 25 12 61q11 36 12 59q22 33 45 99q31 87 39 105q4 14 43 104q26 63 35 112q-126 17 -204 -18q-14 -12 -45 -43zM216 1024q-3 -2 -1 -4q1 -2 5 1q3 2 1 5 q-2 1 -5 -2zM138 1054q-3 -2 -1 -5q1 -1 5 2q3 2 1 4t-5 -1zM653 1540q-3 -3 -1 -5t5 1t1 5q-1 1 -5 -1zM646 372q-170 50 -210 186q-1 30 0 138q39 167 180 318q21 9 108 59q73 21 216 18q13 0 25 14q12 15 23 16q23 -9 70 0t67 0q17 -14 11 -45q-4 -25 -17 -44 q-1 -3 -36 -84q-14 -38 -76 -164q-49 -99 -67 -172q-1 -1 -36 -204q81 -66 102 -71q62 -5 125 29q57 36 102 96q11 10 96 102q7 19 42 90q26 55 36 96q4 48 -3 116q-9 82 -9 112q-41 137 -54 167q-12 29 -38 71q-35 58 -40 67q-46 54 -72 66q-8 18 -35 33q-36 21 -43 27 q-11 1 -24 12q-12 11 -24 12q-3 7 -22 11q-17 3 -19 13q-25 2 -56 13q-41 14 -52 17q-50 8 -222 -18q-45 -20 -174 -102q-16 -16 -85 -77q-53 -46 -82 -79q-91 -175 -108 -221q-42 -115 -60 -264q-3 -29 2 -70q4 -46 4 -68q9 -25 20 -91q10 -61 22 -89q79 -174 227 -323 q29 -21 86 -49q66 -33 88 -47q38 -12 97 -35q72 -29 95 -37q204 -4 222 0q104 0 119 36q-1 57 -18 66q0 9 -21 22q-18 10 -9 20q1 11 16 18q17 7 20 12q11 1 22 -9q11 -9 20 -9q6 -16 28 -31q25 -17 32 -29q16 -26 18 -84q0 3 36 -54q4 -12 15 -30q11 -20 15 -30 q-4 -12 -8 -38q-5 -28 -8 -39q-12 -42 -50 -43q-19 3 -18 26q1 7 4 20q2 11 2 14q-1 17 -11 37q-11 23 -13 35q-33 -18 -179 -42q-133 -21 -192 -12q-14 4 -25 -5q-12 -9 -23 -7q-111 17 -222 60q-82 43 -96 54q-17 7 -45 27t-45 27q-35 22 -80 66q-62 61 -75 72 q-6 16 -28 44q-21 25 -26 46q-12 11 -30 42q-16 30 -30 42q-19 70 -54 125q-4 37 -19 87q-19 63 -23 81q-1 31 -8 93q-8 71 -10 111q11 128 12 144q17 94 18 90q14 21 34 82q19 57 38 79q4 6 20 40q11 25 28 32q5 12 21 36q15 21 21 36q23 19 87 83q53 54 92 79 q69 63 210 126q144 33 138 30q-4 1 90 0q4 -1 12 3q4 2 6 -3q183 1 198 0q149 -49 161 -54q38 -39 168 -156q29 -68 78 -132q4 -24 21 -60q17 -37 21 -60q5 -18 15 -63q8 -41 15 -62q-1 -36 6 -156q0 -48 -12 -111q-16 -85 -18 -105q-38 -67 -60 -126q-13 -23 -38 -55 q-34 -44 -40 -53q-31 -21 -78 -65q-70 -29 -162 -84q-30 0 -95 -12q-26 7 -96 6q-10 3 -41 16q-25 10 -43 14q-18 23 -30 24q-13 10 -28 38q-15 30 -26 39q-133 -4 -126 -6z" />
<glyph unicode="A" d="M529 1284q-8 -12 -9 -22q-9 -45 -9 -59q-33 -69 -31 -122q-49 -184 -50 -194q-5 -6 -11 -22q-7 -17 -12 -23q1 -10 -3 -28q-3 -17 -1 -31q-18 -62 -18 -58q24 1 111 -2q58 -2 96 6q23 1 45 -2q26 -2 41 -2q-1 29 -15 86q-13 52 -12 90q-1 5 -7 13q-6 7 -6 14 q-4 51 -23 95q0 9 -18 99q-5 14 -11 48q-6 32 -12 47q-2 7 -8 53q-4 33 -14 46q-2 6 -9 5q0 -7 -5 -14q0 -10 -9 -23zM718 1307q-16 13 -26 14q-3 -35 27 -145q28 -137 32 -144q9 -69 27 -149q2 -69 31 -145q15 -23 59 -45q-1 -11 7 -20q10 -9 11 -16q-3 -12 -17 -24 q-16 -13 -19 -21q-3 -9 -5 -29q-2 -22 -4 -30q3 -23 15 -72q11 -44 12 -63q1 -6 13 -27q0 -42 23 -68q3 -34 22 -76q23 -54 28 -69q38 -64 40 -72q4 -6 26 -15q19 -7 20 -21q1 -19 -19 -27q-28 -11 -31 -14q-59 -4 -95 32q-8 -2 -25 -17q-15 -13 -29 -15q-17 -2 -68 18 l-36 41q-6 15 -5 45q7 0 16 5q10 4 16 4q5 0 10 -8q5 -7 13 -5q4 1 4 14q-1 12 5 13q1 11 -5 22q-8 13 -9 18q-4 26 -25 112q-19 77 -25 123q-3 4 -6 17q-2 11 -7 15q-1 30 -14 84q-11 47 -9 83q-9 8 -35 10q-24 2 -37 -1q-14 4 -47 7q-34 3 -48 6q-14 0 -86 1q-54 1 -81 -5 q-25 -37 -13 -81q-6 -3 -8 -13q-4 -12 -6 -14q-3 -53 -18 -113q-9 -132 -32 -217q2 -16 -1 -35q-3 -25 -3 -33q-2 -6 -3 -26q-1 -16 -6 -28q9 -23 45 -32q6 -7 24 -12q20 -5 26 -10q0 -4 3 -13q3 -7 1 -14q-5 -8 -26 -12q-22 -4 -28 -11q-87 -12 -126 18q-8 2 -10 -6 q-3 -8 -8 -7q-3 -3 -12 -5q-8 -2 -11 -4q-14 -3 -29 2q-17 6 -25 7q-2 7 -15 15q-12 6 -12 16q-6 2 -20 6q-13 4 -19 7q-20 11 -16 37q19 24 50 4q9 5 26 8q14 3 24 10q3 1 7 9q3 7 11 5q32 115 31 158q38 157 41 199q20 35 18 77q12 29 23 90q-6 13 -25 24q-24 14 -29 21 q-2 28 20 41q12 6 47 13q4 0 6 8q2 6 8 6q13 15 20 54q9 45 16 59q3 16 11 61q7 39 12 61q0 4 -4 12q-3 7 -1 15q27 148 45 221q2 7 -2 13q-4 7 -2 14q7 14 10 37q4 26 8 35q-19 3 -34 -13q-16 -16 -34 -14q-1 5 -9 7t-9 7q-6 10 18 49q16 12 23 41q16 0 22 18q15 -1 29 5 q21 8 25 9q19 -6 61 -10q41 -5 52 -8q7 4 25 9t25 9q16 1 37 -2q24 -3 35 -3q6 -11 27 -9q-1 1 73 -41q0 -9 13 -22q4 -4 5 -18q2 -32 -18 -41q-19 -3 -33 9z" />
<glyph unicode="B" horiz-adv-x="858" d="M386 82q62 18 77 18q10 13 41 19q3 8 18 14q16 6 19 13q16 7 37 27q23 21 36 28q6 11 29 44q19 26 26 47q-2 -6 18 110q-12 48 -23 105q-28 40 -41 69q-23 15 -41 46q-11 3 -26 12q-18 12 -24 15q-24 7 -55 18h-46q-14 1 -53 -8q-42 -9 -61 -10q-31 14 -64 14 q-1 -104 -5 -119q2 -26 9 -46q-11 -96 -4 -210q1 -11 4 -33q4 -22 5 -31q4 -48 0 -128q10 3 27 -4q22 -10 33 -10h64zM559 836q-1 10 9 15t10 13q5 7 11 25t11 25q-3 4 5 51q2 3 1 24t4 30q-11 40 -5 64q-22 42 -23 83q-22 27 -23 45q-12 11 -36 38q-22 25 -37 36 q-87 42 -183 9q1 -7 -8 -8q-10 -2 -10 -6l-18 -14q0 -68 -6 -260q-6 -171 -4 -256q36 -2 100 6q63 9 88 7q83 43 114 73zM245 1347q5 9 8 11q4 2 11 2q8 1 12 2q1 1 2 5l2 4q3 2 17 3q11 1 15 7q47 10 87 22q35 -1 64 10q25 -11 92 -19q-2 2 45 -23q5 -5 42 -32 q38 -44 32 -41q36 -38 32 -36q7 -27 22 -46q16 -39 23 -46q0 -18 14 -64q2 -20 -1 -60q-3 -31 1 -45q-14 -39 -14 -68q-56 -107 -73 -133q-5 -4 -22 -17q-14 -10 -24 -15q-35 -30 -45 -32q3 -7 17 -13q15 -5 19 -10q6 -1 19 -8q11 -7 22 -6q13 -25 51 -45q1 -15 17 -29 q17 -14 19 -26q8 -7 18 -26q11 -18 19 -25q2 -11 24 -88q15 -53 17 -94q-4 -14 -6 -28q-2 -20 -3 -27q-9 -46 -9 -60q-3 -5 -5 -13q-3 -10 -4 -14q-1 -1 -2 -7q-2 -5 -3 -7q-1 -1 -5 -2q-4 -2 -4 -3q-2 -4 -5 -14q-2 -8 -4 -13q-9 -17 -33 -47q-27 -36 -36 -49 q-17 -5 -38 -19q-26 -18 -35 -22q-10 -9 -36 -19q-28 -10 -37 -18q-13 0 -73 -13q-36 -2 -91 -3q-49 0 -74 -2q-26 16 -50 14q-7 8 -26 15q-23 9 -29 12q-7 -2 -22 -5q-14 -2 -19 -4q-19 -7 -55 5q-5 1 -14 6q-10 6 -14 7q-5 3 -15 5l-12 4q-1 1 -3 8t-6 11q-3 2 -10 5t-8 4 q0 -1 -10 18q-9 19 -9 18q-4 -2 15 13q9 8 22 6q19 -5 32 -19q17 6 36 60q-8 94 -4 87q5 5 4 28q0 21 5 27q-1 1 -5 73q-5 107 0 178q-2 9 -10 51q-6 30 -17 50q-3 5 -22 15q-15 7 -15 21q-2 17 16 21q23 5 26 11q2 7 4 35q2 26 9 38q9 291 -4 362v64q-8 66 -9 59 q-1 8 -9 16q-6 6 -1 16q-5 4 -9 16q-4 13 -9 16q-7 2 -21 2q-15 1 -22 2q-25 4 -30 24q2 -7 9 18q3 9 14 9q4 3 17 6q11 3 15 8q9 2 40 8q25 5 38 10q14 -4 33 -15q24 -14 31 -17q2 -6 19 -29q12 -17 13 -35q7 -2 10 3z" />
<glyph unicode="C" horiz-adv-x="822" d="M704 894q-39 -2 -94 19q5 0 -48 -15q-9 4 -40 7q-26 4 -35 12q-17 -3 -23 7q0 14 27 26q3 2 13 13q8 8 16 10q-10 14 0 63q-1 3 -3 68q-7 68 -8 67q-7 26 -7 23q-1 6 -10 18q-7 10 -5 23q-12 10 -38 56q-37 25 -67 34q-8 0 -41 -4q-13 -5 -38 -23q-2 0 -5 -7 q-3 -6 -10 -4q-11 -24 -22 -26q-5 -26 -22 -45q-1 -10 -15 -52q-2 -7 -5 -31q-3 -20 -7 -29q-2 -82 -11 -124q3 -43 -4 -123q21 -73 23 -75l8 -13q5 -8 11 -2q3 -3 5 -13q3 -10 6 -13q2 -7 -8 -19q0 -1 -3 0q-4 1 -4 0q-2 -2 -2 -7q-1 -6 -2 -8q-3 -4 -11 -15q-8 -9 -11 -15 q-7 -31 -19 -64q3 -14 3 -43q-1 -25 4 -39q1 6 0 -213q2 -6 8 -60q9 -40 30 -82q5 -15 21 -33q19 -20 24 -31q9 0 17 -7q9 -7 16 -8q5 -4 15 -8q11 -4 15 -7q100 2 128 11q8 0 18 8q9 9 19 7q9 4 21 22q12 16 24 19q0 14 15 27q0 13 15 52q-4 32 4 67q-20 106 -38 131 q-16 13 -26 15q-22 8 -22 15q-3 17 11 21q4 1 30 2q9 0 27 -3q17 -3 29 -1q-1 2 26 -11q1 -1 2 -4t2 -4q2 -1 8 -1q6 -1 10 -3q36 11 64 30q72 13 86 -7q-1 -18 0 -19q-2 -9 -13 -16q-14 -9 -17 -14q-7 -1 -17 -11q-9 -9 -20 -7q-17 -30 -23 -34q5 -5 3 -10q-1 -1 -3 -4 q-3 -3 -3 -5q2 -30 0 -138q-14 -87 -64 -154q-11 -5 -30 -21q-18 -15 -30 -20q-10 -9 -34 -17q-32 -10 -37 -13q-33 0 -71 -7q-24 -2 -61 1q-42 3 -59 2q-19 4 -56 16q-35 11 -56 14q-19 21 -53 30q-3 14 -15 28q-15 19 -18 25q-11 4 -20 23q-9 21 -18 25q1 27 -15 53 q-2 25 -10 67q-10 45 -12 67q-1 6 2 13t2 14q-3 97 3 142q2 -5 4 101q4 37 0 49q3 6 0 21t4 24q-7 3 -8 7q-3 16 -26 26q-27 12 -30 15q0 17 4 23q2 2 7 4q7 2 8 3q6 4 30 15q2 16 11 19q2 15 -2 49q-3 30 2 44q-7 22 -7 27q-1 42 0 41q5 5 2 17q-2 10 5 13q-12 38 0 86 q0 4 -7 26q-3 6 3 7q6 2 4 8q-1 11 4 19q2 -12 19 101q2 1 5 8q2 5 6 7q4 0 4 9q0 8 3 9q1 6 10 16q8 9 5 22q27 8 49 45l71 22q-2 -3 26 11q1 1 2 4q1 4 2 4h4q2 -1 3 0q30 17 116 22q28 -4 72 -18q48 -15 71 -19q13 -16 37 -23q18 -19 34 -22q10 -17 37 -37q-1 -12 7 -22 q9 -10 8 -20q3 -5 6 -20q2 -15 5 -21q1 -25 -1 -55q-2 -39 -2 -42q2 -9 -3 -15q-5 -7 -5 -11q2 -16 3 -67q0 -40 8 -68q7 -14 15 -26q3 -4 12 -7t11 -8v-34z" />
<glyph unicode="D" horiz-adv-x="900" d="M634 747q0 6 15 23q6 135 0 165q4 7 5 85q1 19 0 47q-1 34 0 51q-7 32 -15 85q-11 5 -14 22q-1 4 -3 16q-1 10 -2 15q-30 44 -98 94q-17 3 -64 15q-43 12 -71 16q-7 0 -22 -5q-12 -3 -22 -4q-85 -73 -92 -89q5 -133 9 -152q-6 -24 -5 -151q-1 -10 -4 -27q-4 -18 -5 -27 l9 -112q0 1 16 -30q9 -18 23 -23q29 -34 29 -49q-20 -14 -24 -14q-5 -1 -11 -9t-13 -8q0 -8 -20 -50q4 -10 2 -25q-2 -22 -2 -28q1 -24 12 -102q9 -68 8 -108q11 -40 19 -201q5 -11 18 -33q12 -21 16 -34l63 -36q125 -7 204 45q37 62 39 67q5 32 20 98q-1 32 -3 109 q-2 79 -2 119q-3 140 -5 147q2 -1 -14 14q-9 8 -25 4q1 10 -15 14q-15 3 -14 13q-6 7 4 16q14 12 15 15q39 23 39 22zM874 692q-14 -7 -17 -11q-3 -5 -11 -24q-6 -15 -13 -21q-5 -73 0 -85q-2 -1 -10 -22q4 -31 -3 -88q-7 -47 3 -69q-7 -2 -9 -16q-2 -16 -5 -19v-31 q-4 -23 -18 -55q-17 -38 -21 -53q-15 -38 -39 -102q-39 -33 -44 -40q-32 -7 -48 -32q-30 -4 -49 -18q-48 2 -72 -13q-23 7 -83 4q-20 2 -92 18q-38 9 -83 18q-4 2 -12 14q-7 9 -17 9q-11 -1 -17 -16q-7 -17 -12 -20q-1 -3 -13 -4q-9 -1 -6 -10q-19 -1 -20 -4q-35 -1 -39 -5 q-50 6 -58 5q-16 -1 -14 13q-2 1 -16 0q-9 -1 -9 5q-18 1 -24 27q8 17 30 20q20 2 43 -7q20 5 53 36q1 36 15 58q-4 114 5 169q-6 73 -11 196q-5 134 -9 184q-1 2 -8 10q-5 7 -6 12q1 8 -11 8q-13 1 -14 6q-14 18 -14 17q0 32 39 36q-4 16 -1 19q0 -1 15 3q-1 13 5 14 q2 62 -10 111q11 75 10 143q0 4 -2 13q-3 9 -3 14q2 138 -5 183q-8 56 -34 72q-16 5 -28 -2q-14 -9 -30 -7q-18 20 -24 49q4 2 13 13q6 9 16 9q15 6 126 0q0 4 29 -18q2 -1 2 -7q1 -5 3 -6q1 -1 8 0q6 1 7 0q3 -3 5 -13q3 -11 4 -14q9 3 50 26q30 16 57 19q10 -1 16 7 q8 9 13 10q14 0 15 5q11 -2 30 2q15 2 23 -2q59 5 59 4q55 -13 68 -13q63 -21 77 -22q4 -6 34 -23q8 -1 17 -9q8 -8 17 -8q12 -34 39 -50q0 -20 15 -26q10 -49 34 -90q-7 -34 9 -71q-2 -79 5 -89q-14 -24 -8 -71q9 -65 8 -77q7 -34 20 -53q-4 -6 0 -36q13 -32 58 -54 q-2 -10 3 -21q6 -13 7 -19q0 -10 -13 -15z" />
<glyph unicode="E" horiz-adv-x="1068" d="M952 1354q-6 -48 -6 -61q-4 -19 -1 -48q3 -39 1 -61q0 -12 7 -27q8 -15 7 -27q-8 -1 -20 -10q-11 -7 -21 -8q-1 11 -18 9q-13 26 0 63q-1 13 -13 25q-13 13 -14 25q-18 7 -18 23q3 -2 -13 6q-7 3 -5 12q-17 1 -39 11q-25 10 -38 12q-21 2 -56 -2q-38 -3 -53 -3 q-8 0 -24 4q-17 5 -26 5q-6 1 -17 -2q-13 -2 -19 -2q1 0 -1 2q-1 3 -3 2q-34 -7 -110 -11q-80 -5 -117 -11q-1 -3 -31 -105q-2 -8 2 -50q2 -25 -11 -36q14 -101 4 -158q9 -95 9 -154q103 -3 140 9q-1 9 6 20q6 10 4 21q3 16 -15 29q-16 12 -8 25q-2 9 7 13q11 4 11 10 q31 -4 48 -31q1 -3 24 -55q1 -13 -3 -54q-2 -30 3 -50q-22 -120 -104 -95q-9 36 0 31q-1 11 6 22q7 13 8 19q-50 11 -127 5q2 -23 0 -69q-2 -47 0 -72q6 -77 5 -158q-1 -76 13 -127q0 -16 9 -41q17 -32 14 -31q-2 -22 4 -41q21 -42 41 -54q264 10 444 31q3 1 10 6q6 4 12 3 q14 5 32 23t32 23q-2 22 9 22q-1 5 1 13q3 9 3 14q1 7 0 21q-1 15 -1 21q1 25 15 31q7 -1 9 4q28 -2 33 -31q2 -10 2 -27q1 -22 1 -28q1 -8 9 -68q8 -52 14 -58q0 -7 -7 -12t-7 -11v-45q-15 -17 -56 -18q-71 -1 -66 0q-9 -3 -16 4t-16 5q-17 -2 -63 0q-7 -2 -28 -4 q-18 -3 -26 -5q-5 -1 -100 0q-23 0 -130 -4q-90 -3 -151 -1q-119 14 -135 14q-12 -2 -20 -17q-10 -16 -17 -20q-6 1 -31 -9q-19 -1 -43 3q-28 6 -39 6q3 -5 -31 19q-3 1 -3 4q-1 3 -2 5q-2 2 -9 6t-9 7q-10 9 -5 27q11 15 59 0q18 8 27 9q7 3 18 14q10 11 19 14q-1 17 13 31 q8 40 11 97q3 70 7 102q-2 45 0 181q2 121 -4 186q-7 8 -35 22q-23 12 -29 28q3 15 18 23q4 3 14 7q9 4 14 6q1 9 10 19q10 11 12 17q-1 8 5 9q4 53 4 136v140q1 33 -1 96q-3 74 -3 104q2 -6 -13 49q-9 29 -28 37q-5 -5 -23 -9q-17 -3 -22 -9q-4 -12 -19 -13q-15 -2 -22 8 q-4 17 8 26q18 12 19 15q21 6 45 22q34 2 37 5q61 -14 104 -18q21 -2 63 -2q44 -1 68 -3l54 -4q90 0 100 -5q42 9 122 7q110 -4 141 -2q135 6 144 4q10 -18 6 -52z" />
<glyph unicode="F" horiz-adv-x="1152" d="M1069 1115q-2 2 -8 7q-5 5 -8 7q-5 8 -2 22q3 17 2 28q2 10 -5 16q-8 8 -9 12q8 3 3 11q-8 14 -8 12q0 14 -18 50q-1 6 -11 13q-8 6 -8 15q-14 3 -31 15q-22 14 -28 17q-9 3 -20 2q-12 0 -22 3q-53 -5 -156 -12q-127 -9 -156 -11q-13 -6 -49 -11q-34 -5 -48 -12 q-132 -7 -124 -5q-7 -4 0 -13q8 -12 5 -19q-6 -24 -5 -313q1 -78 0 -87q0 -13 2 -35q3 -25 3 -34q4 -3 27 -1q26 3 37 1q17 5 32 24q27 36 23 31q0 4 -3 11q-4 9 -5 12q-4 14 4 23q19 20 48 4q24 -12 39 -36q8 -60 -14 -83q3 -9 17 -40q11 -25 15 -42q-8 -62 -18 -79 q-8 -4 -20 -1q-16 3 -26 1q-7 11 -7 27q0 20 -2 29q-9 14 -9 13q-5 4 -19 11q-13 7 -18 12q-15 1 -97 -4q4 -137 0 -170q5 -24 5 -184q0 -8 2 -21l3 -21q0 -8 -3 -25q-2 -17 -2 -25q0 -4 5 -51q4 -46 9 -59q1 -4 4 -3q4 0 5 -2q1 -1 0 -11q0 -10 5 -12q2 -4 14 -18 q9 -11 13 -19q29 -17 34 -22q19 -16 12 -33q1 -11 -11 -14l-21 -4q-10 2 -21 -2q-12 -4 -20 -3q-96 34 -106 46q-25 -27 -42 -37q-26 -4 -32 -9q-29 7 -59 5q-1 4 -9 5q-9 1 -10 4q-8 -1 -13 10q-5 10 -14 8q-19 12 -23 23q0 -8 36 32q41 -7 51 -4q20 8 32 27q-8 9 1 17 q12 13 13 16q-2 49 -2 149q0 104 -3 163q0 2 -2 6q-3 4 -2 8q3 22 -1 90q-3 68 1 98q-5 6 -5 19q-1 2 -7 11q-5 6 -7 12q-2 8 -20 16q-16 7 -16 20q0 14 4 23q2 5 9 14q1 1 5 3q4 1 5 2q0 1 -1 5q0 3 1 4q0 1 10 1q6 1 3 8q4 0 6 8q2 7 8 6q0 8 -3 24q-3 15 -1 27 q11 77 0 179q-3 -13 -5 230q-5 10 -10 29q-7 24 -9 30q-12 35 -32 46q-15 2 -45 -5q-25 -6 -42 1q2 12 10 26q11 19 13 24q17 6 59 7q44 2 61 7q83 -19 183 -23q23 -1 33 9q31 -11 82 -9q9 -2 15 4t13 5q135 10 326 19q3 -1 9 2q4 2 5 -2q50 4 170 -5q9 -1 14 -11 q11 -20 9 -16q7 -2 12 -12t11 -11q-7 -12 -1 -24q11 -24 10 -22q2 -28 7 -104q4 -66 7 -103q-6 -2 -11 -15q-4 -12 -12 -13q-14 -2 -25 5z" />
<glyph unicode="G" horiz-adv-x="1230" d="M748 1023q2 1 8 11q5 7 14 6q7 5 22 18q13 13 22 18q1 7 8 17q8 15 10 18q1 3 2 11t3 11q0 2 4 7q4 3 4 7q6 30 0 66q-3 24 -4 23q-1 2 -11 8q-8 5 -7 14q-31 27 -40 40q-47 21 -62 31q-17 1 -67 8q-40 5 -62 5q-80 -14 -115 -22q-5 -2 -33 -18q-20 -12 -38 -13 q-5 -2 -15 -14q-8 -10 -20 -8q-6 -5 -22 -28q-12 -18 -27 -21q-10 -18 -34 -51q-23 -33 -33 -51q-4 -8 -9 -35q-5 -23 -13 -32q2 -18 -1 -50q-4 -37 -3 -52q2 -82 0 -93q8 -61 66 -111l-13 -18q-3 -1 -4 -11q-1 -9 -10 -7q-8 -2 -15 -13q-8 -15 -11 -18q-7 -159 22 -297 q-5 -18 2 -47q6 -31 2 -46q6 -13 14 -35q10 -28 13 -36q1 -3 5 -7q3 -3 4 -6q72 -81 231 -116q141 -2 186 9q2 2 12 6q8 3 10 7q33 13 58 45q2 46 13 57q-6 17 -2 49q5 37 2 54q-2 10 -5 62q-2 38 -12 62q-6 5 -18 11q-14 7 -18 11q-70 7 -66 4q-10 2 -20 -7q-10 -8 -20 -6 q-3 6 -13 12q-11 6 -14 10q1 29 31 27q4 3 16 11q10 6 15 11q21 4 66 14q42 10 58 13q4 0 12 -4q7 -3 15 -1q77 -34 80 -35l26 13q1 1 0 5v4q28 22 27 18q10 2 29 9q19 6 29 8q105 5 137 -26q19 -1 24 -16q5 -14 -1 -33q-69 -8 -116 -18q-46 -26 -66 -35q-3 -29 -18 -45 q4 -14 3 -65q-1 -45 10 -68q-4 -20 -7 -84q-3 -49 -15 -80q-3 -8 -15 -18q-13 -10 -16 -17q-9 -2 -40 -23q-55 -13 -71 -22q-110 -13 -178 -22q-72 13 -128 4q-22 2 -156 18q-5 2 -23 10q-14 6 -25 8q-8 1 -23 11q-13 8 -26 7q-2 9 -14 17q-14 8 -17 14q-8 4 -17 14 q-11 14 -14 17q-14 7 -32 30q-18 24 -30 32q-5 31 -27 44q-10 53 -22 67q-1 12 -9 64q-7 44 -9 73q-4 70 -4 71q0 48 -5 58q2 38 0 49q-3 19 -10 41q-9 32 -12 43q-2 1 -5 3q-4 1 -6 2q-5 4 -2 13q-6 1 -13 7t-14 6q-11 -3 -14 6q-5 11 -8 12q-3 10 3 14q10 7 10 8q0 7 9 9 q11 3 13 5q37 72 36 71v84q1 10 18 44q-2 15 13 58q0 27 -5 31q11 1 9 22q23 74 22 85q19 25 18 44q12 3 22 31q17 10 23 31q13 8 41 32q25 22 43 30q17 15 89 58q25 6 93 17q61 10 93 18q8 2 15 -1q8 -3 12 -3q4 5 13 9q162 -18 182 -13q6 -1 16 -6q9 -5 19 -3q8 -2 17 -9 q10 -7 15 -9q25 -7 31 -18q8 1 12 -10q3 -12 10 -12q4 -2 10 -12q6 -8 12 -10q17 -41 31 -49q12 -46 22 -58q-3 -9 1 -31q6 -25 4 -40q3 -10 3 -38q1 -27 6 -37q-5 -11 -5 -53q-28 -36 -35 -49q-34 3 -49 -5q-128 -1 -160 27q-3 26 18 27z" />
<glyph unicode="H" horiz-adv-x="1213" d="M1111 1320q-1 8 -23 18q-19 3 -59 -14q-7 -2 -14 -13q-6 -12 -14 -14q2 -23 -22 -77q-1 -7 3 -18q3 -10 1 -19q1 3 -9 -132q-1 -17 0 -73q3 -120 0 -113q-9 -60 -4 -91q3 -4 13 -28q1 -7 12 -13q10 -6 11 -14q19 -4 23 -23q2 -15 -10 -20q-3 -1 -11 -3t-11 -4 q-4 -11 -17 -24q-15 -15 -19 -22q1 -13 -5 -22q7 -38 2 -99q-7 -78 -7 -102q0 -6 -4 -16q-4 -9 -5 -15q-1 -35 -2 -92q-1 -60 -2 -86q0 -5 13 -86q9 -21 19 -32q2 -3 12 -11q8 -6 10 -12q11 -5 23 4q10 6 14 0q11 1 17 -8q9 -14 10 -14q-7 -22 -38 -33q-5 -2 -27 -8 q-17 -5 -26 -9h-36q-1 2 -19 4q-22 24 -22 37q-13 -12 -23 -9q1 -10 -14 -19q-4 -7 -17 -14q-15 -8 -19 -13q-8 3 -26 2q-19 -1 -29 3q-32 11 -27 13q-3 5 -17 20q-10 12 -15 21q-6 1 -8 10q-2 11 -6 13q1 6 -7 8t-6 10q0 1 23 27q25 -1 54 -31q3 2 17 10q11 6 15 12 q4 10 9 30q6 21 9 30q-6 33 -4 113q1 81 -5 114q10 48 7 117q-3 104 -2 138q-80 12 -164 4q-50 11 -328 14q-7 -3 -9 -21q-1 -20 -5 -24q3 -31 -1 -82q-3 -44 1 -73q-3 -18 -6 -62q-3 -42 -7 -61q0 -14 4 -71q3 -46 0 -70q27 -71 23 -68q-1 -18 12 -32q18 -17 20 -23h18h19 q21 0 27 -9q5 -25 -11 -35q-4 -3 -15 -8q-11 -4 -15 -7q-26 2 -73 -9q-44 11 -64 41q7 6 -36 -32q-57 -14 -114 9q-2 4 -18 21q-11 12 -14 24q-13 9 -9 22q2 7 14 24q17 0 35 -15q20 -15 33 -17q25 7 23 68q-2 9 4 19q6 9 5 18q-1 -4 -5 45q9 75 13 211q5 151 10 208l-9 18 l-9 18q-2 8 -16 11q-15 4 -16 12q-5 19 0 50q28 2 32 0q3 3 7 18q4 12 11 14q0 -2 9 255q1 18 -1 48q-3 39 -3 48q0 3 2 10q2 8 2 12q0 5 -4 29q-4 22 -5 30q0 2 2 5q3 2 3 5q-1 5 -7 27q-5 16 -2 27q-1 4 -10 11q-6 6 -4 16q-7 3 -18 15q-10 10 -19 13q-32 0 -36 -9 q-6 -14 -32 -5q-9 16 5 33q18 20 18 31q18 3 50 23q39 6 77 4q5 -2 29 -12q19 -7 26 -15q-4 -5 82 32q10 1 27 -3q15 -4 28 -2q68 -66 77 -95q-13 -19 -36 -13q-37 9 -51 8q-8 -1 -14 -11t-13 -12q-3 -12 -18 -32q-3 -23 -12 -91q-8 -54 -11 -95q0 -7 5 -14t4 -13 q2 -9 -3 -17q-6 -9 -6 -15q8 -48 1 -129q-9 -87 -5 -117q21 -7 100 -9q190 -29 236 -23q28 -1 84 2q43 2 71 -2q7 24 5 89q-3 64 4 89q3 -4 -9 31q6 34 0 155q5 63 -9 118v55q-5 13 -8 40q-2 23 -10 37q-33 5 -32 5q-10 0 -18 -7q-11 -10 -14 -11q3 -27 -14 -32 q-14 -3 -23 4q-1 0 -13 14q6 27 31 51q5 6 21 20q14 12 21 20q71 21 68 18q3 -1 68 5q6 -7 26 -14q19 -6 24 -13q15 3 37 18q21 15 36 18h41q16 -3 37 -7q19 -4 36 -7q3 -9 14 -9q13 -15 27 -45q1 -6 12 -22q8 -10 2 -24q-2 -2 -41 -4z" />
<glyph unicode="I" horiz-adv-x="657" d="M424 1429l104 -14q8 -16 23 -14q5 -9 20 -24t20 -26q-5 -32 -36 -27q-9 -1 -10 10q-2 12 -8 13q-18 1 -18 4q-47 -4 -74 -46q-10 -14 -21 -39q-15 -34 -19 -42q2 -24 -3 -68q-6 -51 -6 -72q0 -6 2 -16q2 -11 3 -16q12 -140 -5 -232q5 -13 23 -36q32 -38 32 -32 q2 -13 -9 -20q-17 -9 -18 -11q0 -11 -10 -14q-16 -70 0 -122q8 -78 5 -73q-6 -42 9 -300q1 -5 5 -19q4 -12 4 -21q2 -10 16 -28q11 -16 11 -31q63 -32 55 -32q30 -32 18 -59q-73 -9 -145 -5q-54 27 -68 55q-9 -1 -14 -12q-5 -13 -9 -16q-22 -28 -23 -22q-21 0 -27 -14 q-28 0 -32 -4q-8 1 -33 7q-20 5 -35 6q-6 6 -18 14q-13 9 -18 13q-16 0 -36 28q0 18 24 25q30 8 35 16q19 -7 40 -5q21 5 31 33q1 5 7 25q4 15 8 24q-4 222 -5 218q-6 40 -9 45q9 31 9 27q-9 78 -9 77q7 94 -9 141q-2 12 -26 19q-23 7 -24 22q0 20 23 28q5 2 18 4q11 2 14 4 q-1 11 9 14q-3 167 -5 177q5 60 -2 160q-9 113 -7 180q-14 51 -18 55q-27 11 -54 0q-10 -4 -22 -29q-11 -20 -33 -17q-15 12 -7 30q16 33 16 34q2 4 9 7q7 4 9 6q4 10 14 14q4 5 16 13t16 14q94 12 172 5q-1 -8 8 -11q10 -3 10 -7q19 -3 23 -14q8 8 64 23z" />
<glyph unicode="J" horiz-adv-x="872" d="M624 1412q17 4 60 4t60 5q31 -18 64 -28q1 -49 -9 -59q-63 7 -120 -41q0 -6 -13 -23q-14 -59 -19 -65q6 -9 3 -26q-2 -17 2 -24q-9 -25 -6 -69q4 -53 1 -73q14 -85 14 -147q1 -5 6 -22q4 -13 3 -24q2 -3 13 -19q9 -11 10 -22q3 -6 18 -14q13 -7 14 -18q0 -10 -23 -28 q-7 -17 -18 -32q-7 -22 -9 -23q3 -25 5 -75q1 -52 4 -76q2 -21 12 -68q9 -45 11 -70v-18q-1 -12 0 -19q2 -30 -5 -91q-5 -2 -7 -10q-3 -10 -6 -13q-13 -10 -10 -42q-18 -13 -18 -22q-57 -50 -69 -65q-23 -12 -36 -23q-5 -3 -16 -14q-10 -10 -17 -13q-9 -6 -39 -14 q-25 -8 -39 -18q-82 -7 -137 -14q-69 21 -78 32q-23 -1 -42 11q-4 3 -16 11q-9 7 -16 10q-27 33 -36 83q-2 34 -5 36l6 14q4 9 -1 9q-4 9 -1 31q3 25 1 38q-6 41 -9 46q0 7 4 16q4 10 5 16q-30 3 -51 -14q-18 -2 -41 19q0 27 9 27q-2 9 7 12q9 4 7 11q18 14 37 32q56 6 64 5 q8 -2 41 -28q12 3 37 18q22 13 41 15q11 1 23 -5q10 -5 18 0q1 -1 37 -32q17 -21 14 -51q-3 -1 -11 -9q-7 -7 -12 -9q-20 -5 -33 7q-16 15 -22 16q-29 -25 -28 -97q0 -25 4 -62q5 -53 6 -57q36 -33 119 -18q34 19 41 32q8 3 16 21q7 16 21 16q0 -2 14 32q2 6 4 18q3 13 5 19 q1 2 9 23q7 16 9 27q3 14 2 31q-2 24 -2 38q5 179 5 188q1 9 -4 17q-6 8 -6 15q5 7 4 21q-2 15 1 25q-13 33 -23 46q-24 6 -37 4q-6 1 -8 10q-3 11 -5 13q0 15 17 22q27 9 29 10q-2 -5 18 51q-7 32 -3 90q2 54 -6 84v115q0 8 5 31q4 19 4 33q-1 9 -9 46q-5 25 0 46 q-35 64 -60 82q-18 1 -18 5q-34 -4 -43 -3q-22 2 -26 21q-2 5 4 14q11 15 28 18q17 16 46 19q3 1 7 5q3 3 7 4q24 -7 78 -9q4 -5 30 -20q20 -11 25 -26z" />
<glyph unicode="K" horiz-adv-x="1181" d="M1023 1279q-40 0 -57 -2q-51 -15 -150 -113q-4 -18 -25 -42q-20 -24 -23 -43q-6 -4 -56 -71q-8 -8 -24 -38q-13 -25 -28 -33q-7 -36 -38 -80q5 -6 19 -33q11 -21 24 -28q0 1 4 -33q9 -13 24 -43q14 -29 24 -42q28 -74 37 -90q4 -20 18 -46q17 -35 20 -43q30 -73 42 -85 q59 -133 81 -175q43 -100 94 -160q-7 1 52 -19l43 6q19 -1 28 -20q0 -15 -12 -24q-3 -3 -11 -7q-7 -4 -10 -7q-4 -2 -23 -11q-14 -6 -20 -12q-48 -12 -90 4q-53 66 -51 57q-11 -2 -19 -14q-11 -17 -14 -19q-30 -3 -52 -19q-55 -1 -76 5q-35 17 -28 19q-14 33 -14 28 q-4 4 -21 10q-14 5 -17 14q1 8 -3 20q-3 12 -2 22q4 2 11 7t10 7q14 8 31 5q10 -1 17 -14t16 -14q28 -5 45 9q6 4 14 14q9 11 12 14q-3 27 -23 67q-21 39 -24 65q-32 56 -38 80q-31 42 -33 67q-27 31 -38 61q-15 16 -36 62q-21 44 -39 60q1 -3 -38 90q-8 -7 -37 -71 q-5 -2 -13 -13q-7 -9 -16 -10q-9 -19 -165 -288q-2 13 28 -174q21 -41 67 -76q7 0 27 3q14 3 24 -3q17 -26 15 -42q-85 -27 -142 -24q-65 32 -75 52q-22 -26 -62 -52q6 -2 -33 -5q1 0 -5 3q-5 3 -9 2q-1 0 -6 -3q-4 -2 -8 -2q-1 1 -7 5q-6 5 -7 5q-4 1 -12 0t-12 0 q-2 0 -6 5q-5 4 -8 4q-2 1 -9 0t-10 0q-36 16 -28 19q-3 13 -17 32t-16 34q3 36 19 47q24 2 41 -23q17 -26 34 -29q19 2 38 10q10 3 16 22q6 21 12 25q-1 18 5 85q-1 18 -10 150q-7 98 -4 166q-11 55 -28 94q-1 8 -10 11q-12 5 -14 8q-11 -3 -13 8q-2 14 -6 16q1 13 14 19 l12 4q8 3 12 5q4 7 14 17t14 16q0 -3 -5 47q11 33 10 123q17 263 14 372q-14 48 -14 47q-23 28 -43 33q-11 -2 -23 -12q-15 -14 -19 -16q-3 -28 -42 -9q3 29 29 48q6 5 23 16q15 9 23 16q17 5 104 -5q2 -6 19 -9q14 -4 14 -15q12 4 25 18q15 16 22 20q65 18 113 5 q11 -3 23 -13q14 -13 20 -15q21 -13 14 -48q-14 -7 -30 -2q-5 2 -14 6t-13 6q2 0 -66 -43q3 -15 -9 -14q-1 -36 -19 -61q3 -15 0 -34q-5 -24 -5 -37q-2 -10 2 -21q4 -12 3 -21q-16 -76 -10 -231q3 -56 5 -335q8 0 11 10q4 12 8 14q14 17 14 23q7 8 24 52q22 33 47 108 q16 16 33 52q3 5 13 26q9 16 15 26q9 16 31 52q20 33 30 52q14 35 43 82q38 62 47 78q8 4 17 23q8 18 21 20q4 24 32 60q26 34 29 62q25 28 33 52q6 2 38 38q22 3 56 22q33 17 57 20q16 1 44 -8q26 -7 46 -6q53 -44 56 -47q18 -79 19 -85q-21 -6 -52 -7z" />
<glyph unicode="L" horiz-adv-x="1005" d="M302 1404q26 19 24 14q6 2 25 8q15 4 26 6q36 3 56 -9q22 8 37 -5q0 -4 3 -12t1 -15q0 -17 -20 -22q-36 -7 -35 -6q-6 -1 -15 -9q-8 -7 -18 -5q-10 -11 -24 -35q-14 -25 -22 -35q-5 -46 -19 -79q-10 -85 -5 -210q1 -8 3 -41q2 -25 2 -38q0 -1 -3 -8q-2 -6 -2 -10l5 -94 q13 -33 23 -46q4 -5 24 -15q17 -9 18 -22q0 -19 -19 -28l-32 -14q1 -18 -9 -23q5 -93 4 -117q1 -6 10 -46q-7 -23 -4 -88q2 -67 -1 -85q15 -44 9 -125q9 -4 140 -14q45 -11 122 -15q107 -6 134 -8q5 -1 11 3q5 3 12 1q25 9 79 51q12 29 9 24q7 12 19 14q-3 20 14 37v51 q-1 0 19 5q11 9 24 2q24 -12 22 -12q-9 -90 -23 -125q6 -25 5 -37q-7 -51 -5 -70q0 10 8 -52q4 -32 -8 -46q-12 0 -41 6q-20 5 -43 -1q-29 4 -95 1q-66 -2 -100 3q-224 -14 -345 5q-35 26 -37 33q-13 -7 -33 -19q-23 -14 -32 -19q-12 2 -30 -2t-31 -2q-12 2 -32 11 q-20 10 -33 12q0 2 -18 28q-1 9 -19 23q-15 37 5 65q31 4 51 -14q-3 -25 18 -42q17 0 21 1q9 2 7 13q11 -2 17 5q8 8 11 9q-1 8 5 10q1 20 9 55q-4 33 -1 129q3 85 -8 132q4 18 0 112q-1 18 1 57q1 31 -1 45q-14 28 -23 37q-1 2 -7 1t-7 -1q-9 5 -14 28q0 12 11 20 q14 9 17 13q-1 0 28 28q2 34 1 104q0 66 3 105q3 36 5 154q1 85 -5 116q4 9 -3 21q-6 10 -1 12q0 5 -10 32q-26 35 -46 38q-14 1 -23 -10q-11 -13 -19 -14q-46 0 -51 14q-1 13 8 20q1 0 20 8q5 4 14 14q8 10 14 14q17 -2 18 9q41 7 51 14q79 -8 126 -46q-3 0 23 18z" />
<glyph unicode="M" horiz-adv-x="1399" d="M1258 1424q0 -8 3 -17q-8 -11 -30 -10q-25 0 -33 -8q-18 -5 -33 -27q-20 -31 -26 -36q-1 4 -4 -31q1 12 18 -311q9 -183 9 -180q2 -7 12 -20q9 -11 10 -21q55 -16 50 -13q2 -15 -8 -26q-13 -13 -15 -19q-13 1 -21 -12q-10 -14 -19 -15q-1 -28 4 -92q3 -54 0 -88 q13 -80 9 -253q7 -39 9 -103q8 -22 27 -45q8 1 9 -5q21 -4 49 8q27 11 41 6q2 -2 4 -8q2 -5 6 -6q-1 -23 -19 -27q-32 -3 -27 -9q-9 -8 -33 -12q-33 -4 -39 -6q-38 8 -81 32q-11 -2 -22 -12q-15 -13 -18 -15q-2 0 -32 -14q-11 0 -58 -3q-33 -3 -54 3q-9 7 -32 15 q-23 9 -31 17q-6 12 4 36q15 8 44 1q31 -8 51 -1q10 -1 16 10q7 12 15 12q5 5 12 16t11 16q7 47 -5 301v37q1 23 0 36q0 7 -4 20q-4 14 -5 20q0 4 2 7q3 4 3 7q0 4 -2 7q-3 3 -3 6q0 7 2 35q2 30 3 46q-16 51 -23 59q-2 10 -20 18q-18 7 -20 18q-6 7 -1 18q6 15 5 22 q14 11 45 23q4 18 18 27q-2 118 -18 167v126q-4 -3 -13 -5q-10 -4 -13 -5q-15 -7 -19 -17q-10 -10 -23 -28q-17 -25 -22 -31q1 1 -10 -7q-5 -4 -3 -11q-8 -3 -18 -16t-18 -15q-7 -17 -29 -41q-23 -25 -30 -41q-9 -11 -29 -38q-19 -25 -30 -38q-3 -7 -3 -14q1 -10 -1 -18 q-26 -5 -77 18q-3 5 -8 15l-9 15q-11 16 -28 20q-1 18 -16 35q-17 20 -20 33q-9 4 -24 20q-14 15 -25 20q-1 -5 -23 23q0 9 -18 22q-39 41 -45 45q1 0 -21 22q-13 13 -33 10q-13 -3 -14 -25q0 -5 1 -19v-19q1 -147 9 -230q-2 -21 -1 -48q1 -35 1 -51q2 -15 25 -24 q24 -10 29 -21q1 -12 -10 -18q-12 -6 -13 -14q-20 -24 -22 -31q-6 -51 -3 -152q5 -121 3 -173q1 -4 3 -21q1 -14 6 -19q-5 -11 -5 -54q-2 -2 2 -17q3 -14 -6 -19q15 -37 22 -50q16 -30 27 -45q28 -11 36 -18q61 5 68 -22q-3 -20 -28 -21q-36 0 -40 -2q-6 1 -81 9q0 3 -13 5 q1 -4 -27 18q-7 2 -12 10q-7 10 -11 12q-17 -12 -81 -36q-30 -11 -59 -18q-35 -9 -90 -18q-52 17 -75 37q-34 28 -37 76q-4 -5 54 4q0 -52 58 -63q19 4 33 25q19 29 26 34q7 23 13 70q7 54 9 65q-9 225 -18 365q-3 13 -16 28q-17 21 -20 26q-39 0 -54 22q0 20 14 30 q13 11 31 2q16 19 45 45q-1 22 1 77q1 53 -1 80q0 28 5 32q-2 3 -3 15q-2 9 -6 12q7 30 6 76q-2 47 3 68q-9 31 -9 27q19 136 -36 198q-9 5 -41 12q-27 5 -36 15q-1 12 12 20q14 8 15 16q97 11 167 0q-1 -6 8 -7q9 -2 10 -6q-1 -7 8 -8t10 -6q29 8 63 32q19 -2 38 5 q23 8 25 8q2 1 17 5q11 3 18 4q23 3 33 -9v-22q1 -12 -15 -15q-19 -4 -21 -8q5 2 -36 -18q0 -6 -4 -12q-5 -7 -5 -10q0 -18 45 -113q17 -16 76 -85q40 -64 77 -86q0 -10 7 -18q10 -11 11 -13q37 -35 85 -91q12 0 18 15q6 16 14 17q22 29 27 32q-3 10 3 17q6 8 6 14 q20 17 40 59q9 17 41 58q6 40 5 50q11 5 23 19q16 17 22 21q5 5 16 24q10 16 20 21q0 13 9 31t9 32q-3 15 -25 23q-25 9 -29 18q0 -1 4 31q18 12 59 8q52 -4 63 -3q3 -10 19 -17q18 -7 21 -15q38 27 72 45q57 2 77 14q16 3 31 -9q3 -7 2 -15z" />
<glyph unicode="N" horiz-adv-x="1125" d="M1043 1423q1 -9 -1 -10q-4 -18 -36 -18q-3 -4 -36 -14l-9 -13q-6 -10 -15 -34q-9 -23 -16 -33q-12 -116 -18 -179q8 -130 0 -281q7 -8 11 -28q4 -24 7 -31q2 -7 13 -12q12 -5 14 -10q18 -5 31 -18q1 -24 -19 -41q-27 -25 -30 -30q-4 -11 -5 -36q-1 -19 -8 -27 q-1 3 9 -179q4 -80 13 -183q11 -35 22 -116q6 -13 50 -49q2 -3 9 -6q8 -4 11 -6q11 -8 6 -24q3 -8 -6 -9q-10 -2 -12 -4q3 10 -17 0q-10 -1 -27 3q-15 3 -27 1q-8 10 -31 19q-24 9 -32 17q-7 -3 -15 -14q-9 -10 -16 -13q-13 1 -13 -4q-10 -2 -35 -1q-23 1 -37 -4 q-52 -4 -53 40q30 25 58 32q30 39 31 40q18 134 9 161q5 10 4 53q-11 57 -9 108q0 8 -10 16t-12 15q-7 3 -12 14q-6 14 -10 17q-19 16 -23 31q-1 4 -13 12q-9 6 -9 15q-89 115 -89 116q-14 11 -34 36q-21 26 -33 36q-7 16 -27 40q-21 24 -27 40q-11 4 -24 21q-14 16 -25 20 q-2 6 -9 17q-7 10 -9 18q-37 29 -49 54q-10 0 -17 10q-9 11 -14 12q0 9 -9 16q-10 7 -9 16q-21 16 -52 50q-35 38 -51 52q0 -13 -5 -41q-4 -28 -4 -44q0 -7 4 -21q4 -16 5 -23q1 -15 0 -68q0 -45 4 -75l9 -18l9 -18q5 -9 24 -25q18 -14 21 -29q-1 -12 -20 -18 q-21 -7 -25 -13q2 -21 -9 -22q1 -5 4 -11l3 -9q2 -9 -7 -16q7 -12 7 -25q0 -16 2 -24q4 -59 3 -161q-1 -118 0 -157q5 -179 69 -263q55 4 58 -22q1 -22 -26 -28q-36 -7 -41 -13q-16 6 -31 0q-8 1 -20 8q-10 7 -21 6q-42 34 -35 31q-8 -23 -36 -49q-36 -16 -84 -6 q-11 2 -82 24q-2 6 5 45q10 -1 49 -5q20 4 31 29q21 47 18 43q-1 37 9 44q-6 23 -6 77q1 54 -7 84q-1 37 4 49q-5 17 -7 69q-2 47 -11 65q8 58 -4 157q-3 4 -13 23q-8 14 -14 21q-57 18 -58 18q-2 7 2 12q3 6 2 11q2 12 19 16q22 6 26 10q2 1 31 36q-1 22 1 102q2 59 -5 90 q5 29 2 80q-3 52 2 86q-4 96 -11 131q-14 64 -51 97q-12 -10 -14 0q-7 -1 -21 -6q-15 -4 -21 -5q-22 -4 -29 20q2 10 15 16q23 12 21 10h58q14 -4 40 -9q29 -7 41 -10q47 -12 66 -34q9 3 54 31q16 -3 67 9q45 11 67 0q8 -18 9 -36q-9 -9 -63 -13q-31 -18 -49 -63 q0 -11 5 -29q4 -18 4 -29q37 -81 85 -125q13 -20 50 -55q36 -33 48 -57q9 -5 27 -20q15 -15 27 -20q13 -20 53 -61q35 -37 50 -64q8 -3 17 -19q8 -14 19 -17q24 -36 62 -85q12 -15 35 -38q28 -27 37 -38q3 6 -5 54q-2 8 2 16q4 9 3 15q0 -4 -9 295q0 9 -4 19q-5 11 -5 17 q-1 205 0 201q1 -7 -9 27q-1 4 -3 14q-1 10 -2 13q-4 10 -40 58q-8 2 -32 3q-22 1 -30 6q-9 11 -3 26q7 14 20 14q16 2 28 -3q14 -6 17 -6q32 4 31 4q101 -24 112 -31q15 2 31 14q20 14 27 17q11 0 60 14q35 10 56 -5q-4 -5 -3 -16z" />
<glyph unicode="O" horiz-adv-x="907" d="M341 49q-3 -2 -1 -3q1 -1 3 1q2 1 1 3q-1 1 -3 -1zM678 795q10 8 14 14q-3 12 2 22q6 12 6 18q-14 73 -20 84v28q-17 27 -20 84q-8 11 -14 35q-7 30 -10 37q-3 11 -13 35q-10 21 -11 37q-18 9 -24 32q-17 12 -28 28q-24 13 -24 16q-38 14 -40 20q-8 -3 -36 4q-5 1 -10 1 l-6 -1q-23 9 -16 12q-72 6 -132 -8q-40 -15 -36 -16q-7 -13 -32 -20q-4 -11 -15 -25q-13 -15 -17 -23q-8 -5 -18 -24q-9 -18 -18 -24q-1 -10 -14 -56q-10 -33 -6 -64q1 -5 -5 -11q-5 -5 -3 -13q-1 -19 -7 -86q-5 -54 -5 -90q3 -4 5 -18q3 -13 7 -18q10 -20 8 -40 q33 -28 32 -23q-3 -13 5 -24t7 -20q-28 -11 -48 -56q-2 -35 6 -86q9 -56 10 -82q12 -28 20 -92q30 -72 40 -112q4 -5 18 -26q11 -16 22 -22q1 -8 20 -24q2 -5 10 -14q8 -7 10 -14q8 0 20 -16q18 -5 46 -14q36 -11 46 -14q18 2 68 0q42 14 60 16q0 1 28 16q29 16 32 16 q7 27 28 36q-1 -3 2 17q2 11 10 11q4 1 3 16q0 14 9 12q6 22 16 44q8 20 8 16q7 32 21 90q16 62 23 90q-2 28 1 72q3 48 3 72q-10 24 -16 48q-14 7 -12 20q-9 0 -20 16q-24 -3 -24 16q-2 11 7 18q11 9 13 13q3 5 14 14zM831 698q-14 -121 -8 -152q-13 -54 -4 -84 q-4 -3 -6 -15q-3 -14 -5 -17q1 -37 -10 -87q-13 -58 -14 -81q-7 -8 -15 -26q-8 -19 -13 -26q0 1 -12 -20q-1 -1 0 -4v-4q-1 -1 -5 0h-3q-1 -2 0 -6q1 -5 0 -6q-4 -6 -14 -14q-11 -10 -14 -14q-3 -3 -6 -8q-4 -5 -6 -8q-20 -23 -20 -24q-17 -24 -16 -24q-9 -5 -35 -26 q-21 -16 -37 -22q-15 -9 -43 -17q-36 -11 -45 -15q-50 -1 -56 -4q-6 1 -50 7q-30 4 -46 9q-15 3 -38 16q-24 13 -38 16q-32 28 -44 32q-23 26 -40 32q-2 3 -9 13q-6 7 -7 15q-3 2 -13 7q-8 4 -11 9q-3 30 -4 28q-8 6 -19 23q-11 19 -17 25v32q-4 8 -13 39q-7 25 -15 37 q-10 83 -28 124q-2 7 1 14q4 8 3 14q-18 37 -8 68q-13 48 -8 64q-1 5 -8 11q-8 6 -8 13q-9 8 -12 24q-5 3 -12 9q-8 8 -12 11q-9 1 -24 20q1 0 5 13q2 8 11 7q13 14 20 16q9 39 20 103q1 19 -4 48q-7 61 -4 56q-1 -1 12 80q20 72 16 128q1 2 24 68q22 52 24 64q10 2 20 15 q10 14 16 17q-4 -4 12 20v4q-1 3 0 4q-1 -1 8 2q6 2 4 10q32 19 44 36q16 2 72 28q20 0 46 8q33 10 42 12q3 0 8 2q3 2 4 -2q55 -2 120 -16q43 -9 100 -28q8 -3 27 -15q16 -10 29 -13q3 -13 20 -28q6 -1 13 -10t15 -10q2 -11 12 -22q14 -15 16 -18q22 -51 24 -52v-24 q26 -52 28 -104q3 -5 7 -20q5 -14 9 -20q-4 -28 12 -80q-3 -59 23 -188q4 -11 20 -22q17 -11 20 -22q-1 -21 -28 -55z" />
<glyph unicode="P" horiz-adv-x="865" d="M469 704q0 5 12 4q5 1 14 11q8 7 19 6q1 7 16 10t17 10q14 4 31 20q17 17 30 21q8 14 17 40q12 33 16 42q3 11 11 46q7 29 13 44q-5 16 1 33q8 22 8 33q-1 31 -13 74q-10 40 -28 69q-9 30 -35 63q-39 49 -43 56q-38 14 -53 37q-113 38 -177 33q-8 -3 -8 -13q-2 0 -24 -16 q-31 -126 -25 -152q-3 -6 -5 -19q-2 -17 -3 -22q4 -53 5 -168q0 -124 3 -176q13 -65 8 -82q19 -5 52 -9q45 -6 55 -7q47 12 86 12zM284 593q-1 -22 5 -66q5 -41 4 -56q0 -6 4 -15q3 -8 4 -14v-37q-1 -8 3 -17q5 -10 5 -16q-3 -7 -4 -27q0 -19 -4 -26q11 -41 8 -78 q3 -8 13 -59q7 -34 20 -56q-1 -27 33 -73q5 -11 28 -17q4 -8 0 -37q-17 -2 -48 0q-33 3 -54 0q-5 4 -14 8q-12 5 -15 7q-16 9 -16 26q-10 1 -15 -10t-14 -10q-2 -4 -12 -11q-8 -6 -9 -14q-27 -2 -32 -16q-6 4 -30 0q-23 -3 -32 4q-7 26 0 33q0 6 10 8q11 2 11 8 q16 26 33 127q-1 0 -5 29q4 9 1 27q-2 17 4 26q2 6 -3 9q-6 3 -6 7v33q4 44 4 41q0 6 -8 41q-1 35 1 114q1 70 -1 107q-4 97 -4 99q-4 9 -24 14q-21 6 -25 15q-2 12 16 41q8 1 15 12q6 11 14 12q1 -1 -4 49q-10 38 -12 118q-3 79 -13 116q1 4 -24 192q-4 11 -15 29 q-11 17 -14 29q2 -1 -29 20q-28 -4 -41 2q-14 7 -16 31q23 17 37 4q6 0 14 7q7 6 15 6q14 -8 49 -13q3 3 17 -2q16 -7 24 -6q20 -16 49 -25q-1 0 29 21q8 1 24 20q26 7 33 21q17 1 37 16q49 9 156 13q20 -1 48 -8q34 -7 46 -9q18 -16 45 -20q44 -41 41 -37q13 -3 30 -14 q18 -12 27 -15q5 -11 23 -26q18 -14 22 -27q12 -5 22 -27q11 -22 23 -26q4 -18 29 -78q-1 -8 8 -49q-6 -51 4 -78q-7 -36 -16 -136q-19 -24 -16 -49q-9 -14 -21 -42q-14 -33 -20 -44q-17 -12 -29 -28q-29 -36 -29 -29q-16 -3 -38 -18t-35 -19q-12 -7 -37 -17 q-27 -10 -37 -16q-47 -7 -197 8q-8 10 -34 15q-28 6 -36 14q-14 -14 0 -66z" />
<glyph unicode="Q" horiz-adv-x="963" d="M724 862q5 16 6 21q2 19 -5 47q-6 27 -3 39q-32 66 -58 139q-4 6 -16 35q-10 21 -19 31q-4 16 -16 35q-15 22 -19 31q-5 5 -26 21q-17 12 -25 22q-24 6 -42 23q-14 1 -34 8l-24 8q-12 0 -90 -8q-28 -17 -50 -19q-3 -9 -16 -17q-15 -9 -19 -14q-31 -29 -35 -32 q-5 -14 -21 -35q-17 -22 -22 -34q-2 -12 -11 -28q-9 -20 -12 -27q-5 -44 -15 -58q-20 -171 -20 -178q10 -57 27 -109q5 -1 10 -10q4 -8 10 -9q18 -13 19 -20q-6 -15 -28 -40q-20 -23 -26 -41q8 -107 23 -179q-1 -47 16 -89q3 -47 35 -132q10 -12 31 -23q9 -30 7 -27 q40 -44 39 -43q5 -2 12 -7q8 -6 11 -8q5 -3 12 -10q8 -7 12 -10q75 -22 124 -31q16 -2 34 2q24 6 32 6q48 26 54 27q7 3 28 15q17 10 30 12q1 4 20 31q10 38 15 31q-16 16 -40 24q-29 11 -45 0l-47 4q0 -1 0 25q0 16 8 17q5 2 4 8q86 8 171 -16q11 19 19 61q10 48 15 64 q8 56 7 148q-1 108 1 139q-3 11 -11 33q-9 21 -12 33q-7 -1 -13 6q-5 7 -14 5q1 9 -9 12q-11 4 -11 12q0 4 20 54q-3 13 2 25zM916 765q-2 -2 -6 -5t-6 -5t-7 -14q-4 -9 -8 -13q-5 -17 -7 -67q-2 -45 -9 -65q5 -42 4 -98q-2 -65 0 -96q-13 -58 -12 -77q-9 -15 -19 -86 q-9 -10 -20 -36q-10 -28 -19 -37q-5 -69 8 -109q2 -5 11 -10q10 -5 12 -9q12 -4 31 -1t27 1q0 -14 5 -30q5 -13 3 -21q-14 -2 -39 -9q-24 -8 -38 -10q-23 12 -74 19q-38 46 -39 55q-45 -21 -70 -39q-6 -2 -30 -7q-19 -4 -28 -9q-134 -4 -167 0q5 -1 -132 35q-44 36 -77 51 q-30 14 -24 15q-1 10 -12 19q-12 10 -15 16q-13 18 -31 31l-19 58q-7 7 -12 27q-5 21 -11 28q1 20 -8 64q-8 39 -4 60q-13 41 -23 155q-4 8 -8 30q-3 22 -8 32q5 10 2 30q-4 24 -2 36q-9 11 -4 23q-1 9 -14 13q-14 5 -17 10q-6 4 -12 13q-9 12 -11 15q1 -5 19 19q6 2 11 9 q7 9 9 10q-2 23 2 75q4 43 -2 73q7 3 7 19q1 19 4 23q0 9 3 23q3 13 1 24q19 48 20 89q5 5 13 22q6 16 14 21q5 21 4 31q6 6 16 17q11 13 15 18q2 9 11 19q10 12 12 20q6 4 14 17q7 13 13 18q3 5 15 16q10 10 12 18q8 0 14 5q7 6 10 7q2 1 9 6q5 4 10 6q27 10 39 27 q7 1 24 9q14 7 26 6q5 4 25 7q17 3 22 9q44 4 66 8q3 -1 6 1t5 3q1 -2 7 -4q4 -1 5 -4q20 6 51 -2q38 -10 58 -10q56 -25 66 -27q16 -19 31 -19q55 -58 50 -55q4 -13 35 -58q18 -32 39 -54q0 -1 35 -86q-2 -29 11 -62q1 -13 6 -46q5 -35 6 -54q2 -19 11 -49q10 -32 12 -48 q7 -17 27 -31l15 -13q9 -7 9 -18q2 -12 -4 -18z" />
<glyph unicode="R" horiz-adv-x="991" d="M394 721q1 1 76 24q12 12 36 29q27 19 37 27q18 46 28 68v36q-1 8 6 12q7 5 6 12q2 21 8 33q4 42 -4 116q4 5 -1 13q-6 10 -3 19q-5 11 -4 44q-8 6 -8 24q-28 28 -28 56q-10 -1 -20 12l-25 32q-18 7 -42 28q-27 22 -42 28q-3 0 -80 4q-24 -13 -68 -20q-8 -29 -28 -52 q0 -17 -5 -41q-6 -28 -7 -39q-3 -11 3 -19q6 -10 5 -17q-10 -40 -8 -124q2 -102 0 -129q4 -17 6 -57q2 -45 6 -67q-8 -47 -4 -56q10 -6 88 -8q25 10 72 12zM668 568q27 -86 35 -116q3 -13 17 -57q11 -34 15 -59q4 -12 19 -55q12 -33 17 -57q36 -72 40 -88q44 -71 40 -65 q30 -10 48 -32q4 -1 15 -3q9 -2 14 -4q15 -6 12 -25q-2 -15 -24 -16q-27 -2 -29 -4q-33 12 -60 4q0 2 -16 4q-7 2 -36 24q-28 -12 -52 -28q-36 -6 -32 -4q-9 2 -29 6q-14 2 -27 6q-5 2 -15 4l-16 4q-17 5 -21 16q1 9 28 28q48 5 48 4q11 16 8 36q-2 4 -2 15q0 14 -2 22 q-1 16 -10 40q-8 26 -10 40q-7 30 -23 75q-20 54 -25 73q-9 23 -26 74q-16 50 -26 74q-9 30 -29 70q-26 53 -32 67q-24 1 -60 -1q-41 -4 -60 -3q-17 1 -61 11q-36 9 -63 9q-3 -55 -2 -133q1 -81 -2 -140q2 -9 -3 -15q-5 -8 -5 -13q2 -21 8 -82q5 -50 9 -78q13 -85 47 -133 q36 -19 28 -20q14 -22 12 -36q1 -8 -6 -11q-3 -2 -7 -3q-6 -1 -7 -2q-3 -1 -8 0h-4q-4 -1 -10 -4q-5 -3 -10 -4q-14 5 -34 7q-21 2 -34 5q-10 4 -21 15q-14 14 -19 17q-41 -52 -157 -36q-3 5 -1 12q2 5 -3 8q0 10 11 13q15 5 17 7q10 -1 18 7q7 8 18 5q-2 -3 20 61 q4 51 3 139q0 98 1 141q5 97 0 213q-2 12 -15 25q-14 14 -17 23q-24 8 -24 4q-1 2 -10 3q-8 1 -6 9q-5 27 32 28q3 11 17 21q16 11 19 19q1 16 4 16q-12 375 -16 421q-7 93 -24 140q-3 8 -14 16q-14 9 -18 12q-37 2 -40 2q-19 5 -16 27q1 6 15 8q13 2 17 -4q6 1 16 4 q11 3 16 4q47 -9 48 -8q20 -14 33 -25q6 -2 15 -12q8 -10 17 -12q-7 7 24 12q2 3 12 10q9 5 12 10q6 5 27 15q17 9 25 18q14 -1 30 6q18 8 26 10q6 4 25 9q17 5 23 11q30 -2 56 8q29 1 70 -9q51 -13 71 -15q12 -7 49 -32q29 -20 51 -29q3 -5 18 -19q12 -12 14 -25 q8 -4 20 -16q22 -19 16 -20q65 -221 68 -240q-1 -9 -6 -23q-5 -16 -6 -21l-4 -93q-1 -6 -12 -28q-9 -16 -4 -28q-8 -5 -15 -19q-9 -17 -13 -21q-2 -3 -13 -19q-9 -11 -11 -21q-5 -2 -32 -32q-20 -13 -32 -32q10 -46 33 -117z" />
<glyph unicode="S" horiz-adv-x="836" d="M684 1056q-4 1 -37 22q-10 -9 -33 -19q-26 -12 -35 -18q-20 5 -30 4q-2 6 -10 13q-10 8 -12 13q1 13 13 22q3 2 10 8q7 4 11 7q-1 7 15 34q1 16 2 35q1 23 1 32q1 -2 -15 30q2 -3 -3 16q-3 10 -12 11q2 6 -1 12q-2 7 -2 10q-8 11 -24 27q-19 18 -25 25q-27 5 -60 23 q-15 3 -30 0q-10 3 -34 7q-12 -3 -33 -13q-22 -9 -34 -13q-5 -2 -17 -15q-10 -9 -21 -11q-6 -12 -22 -37q-16 -23 -23 -38q3 -23 -11 -56q-5 -74 -4 -68q1 -4 3 -15q3 -10 1 -18q0 -8 6 -20q5 -11 2 -18q9 -14 15 -37q30 -56 33 -68q24 -31 98 -93q37 -31 48 -45 q34 -19 57 -38q27 -3 26 -3q3 -7 15 -17q12 -9 15 -17q12 -2 34 -23q8 -1 15 -10q8 -10 15 -12q9 -9 27 -25q21 -16 29 -24q32 -43 48 -60q3 -7 10 -17q7 -11 9 -16q6 -2 12 -15q5 -11 14 -12q7 -15 24 -62q14 -40 25 -61q0 -9 15 -94q0 -13 -2 -37q-1 -23 -2 -41 q-3 -17 -15 -45t-15 -45q-30 -21 -37 -42q-25 -13 -38 -33q-14 -1 -28 -11q-17 -13 -24 -16q-20 -5 -30 -3q-13 -8 -47 -17q-33 -9 -47 -17q-75 -6 -93 -11q-45 14 -53 11q-28 17 -56 8q-37 17 -71 22q-28 22 -56 26q-1 4 -23 23q-20 18 -22 18q0 3 -11 23q-5 7 -16 31 q-10 21 -18 33q-11 70 -15 119q-14 42 -23 72q-5 4 -30 30q-7 -1 -23 4q-12 4 -22 -1q-6 47 -7 45q14 5 34 7q25 2 37 4q7 0 30 -7q18 -5 34 -4q2 -6 14 -14q10 -7 12 -16q47 22 59 25q38 11 65 -6q-8 -23 -4 -22q-1 -9 -12 -11q2 0 -22 -1q-41 -49 -37 -142q3 -12 4 -28 t3 -24q3 -11 12 -37q8 -23 11 -38q11 -14 39 -29q34 -17 43 -24q98 -7 112 -7q49 19 64 22q7 3 26 16q15 10 27 14q14 22 26 26q7 31 30 57q-2 10 3 20q7 13 8 17q5 -5 11 26q-1 13 8 34q1 16 5 53q2 25 2 48q-23 79 -37 116q-4 7 -14 17q-12 11 -16 17q-1 0 -1 8q-1 5 -7 3 q-2 11 -15 24t-15 25q-26 23 -26 26q-10 4 -26 26q-13 4 -32 17q-20 13 -32 17q-5 10 -26 22t-26 23q-14 2 -34 15q-19 13 -34 15q-8 18 -41 34q-19 9 -26 7q-23 23 -64 49q-6 11 -45 41q-17 32 -22 37q-15 27 -26 30q-2 31 0 27q-8 10 -16 32q-11 28 -14 35q20 134 15 124 v33q16 21 22 53q2 4 17 19q10 11 9 26q18 5 19 7q1 9 15 8q2 6 11 11q9 6 12 11q8 1 28 12q16 10 24 7q12 7 11 15q7 -2 30 4q29 15 79 33q56 3 60 4q42 -12 67 -11q56 -26 71 -26q4 -7 20 -13q15 -6 18 -14h22q29 -30 38 -33q9 -23 33 -38q13 -47 38 -86l15 -67 q15 -21 15 -23q1 -1 27 -18q18 -12 18 -27q0 2 -11 -26q-45 5 -68 4z" />
<glyph unicode="T" horiz-adv-x="1033" d="M969 1336q-7 -70 -2 -92q-2 -7 -5 -26q-3 -16 -6 -25q-9 -26 -31 -30q-1 2 -15 4q-12 10 -8 53q-2 9 -8 24t-8 23q-1 6 -12 14q-11 7 -11 16q-10 1 -30 16q-39 3 -108 1q-74 -3 -104 -1q-9 -17 -12 -89q-4 -17 -11 -88q-4 -12 -3 -43q1 -29 -5 -46q4 -24 0 -146l2 -3 t2 -5q-1 -1 -2 -3l-2 -1q0 -1 2 -3t2 -4q-5 -20 -4 -112q3 -18 25 -33q24 -18 29 -29q-7 -29 -12 -31q-5 -1 -10 -8q-7 -9 -9 -11q-11 -52 -15 -61q-1 -20 0 -72q2 -43 0 -67q-1 -10 7 -270q2 -9 11 -35q7 -22 9 -38q2 -4 14 -20q8 -13 13 -22q30 -36 30 -39q23 0 23 -42 q-16 -12 -48 -10q-44 3 -52 2q-29 16 -46 16q-2 6 -19 15q-4 0 -8 8q-3 6 -11 4q-9 1 -15 -7q-6 -9 -12 -9q-2 -5 -12 -10q-9 -4 -11 -9q-6 -1 -131 8q-6 24 -16 27q1 1 23 27q6 1 15 10q9 8 16 9q3 8 14 21q10 13 13 21q5 5 10 23q6 15 13 20q16 130 16 150q1 15 7 31 q-3 28 -2 76q3 65 2 85q-1 44 -15 158q-9 21 -35 70q5 10 24 51q15 31 22 53q-4 121 -7 134q4 49 4 58q-1 17 -9 70q-6 44 -3 73q-5 11 -7 37q-2 30 -4 40q1 9 -6 15q-8 6 -6 15q-13 36 -12 31q-17 6 -88 -4q-60 15 -154 -15q-10 -6 -25 -21q-16 -16 -25 -21q-4 -15 -23 -47 q-8 -44 -4 -42q-7 -1 -16 2q-8 3 -15 2q-13 13 -14 31v20q0 14 -1 26q-10 42 -8 58q-1 6 -7 20q-4 12 -5 22q0 8 -8 18t-7 20q3 4 6 14q2 10 5 13q6 0 13 5q7 4 14 3q-2 1 10 -7q7 -4 10 3q19 -4 63 -1q43 3 68 -3q100 18 365 16q136 -1 251 0q-4 0 32 -1q28 0 45 1 q3 0 25 3q15 2 25 1q6 -2 9 2q3 5 6 5q6 2 10 -1q5 -3 9 -2q11 -26 6 -89z" />
<glyph unicode="U" horiz-adv-x="998" d="M337 1381q-30 -21 -45 -64q-2 -1 -38 -72q-1 -34 6 -90q7 -55 5 -91q6 -39 11 -159q4 -109 16 -162q11 -18 37 -34q0 -2 -37 -72q-2 -59 8 -186q8 -123 7 -173q2 -8 10 -37q7 -23 9 -39q5 -13 21 -35q15 -23 20 -36q8 -4 12 -12q18 -20 18 -15q17 -2 42 -19q33 -6 45 -15 h61q44 7 113 46q5 4 17 24q10 16 21 21q23 90 26 98q1 16 3 45q2 24 1 46q-3 9 1 18q3 9 -1 20q2 0 0 16q-1 18 4 21q-4 15 -4 125q0 58 0 57q-4 5 -4 15q0 -3 -15 15q-2 16 -11 19q3 12 -3 19q-8 10 -8 15q2 8 12 14q11 8 14 12q2 24 15 65q-1 46 -1 107q1 88 1 112 q0 21 -22 196q-2 6 -11 27q-7 17 -8 30q-3 7 -12 18t-11 20q-7 6 -31 25q-20 16 -29 28q-36 1 -57 22q1 14 15 21q4 2 13 5q10 3 13 5q14 0 52 -3q33 -3 50 -1q5 -8 28 -13q21 -4 25 -14q9 4 23 15q14 12 23 16q6 -1 18 2q10 3 20 1q6 0 11 6q7 5 11 6q14 0 51 7q27 4 47 0 q8 -7 8 -24q0 -19 -11 -21q-12 -13 -38 -27q-9 -7 -21 -28q-12 -20 -21 -28q5 -15 -11 -57q-8 -87 4 -348q4 -94 19 -166q4 -9 21 -18q14 -7 16 -23q4 -7 -3 -19q-7 -11 -15 -15q-3 -24 -16 -42q2 -32 -3 -53q0 -23 3 -26q-9 -36 -3 -87q1 -12 0 -46q-1 -27 3 -45 q-7 -11 -8 -33q-1 -24 -7 -35q2 -17 -6 -39q-7 -23 -5 -40q-21 -34 -15 -46q-29 -33 -38 -53q-1 0 -15 -11q-2 -1 -8 -6q-5 -3 -7 -5l-4 -4l-4 -4l-3 -2q-3 -1 -4 -2q-2 -1 -6 -5q-4 -5 -6 -6q-1 -1 -6 -2q-3 0 -5 -2q-1 0 -2 -4q-1 -3 -2 -3q-1 -1 -5 0h-6t-6 -5 q-6 -5 -9 -7q-16 -9 -27 -7q-5 -1 -10 -7q-5 -7 -9 -8q-35 -5 -45 -15q-10 1 -22 -3q-16 -4 -19 -5q-49 -1 -65 8q-7 -1 -17 -4q-12 -3 -17 -4q-2 2 -68 11q-7 2 -41 10q-25 7 -42 9q-11 14 -26 15q0 1 -11 13q-6 7 -16 6q1 10 -10 13q-15 6 -16 6q-3 10 -16 24 q-12 14 -14 25q-10 4 -17 22q-6 19 -14 24q5 9 -2 25q-9 22 -9 28q-2 7 -5 29q-2 19 -6 27q5 25 -4 87q6 11 5 30q-1 24 2 34q-8 52 -11 57q2 18 -4 132q-3 7 -9 19q-7 13 -10 19q-4 3 -27 10q-18 6 -22 17q5 19 42 26l15 61q-1 15 -2 134q-1 81 -9 134q-5 156 -15 177 q0 12 -19 76q-2 3 -9 7q-6 3 -7 8q2 7 -6 9t-9 6q-54 -9 -71 15q-2 11 7 20t8 18q26 0 41 19q4 2 20 9q12 5 18 10q30 7 30 8q6 -3 23 -6q17 -2 23 -6q11 2 20 -6q11 -8 17 -9q5 2 38 23q8 2 121 15q18 -2 19 -27q0 10 -34 -19z" />
<glyph unicode="V" horiz-adv-x="1167" d="M1102 1393q-21 -10 -41 -45q-24 -38 -37 -49q-12 -42 -26 -52q-4 -28 -34 -75q-5 -34 -28 -104q-20 -63 -24 -106q-20 -70 -23 -104q-17 -36 -30 -109q1 -12 16 -23q16 -11 18 -22q0 -8 -15 -19q-1 -2 -9 -1q-9 1 -14 -2q-27 -27 -63 -150q-10 -21 -27 -78 q-16 -51 -29 -76q-6 -31 -26 -81q-21 -52 -27 -80q-5 -12 -27 -77q-16 -48 -33 -72q1 -1 0 -12q-1 -7 4 -7q-15 -11 -22 -56q-34 -10 -56 -4q-2 0 -4 4l-4 4q-1 0 -6 -1q-4 0 -5 1q-1 0 -2 4q-1 3 -2 3h-4h-3q-2 2 -2 6q-1 4 -2 5q-1 2 -6 2q-4 1 -5 2q-14 15 -12 15 q2 14 -4 29q-7 17 -7 27q-26 32 -19 30q3 7 3 14q-1 6 1 12q-36 143 -37 154q-4 5 -9 21q-4 15 -10 20q-2 26 -15 71q-13 43 -15 71q-5 9 -9 34t-10 34q0 12 -8 34q-7 20 -7 37q0 1 -2 3q-1 2 -1 4q-2 5 -6 10q-4 7 -6 9q-5 11 -22 19q0 6 -11 7q-12 1 -11 8q1 10 14 45 q-2 31 4 48q-15 56 -15 71q-9 17 -20 61q-10 42 -21 59q-2 51 -30 112q2 7 -2 18q-2 8 2 12q-20 29 -26 83q-14 28 -19 41q-5 3 -9 19q-3 15 -10 18q0 10 -22 34q-2 8 -12 16q-11 9 -14 14q-42 -8 -56 -4q-19 36 0 53q0 8 15 9q16 1 18 5q6 3 18 5q16 2 20 3q20 -1 49 -6 q27 -6 48 -5q9 0 20 8t21 7q5 4 21 7q15 3 20 8q23 0 27 3q7 -1 32 -4q21 -3 32 -6q33 -10 37 -38q-3 -13 -34 -23q-7 -11 -19 -18q-1 -3 -37 -45q-1 -10 -5 -49q-3 -29 -3 -49q4 -17 4 -86q9 -48 30 -144q20 -93 30 -148q8 -12 17 -43q9 -30 17 -43q2 -7 12 -14 q11 -7 14 -12q15 2 30 -22q2 -11 -5 -14q-18 -8 -14 -5q0 -6 -8 -11q-7 -5 -7 -12q6 -37 22 -88q23 -67 27 -84q5 -16 14 -39q13 -33 16 -39q9 -50 30 -79q-8 -24 11 -60q6 6 10 26t9 27q5 19 20 75q13 44 21 78q6 7 10 25q6 22 9 27q0 11 8 26q7 15 7 27l33 101 q-9 19 -30 19q-6 38 -11 30q2 12 23 16q25 4 29 10q6 1 12 11q5 10 11 11q3 11 27 84q17 50 22 88q10 16 19 49q12 45 14 52q7 12 17 51q9 33 21 47q-1 41 26 86q0 20 19 67q6 64 -12 90q-17 4 -26 11q-8 -2 -24 -7q-15 -6 -25 -8q1 0 -14 12q-9 7 -8 18q1 10 16 14 q16 5 18 12q-4 0 120 0q7 0 15 -8q8 -9 14 -10q10 1 20 8q13 9 18 10q14 1 15 4l83 6q42 3 40 -40q-7 -11 -45 -3z" />
<glyph unicode="W" horiz-adv-x="1504" d="M1400 1420q10 -5 32 -8q25 -3 34 -6q-2 -7 8 -8q2 -12 -4 -35q-12 -6 -57 -9q-9 -5 -23 -24q-13 -18 -24 -23q2 -16 -9 -18q0 -8 -5 -27q-4 -16 -4 -29q-10 -18 -26 -91q-26 -54 -30 -83q-11 -18 -13 -43q3 -3 -2 -16q-7 -17 -7 -23q-1 -16 -10 -47q-8 -27 -7 -49 q-12 -27 -20 -77q-9 -55 -15 -75q1 -10 7 -21q9 -15 10 -18q-3 -13 -34 -26q-16 -60 -13 -56q-11 -54 -9 -48q-20 -82 -22 -109q-33 -74 -61 -243q-19 -29 -21 -82q-1 -2 -35 -100q-5 -6 -17 -7q-13 -1 -13 -2q-4 -3 -19 -5q-14 -1 -16 -8q-13 4 -33 5t-28 4q-11 21 -26 34 q-6 30 -24 70q-24 54 -28 65l-15 30q-10 21 -15 31q-13 35 -35 56q-5 22 -25 49q-21 31 -27 47q-7 -4 -14 -23q-7 -17 -17 -21q-2 -9 -12 -22q-11 -12 -14 -21q-37 -62 -43 -96q-6 -1 -11 -11q-4 -9 -11 -10q4 -7 -3 -22q-9 -19 -10 -26q-1 -5 -10 -25q-6 -15 -7 -27 q3 2 -22 -48q-3 -6 -9 -52q-30 -21 -47 -26q-17 10 -61 15q-40 4 -57 20q0 12 5 52q-11 34 -9 30q0 5 2 21q1 8 -6 14v43q-4 12 -9 35q-5 25 -9 35q0 14 -6 37t-7 37q-10 23 -13 65q-10 37 -25 124q-15 84 -27 123q-3 11 -24 18q-20 7 -24 17q0 14 15 25t16 23q0 15 -9 39 q-5 84 -26 152q0 -1 4 17q-7 17 -19 72q-9 48 -24 67v26q-11 21 -26 70q-15 48 -26 69q-4 7 -18 26q-12 15 -17 26q-32 18 -65 9q0 2 -6 9q-5 5 -3 13q-6 23 -8 17q-1 7 11 11q10 3 6 15q16 -1 28 3q11 4 24 1q7 -1 11 5t11 4q68 6 113 -26q10 9 28 26q20 19 28 26 q14 -2 13 9q12 -2 39 13q21 -2 39 4q14 -4 61 -6q36 -1 52 -16q-1 -8 2 -19q1 -8 -2 -15q-25 -9 -48 -9q1 0 -11 -9q-5 -5 -15 0q-6 -2 -16 -14q-8 -11 -18 -12q2 -14 -13 -21q-14 -100 -13 -105q19 -86 30 -230q17 -74 17 -126q34 -186 48 -295q5 -15 31 -143 q25 -73 34 -135q22 5 22 35q18 42 17 39q4 7 16 41q9 26 19 37q6 19 3 52q-4 37 -3 44q-7 29 -13 26q-2 9 -19 24q-14 13 -11 32q8 11 39 9q31 29 73 32q45 3 74 -28q10 3 21 12q13 11 18 14q19 4 40 22q69 4 99 -9q1 -7 9 -23q6 -11 0 -24q-8 -6 -30 -8q-20 -1 -31 -10 q-8 -3 -12 -20q-4 -19 -9 -23q6 -10 13 -41q7 -28 17 -37q2 -16 15 -37q13 -22 15 -37q19 -16 36 -56q20 -48 29 -61q13 25 14 65q15 19 17 60q11 22 23 64q14 50 20 67q28 116 39 134q-2 12 -18 23q-17 12 -21 21q0 7 8 14q8 6 5 16q4 5 14 8q14 4 17 5q8 14 21 22 q7 54 13 61q3 54 13 73q1 30 0 35q11 23 18 70q9 59 13 73q2 20 15 72q11 43 11 76q2 8 6 26t7 26q-10 35 -22 52q-8 -2 -13 3q-6 6 -8 6q-8 -2 -21 -8l-20 -8q-25 -9 -46 -1q0 9 -13 17q-1 -2 13 56q34 19 43 18q7 3 31 22q8 -1 34 8q62 -6 70 -4q4 -4 21 -14q14 -8 18 -17 q34 25 134 27z" />
<glyph unicode="X" horiz-adv-x="886" d="M375 1410q-1 11 -34 -21q1 -15 -17 -13q-8 -29 13 -182q33 -82 50 -161q11 -19 26 -80q7 -14 14 -39q9 -35 11 -42q0 -1 60 153q3 15 12 40q10 26 13 40q7 9 16 35q8 24 18 33q2 25 12 57q15 44 17 53q-1 19 -21 76q-6 2 -15 2q-11 1 -14 1q-14 2 -22 14q-7 13 3 25 q13 15 14 22q17 2 56 -1q43 -5 63 -3q30 -8 38 -13q6 3 26 10q17 5 25 11q26 0 30 4h33q20 1 31 -1q34 -4 37 -28q-1 -16 -17 -25q-22 -13 -25 -18q-6 0 -13 -8q-6 -8 -13 -9q-1 -5 -9 -11t-7 -14q-19 -11 -41 -44q-23 -34 -40 -45q1 -15 -9 -37q-10 -21 -8 -39 q-43 -62 -46 -106q-1 1 -13 -21q-3 -5 -5 -13q-2 -10 -4 -13q-1 -3 -6 -10t-6 -11q-1 -2 0 -8t0 -9l-4 -4q-4 -2 -5 -4q-33 -81 -42 -93q-5 -30 -23 -75q-19 -49 -24 -74q5 -16 24 -74q14 -45 23 -74q4 -13 25 -70q16 -43 21 -74q8 -14 18 -44q10 -32 16 -45q10 -14 21 -41 q13 -35 17 -44q48 -85 43 -80q1 -3 51 -72q9 -3 47 -21q28 -13 50 -17q-2 -10 4 -21q5 -9 0 -17q-14 -7 -152 -21q-1 0 -38 16q-83 -12 -81 -12q-43 -12 -76 -9q-1 4 -9 19q-5 11 -4 24q6 3 19 8t19 9q5 6 17 11q13 6 17 10q2 13 -1 30q-3 21 -3 29q-1 6 -11 23q-7 14 -6 28 q-4 7 -11 21q-7 16 -10 21q-4 16 -20 44q-14 27 -18 45q-8 15 -20 44q-13 33 -18 45q-5 7 -9 23q-4 17 -8 24q-5 4 -10 22q-5 16 -11 20q-10 -12 -23 -45q-13 -32 -24 -44q-4 10 -13 -42q-2 -10 0 -9q-17 -29 -21 -55q-7 -12 -21 -57q-12 -37 -26 -53q-17 -114 -16 -114 q0 -5 6 -12t6 -14q5 -3 25 -5q17 -1 22 -7q5 -15 4 -43q-2 -2 -12 -4q-9 -2 -9 -8q-10 -2 -20 6q-9 7 -18 6q-11 2 -25 -1q-15 -3 -22 -3q-4 0 -11 3t-14 1q-46 21 -55 21q-16 1 -43 -7q-31 -9 -42 -9q-9 -3 -21 8q-37 -3 -47 13q-4 5 -2 14t-2 15q12 11 21 9q8 13 17 13 q8 1 18 10q9 9 16 11q11 7 32 25q20 17 32 26q3 18 19 48q16 28 19 49q8 4 14 21q7 17 15 21q0 11 9 25t8 26q10 16 22 48q14 37 21 50q6 20 20 49q18 38 22 48q33 99 34 106q9 2 21 34q2 -7 -34 97q-3 20 -16 49q-14 31 -18 49q-7 5 -10 23q-4 22 -7 27t-17 47 q-31 82 -34 97q-3 6 -15 34q-8 21 -18 30q-9 67 -34 93q-1 35 -21 72q-26 49 -30 64q-57 8 -68 29q20 66 165 43q112 49 170 17v-26z" />
<glyph unicode="Y" horiz-adv-x="1033" d="M541 343q-3 -2 -1 -4q1 -1 3 1q3 2 1 4q-1 1 -3 -1zM474 1348q5 -1 -9 7q-12 6 -21 1q-6 -1 -13 -8q-7 -8 -13 -9q-24 -29 -26 -82q5 -39 78 -239q2 -12 10 -29q9 -19 11 -27q0 -7 13 -26q3 -2 5 -15q1 -11 8 -11q16 -60 44 -113q10 21 22 66q13 50 21 69q5 27 17 70 q14 50 18 68q-2 41 17 83q-1 11 9 60q3 103 -35 152q-58 4 -69 13q-2 8 2 17q4 10 2 18q12 6 143 34q13 -7 45 -12q27 -5 38 -18q11 10 13 0q45 12 112 17q7 -2 20 -4q15 -2 20 -3q23 -6 30 -19q-2 -37 -48 -39q-12 -14 -35 -26q-3 -7 -28 -48q-17 -28 -19 -56q9 8 -44 -104 q-2 -22 -16 -55q-15 -34 -18 -53q-8 -6 -13 -25q-5 -21 -9 -27q-7 -5 -11 -24t-11 -24q-2 -18 -15 -57q-11 -33 -11 -60q-1 -5 3 -10q3 -5 1 -12q3 -9 17 -27q12 -16 14 -29q-3 -12 -17 -20q-23 -15 -22 -15q-57 -65 -61 -69q-1 -11 -11 -37q-8 -21 -6 -41q-13 -23 -27 -75 q-15 -56 -25 -77q-3 -12 -26 -73q-9 -44 -31 -70v-26q3 2 -34 -56q-3 -13 -14 -29q-13 -19 -17 -27q-121 -111 -199 -130q-156 -6 -217 52q-2 10 5 15l6 3q5 2 7 3q-3 14 13 22q16 1 32 -9q18 -12 28 -13q59 2 87 9q7 3 21 11t22 11q43 33 78 91q31 57 31 56q8 7 16 25 q9 21 14 27q12 35 46 121q30 76 45 122q-5 31 -23 78q-20 51 -25 78q-42 145 -43 156q-20 43 -44 112q-34 97 -38 109q-2 11 -11 28q-9 18 -11 28l-26 52q0 3 -22 57q1 7 -13 26q-5 4 -2 11q2 7 -2 10q-40 56 -35 48q-7 -2 -8 13q-8 3 -20 11t-19 11q-34 -11 -45 -12 q-26 -2 -33 20q4 23 26 22q5 2 11 11q6 8 10 11q27 -3 70 8q10 0 33 -6q19 -5 36 -2q8 -2 21 -10q12 -7 22 -8q19 4 70 32q41 23 82 20q21 -9 30 -30q5 -1 35 -22q-2 -2 -4 -39q-33 -9 -35 -8z" />
<glyph unicode="Z" horiz-adv-x="991" d="M617 686q-26 -26 -37 -29q-8 -17 -31 -45q-23 -27 -31 -45q-2 -3 -57 -90q-63 -100 -106 -192q-30 -32 -62 -98q-8 -7 -17 -24q-10 -20 -15 -26q-3 -8 -15 -23q-12 -14 -14 -26q112 -2 241 8q20 2 54 -1q38 -3 53 -3q10 1 37 6q24 4 36 3q6 1 32 9q18 7 34 7q8 6 65 33 l21 30q13 18 12 39q20 7 25 41q1 1 5 2q3 2 4 3q5 3 3 12q6 -1 10 5q5 7 10 7l17 12q8 -1 16 12q0 -4 25 4q15 -6 17 -27q2 -35 3 -38q-16 -25 -19 -88q-4 -86 -5 -92q1 -9 7 -34q5 -20 5 -36q-18 -7 -21 -8q-6 -2 -31 2q-23 3 -38 -2q-13 8 -48 10q-38 2 -50 7 q-26 -1 -37 -5q-44 8 -155 5q-122 -3 -152 0q-6 -3 -23 -5q-16 -1 -22 -4q-247 -11 -250 -12q-30 -1 -32 -4q-61 20 -70 53q3 9 14 21t15 20q4 4 15 20q9 12 17 17q11 27 39 68q29 44 39 67q8 9 53 78q3 3 9 8q6 4 8 8t4 12q2 9 4 13l8 8q6 5 8 8l2 15q1 9 11 5q12 31 20 33 q2 9 37 66q4 6 40 64q24 39 42 63q4 82 4 81q-2 7 5 9q8 3 7 8q-10 1 -8 16q10 6 28 23q17 16 29 22q19 24 25 29q3 2 10 13q6 10 14 11q16 40 33 70q1 1 5 7q5 5 7 9q20 37 29 45q4 15 17 34q16 22 20 32q4 3 8 18q4 13 12 14q2 5 6 19q4 11 6 18q16 14 33 48q20 39 29 50 q6 17 25 53q17 33 24 54q-9 8 -35 10q-31 3 -39 6q-94 7 -258 -8q-49 3 -65 -4q-8 -1 -15 3q-8 5 -14 5q-14 -2 -63 -2q-37 0 -59 -10q-9 -1 -19 -11q-9 -9 -18 -10q-3 -4 -37 -49q-1 -16 -4 -16q-6 -5 2 -16q7 -12 2 -17q1 -8 -9 -11q-11 -3 -12 -9q-21 -6 -32 -4 q-13 13 -10 37q6 49 6 40q-4 10 -3 33q1 18 -6 25q2 14 -1 35q-4 21 -3 34q0 11 -12 25q-10 13 -8 28q0 8 10 11q12 3 14 6q3 0 6 4q4 3 7 4q2 -1 53 -20q18 -1 55 4q38 4 55 4q12 0 31 -4q21 -4 31 -4q41 -3 116 -3q83 0 117 -2q42 -1 136 2q84 2 126 -2q9 6 34 7 q27 2 35 6q11 -5 35 -3q21 2 31 -5q37 -17 45 -70q-13 -34 -20 -37q-5 -2 -11 -16q-5 -12 -14 -12q-7 -26 -25 -45q1 -8 -20 -21q-4 -20 -21 -45q-19 -29 -24 -41q-21 -30 -25 -41q-6 -2 -13 -18q-6 -13 -15 -15q-5 -24 -37 -73q-8 -12 -21 -35q-14 -25 -20 -35 q-7 -19 -20 -37q-5 -3 -10 -17q-4 -13 -11 -15q-9 -29 -37 -70q13 -85 8 -78q-15 -22 -36 -28z" />
<glyph unicode="[" horiz-adv-x="513" d="M319 19q9 -2 7 -1l5 -2q0 1 -3 3q-8 6 -11 4t2 -4zM177 754q-3 -2 -1 -3q1 -1 3 1q3 2 1 3q-1 2 -3 -1zM369 1299q-2 -2 -1 -3q1 -2 4 1q3 2 1 3q-1 1 -4 -1zM271 1299q-3 -2 -1 -3q1 -2 3 1q3 2 1 3q-1 1 -3 -1zM335 1385q10 2 10 4q-10 -2 -10 -4zM413 1381 q-11 -31 -12 -38q-1 -15 2 -43q2 -22 -2 -37q-26 0 -95 3q-59 3 -98 1q-4 -15 -4 -126q0 -166 9 -207q-4 -11 -5 -40q0 -29 -4 -40q2 -44 -5 -207q-3 -61 -2 -179q1 -110 -3 -168q-7 -124 -4 -146q39 -13 112 -19q84 -19 99 -18q6 -9 26 -17t26 -16q-3 -22 -1 -54t1 -45 q-161 -9 -221 19q-7 -2 -75 0q-2 0 -23 2q-8 1 -10 -11q-9 -1 -16 12q-7 11 -22 6q-9 0 -20 6q-11 7 -17 8q-2 12 5 26q6 14 4 26q2 42 0 178q0 109 5 174q4 48 0 263q-1 43 -4 116q-5 82 -5 114q-1 28 -6 127q-4 79 -4 127q0 144 0 132q-5 110 -5 112q19 8 63 10q41 2 55 9 q184 -24 178 -23q8 -1 41 1q25 2 39 -1q6 -13 -2 -37z" />
<glyph unicode="\" horiz-adv-x="984" d="M290 1256q2 -2 4 -1q1 2 -1 4q-3 2 -4 1q-2 -2 1 -4zM594 315q2 -2 3 -1q2 2 -1 4q-2 2 -3 1q-2 -2 1 -4zM789 -48q-2 4 -13 4t-12 5q-5 4 -14 2q-5 -1 -5 8q-10 4 -25 15t-24 15q-12 -19 -40 -30q-12 4 -78 -5q-12 6 -40 15t-41 15q-44 20 -51 58q-2 24 4 45q15 6 37 -4 q26 -13 42 -11q24 16 34 64q-1 39 -24 137q-4 15 -10 50q-6 32 -10 48q0 1 -5 4q-4 4 -5 6q-1 3 0 12q2 8 0 12q-1 5 -7 12q-6 9 -7 13q-23 49 -25 54q-8 22 -23 79q-13 49 -26 77q-9 11 -16 38q-8 31 -13 41q-7 9 -19 38q-10 25 -21 35q-6 38 -32 91q-29 60 -36 86 q-7 22 -38 87q-25 53 -31 94q-6 8 -42 95q-24 59 -66 72q-9 2 -17 -5q-7 -8 -17 -5q-2 -2 -5 -6t-5 -6q-7 -6 -19 -3q-18 10 -19 36q0 -2 4 43q60 67 142 68q43 -7 54 -14q34 27 103 34q5 -1 30 -9q18 -6 34 -6q16 -21 29 -19q-2 1 10 -35q-72 -14 -79 -19q-4 -9 -10 -27 q-6 -20 -9 -27q-3 -62 44 -226q10 -22 28 -79q17 -53 31 -78q4 -16 59 -152q15 -69 53 -161q28 -104 113 -314q10 -31 33 -73q30 -55 36 -69q36 -51 44 -64q10 -5 28 -26q16 -18 31 -23q19 -8 55 -9q32 -2 48 -10q-3 -35 -28 -58q-10 -10 -51 -35h-68z" />
<glyph unicode="]" horiz-adv-x="513" d="M164 1382q-8 2 -6 1q-5 2 -5 1l3 -2q8 -6 11 -4t-3 4zM304 660q3 2 1 4q-1 1 -3 -1q-3 -2 -1 -4q1 -1 3 1zM116 125q2 3 0 4q-1 1 -3 -1q-3 -2 -1 -3q1 -2 4 0zM212 125q3 3 1 4q-1 1 -3 -1q-3 -2 -1 -3q1 -2 3 0zM149 42q-9 -3 -9 -5q9 3 9 5zM73 45q11 31 11 38 q1 14 -1 42q-3 22 1 36q26 1 94 -3q57 -3 95 -1q5 15 5 124q0 163 -9 203q4 11 4 39q1 29 5 39q-3 44 4 203q3 61 2 176q-1 108 3 165q7 121 5 143q-39 13 -111 19q-82 18 -97 18q-5 8 -25 16t-26 16q3 21 1 53t-1 44q158 9 217 -18q7 2 74 0q1 0 22 -2q8 -1 10 11 q9 0 16 -12q7 -11 21 -7q10 1 20 -5q11 -8 17 -8q1 -12 -5 -26t-4 -25q-2 -41 -1 -174q1 -107 -4 -172q-4 -46 0 -258q1 -42 4 -114q4 -80 5 -112q1 -27 6 -124q3 -78 3 -125q1 -141 0 -129q5 -108 5 -110q-18 -7 -61 -10q-40 -1 -54 -9q-181 24 -175 23q-7 1 -40 -1 q-24 -2 -39 1q-5 13 3 36z" />
<glyph unicode="^" horiz-adv-x="636" d="M381 1295q-4 11 -11 11q-1 -9 9 -19q4 -4 7 -4q4 -1 5 2q-7 0 -10 10zM391 1394q4 -8 13 -23q9 -16 13 -24q2 -4 4 -12q3 -9 5 -12q5 -15 17 -17q5 -44 33 -76q17 -19 61 -49q15 -2 31 8t31 8q-7 -19 0 -37q-50 -31 -79 -41q-51 -18 -103 -6q-60 42 -68 52q-2 15 12 25 q14 11 14 22q-8 29 -62 125q-35 -38 -42 -140q4 -7 17 0q18 10 20 10q23 -28 -7 -54q-9 -9 -28 -21q-23 -15 -28 -19q-71 -2 -135 6q-11 11 -47 20q-4 9 -18 23t-18 24q-3 36 10 47q12 2 16 -10q5 -14 10 -16q3 -8 12 -14q12 -9 14 -12h42q2 0 5 3q2 2 5 2q6 8 16 21 q12 14 17 20q18 24 25 48q52 47 78 145q4 0 10 3q5 3 10 2q-2 20 -2 19q0 4 8 13q19 2 39 -5q28 -10 33 -11q16 -34 16 -47zM401 1275q4 -11 11 -11q-1 -3 -5 -2q-3 1 -7 5q-10 9 -9 18q7 0 10 -10z" />
<glyph unicode="_" horiz-adv-x="1033" d="M940 -46q-2 1 -2 -2t2 -3q2 -1 2 3q0 2 -2 2zM924 -99q-44 -10 -57 -16q-75 -1 -88 -4q-33 10 -81 12q-15 1 -91 1q-14 0 -100 -1q-63 -1 -104 1q-18 1 -72 5q-46 4 -73 4h-18h-18q-72 1 -110 0q-7 0 -36 -6q-16 -3 -30 2q-6 16 -9 38q-3 24 0 37q9 1 22 8q14 8 22 9 q13 -5 23 -2l21 7q61 -5 142 -3q13 0 35 1q31 0 37 1q46 1 82 1q28 6 115 13q75 6 110 18q47 4 131 3q103 0 139 1q-1 -4 1 -6q2 -1 6 -2q5 0 7 -1q3 -1 3 -4q12 -4 18 -18q2 -5 5 -13q3 -11 4 -13q8 -8 12 -23q3 -10 6 -30q-16 -12 -54 -20z" />
<glyph unicode="`" horiz-adv-x="329" d="M244 1502q-4 5 -5 6q-8 7 -10 -1q4 1 12 -9q3 -4 4 -4q2 -1 4 4q-1 0 -5 4zM73 1673q-2 -2 -1 -4q2 -1 4 1q3 2 1 4q-1 1 -4 -1zM115 1713q-7 -2 -8 -5q-2 -2 1 -3q2 0 8 2q4 1 8 3q3 2 2 3q-3 4 -11 0zM254 1477q-19 -1 -27 -10q-16 9 -32 25q-5 5 -27 31q-12 5 -31 27 q-17 20 -33 25q-4 10 -20 27q-16 15 -19 28q-3 4 -13 10q-8 5 -11 10q-1 3 -3 10q-4 9 -4 12q-5 14 -1 18q9 21 36 30q26 9 55 2l4 -4q3 -3 5 -4q5 -4 11 -4q46 -46 76 -104q-1 3 31 -59q26 -70 28 -60q-7 -9 -25 -10z" />
<glyph unicode="a" d="M529 1284q-8 -12 -9 -22q-9 -45 -9 -59q-33 -69 -31 -122q-49 -184 -50 -194q-5 -6 -11 -22q-7 -17 -12 -23q1 -10 -3 -28q-3 -17 -1 -31q-18 -62 -18 -58q24 1 111 -2q58 -2 96 6q23 1 45 -2q26 -2 41 -2q-1 29 -15 86q-13 52 -12 90q-1 5 -7 13q-6 7 -6 14 q-4 51 -23 95q0 9 -18 99q-5 14 -11 48q-6 32 -12 47q-2 7 -8 53q-4 33 -14 46q-2 6 -9 5q0 -7 -5 -14q0 -10 -9 -23zM718 1307q-16 13 -26 14q-3 -35 27 -145q28 -137 32 -144q9 -69 27 -149q2 -69 31 -145q15 -23 59 -45q-1 -11 7 -20q10 -9 11 -16q-3 -12 -17 -24 q-16 -13 -19 -21q-3 -9 -5 -29q-2 -22 -4 -30q3 -23 15 -72q11 -44 12 -63q1 -6 13 -27q0 -42 23 -68q3 -34 22 -76q23 -54 28 -69q38 -64 40 -72q4 -6 26 -15q19 -7 20 -21q1 -19 -19 -27q-28 -11 -31 -14q-59 -4 -95 32q-8 -2 -25 -17q-15 -13 -29 -15q-17 -2 -68 18 l-36 41q-6 15 -5 45q7 0 16 5q10 4 16 4q5 0 10 -8q5 -7 13 -5q4 1 4 14q-1 12 5 13q1 11 -5 22q-8 13 -9 18q-4 26 -25 112q-19 77 -25 123q-3 4 -6 17q-2 11 -7 15q-1 30 -14 84q-11 47 -9 83q-9 8 -35 10q-24 2 -37 -1q-14 4 -47 7q-34 3 -48 6q-14 0 -86 1q-54 1 -81 -5 q-25 -37 -13 -81q-6 -3 -8 -13q-4 -12 -6 -14q-3 -53 -18 -113q-9 -132 -32 -217q2 -16 -1 -35q-3 -25 -3 -33q-2 -6 -3 -26q-1 -16 -6 -28q9 -23 45 -32q6 -7 24 -12q20 -5 26 -10q0 -4 3 -13q3 -7 1 -14q-5 -8 -26 -12q-22 -4 -28 -11q-87 -12 -126 18q-8 2 -10 -6 q-3 -8 -8 -7q-3 -3 -12 -5q-8 -2 -11 -4q-14 -3 -29 2q-17 6 -25 7q-2 7 -15 15q-12 6 -12 16q-6 2 -20 6q-13 4 -19 7q-20 11 -16 37q19 24 50 4q9 5 26 8q14 3 24 10q3 1 7 9q3 7 11 5q32 115 31 158q38 157 41 199q20 35 18 77q12 29 23 90q-6 13 -25 24q-24 14 -29 21 q-2 28 20 41q12 6 47 13q4 0 6 8q2 6 8 6q13 15 20 54q9 45 16 59q3 16 11 61q7 39 12 61q0 4 -4 12q-3 7 -1 15q27 148 45 221q2 7 -2 13q-4 7 -2 14q7 14 10 37q4 26 8 35q-19 3 -34 -13q-16 -16 -34 -14q-1 5 -9 7t-9 7q-6 10 18 49q16 12 23 41q16 0 22 18q15 -1 29 5 q21 8 25 9q19 -6 61 -10q41 -5 52 -8q7 4 25 9t25 9q16 1 37 -2q24 -3 35 -3q6 -11 27 -9q-1 1 73 -41q0 -9 13 -22q4 -4 5 -18q2 -32 -18 -41q-19 -3 -33 9z" />
<glyph unicode="b" horiz-adv-x="858" d="M386 82q62 18 77 18q10 13 41 19q3 8 18 14q16 6 19 13q16 7 37 27q23 21 36 28q6 11 29 44q19 26 26 47q-2 -6 18 110q-12 48 -23 105q-28 40 -41 69q-23 15 -41 46q-11 3 -26 12q-18 12 -24 15q-24 7 -55 18h-46q-14 1 -53 -8q-42 -9 -61 -10q-31 14 -64 14 q-1 -104 -5 -119q2 -26 9 -46q-11 -96 -4 -210q1 -11 4 -33q4 -22 5 -31q4 -48 0 -128q10 3 27 -4q22 -10 33 -10h64zM559 836q-1 10 9 15t10 13q5 7 11 25t11 25q-3 4 5 51q2 3 1 24t4 30q-11 40 -5 64q-22 42 -23 83q-22 27 -23 45q-12 11 -36 38q-22 25 -37 36 q-87 42 -183 9q1 -7 -8 -8q-10 -2 -10 -6l-18 -14q0 -68 -6 -260q-6 -171 -4 -256q36 -2 100 6q63 9 88 7q83 43 114 73zM245 1347q5 9 8 11q4 2 11 2q8 1 12 2q1 1 2 5l2 4q3 2 17 3q11 1 15 7q47 10 87 22q35 -1 64 10q25 -11 92 -19q-2 2 45 -23q5 -5 42 -32 q38 -44 32 -41q36 -38 32 -36q7 -27 22 -46q16 -39 23 -46q0 -18 14 -64q2 -20 -1 -60q-3 -31 1 -45q-14 -39 -14 -68q-56 -107 -73 -133q-5 -4 -22 -17q-14 -10 -24 -15q-35 -30 -45 -32q3 -7 17 -13q15 -5 19 -10q6 -1 19 -8q11 -7 22 -6q13 -25 51 -45q1 -15 17 -29 q17 -14 19 -26q8 -7 18 -26q11 -18 19 -25q2 -11 24 -88q15 -53 17 -94q-4 -14 -6 -28q-2 -20 -3 -27q-9 -46 -9 -60q-3 -5 -5 -13q-3 -10 -4 -14q-1 -1 -2 -7q-2 -5 -3 -7q-1 -1 -5 -2q-4 -2 -4 -3q-2 -4 -5 -14q-2 -8 -4 -13q-9 -17 -33 -47q-27 -36 -36 -49 q-17 -5 -38 -19q-26 -18 -35 -22q-10 -9 -36 -19q-28 -10 -37 -18q-13 0 -73 -13q-36 -2 -91 -3q-49 0 -74 -2q-26 16 -50 14q-7 8 -26 15q-23 9 -29 12q-7 -2 -22 -5q-14 -2 -19 -4q-19 -7 -55 5q-5 1 -14 6q-10 6 -14 7q-5 3 -15 5l-12 4q-1 1 -3 8t-6 11q-3 2 -10 5t-8 4 q0 -1 -10 18q-9 19 -9 18q-4 -2 15 13q9 8 22 6q19 -5 32 -19q17 6 36 60q-8 94 -4 87q5 5 4 28q0 21 5 27q-1 1 -5 73q-5 107 0 178q-2 9 -10 51q-6 30 -17 50q-3 5 -22 15q-15 7 -15 21q-2 17 16 21q23 5 26 11q2 7 4 35q2 26 9 38q9 291 -4 362v64q-8 66 -9 59 q-1 8 -9 16q-6 6 -1 16q-5 4 -9 16q-4 13 -9 16q-7 2 -21 2q-15 1 -22 2q-25 4 -30 24q2 -7 9 18q3 9 14 9q4 3 17 6q11 3 15 8q9 2 40 8q25 5 38 10q14 -4 33 -15q24 -14 31 -17q2 -6 19 -29q12 -17 13 -35q7 -2 10 3z" />
<glyph unicode="c" horiz-adv-x="822" d="M704 894q-39 -2 -94 19q5 0 -48 -15q-9 4 -40 7q-26 4 -35 12q-17 -3 -23 7q0 14 27 26q3 2 13 13q8 8 16 10q-10 14 0 63q-1 3 -3 68q-7 68 -8 67q-7 26 -7 23q-1 6 -10 18q-7 10 -5 23q-12 10 -38 56q-37 25 -67 34q-8 0 -41 -4q-13 -5 -38 -23q-2 0 -5 -7 q-3 -6 -10 -4q-11 -24 -22 -26q-5 -26 -22 -45q-1 -10 -15 -52q-2 -7 -5 -31q-3 -20 -7 -29q-2 -82 -11 -124q3 -43 -4 -123q21 -73 23 -75l8 -13q5 -8 11 -2q3 -3 5 -13q3 -10 6 -13q2 -7 -8 -19q0 -1 -3 0q-4 1 -4 0q-2 -2 -2 -7q-1 -6 -2 -8q-3 -4 -11 -15q-8 -9 -11 -15 q-7 -31 -19 -64q3 -14 3 -43q-1 -25 4 -39q1 6 0 -213q2 -6 8 -60q9 -40 30 -82q5 -15 21 -33q19 -20 24 -31q9 0 17 -7q9 -7 16 -8q5 -4 15 -8q11 -4 15 -7q100 2 128 11q8 0 18 8q9 9 19 7q9 4 21 22q12 16 24 19q0 14 15 27q0 13 15 52q-4 32 4 67q-20 106 -38 131 q-16 13 -26 15q-22 8 -22 15q-3 17 11 21q4 1 30 2q9 0 27 -3q17 -3 29 -1q-1 2 26 -11q1 -1 2 -4t2 -4q2 -1 8 -1q6 -1 10 -3q36 11 64 30q72 13 86 -7q-1 -18 0 -19q-2 -9 -13 -16q-14 -9 -17 -14q-7 -1 -17 -11q-9 -9 -20 -7q-17 -30 -23 -34q5 -5 3 -10q-1 -1 -3 -4 q-3 -3 -3 -5q2 -30 0 -138q-14 -87 -64 -154q-11 -5 -30 -21q-18 -15 -30 -20q-10 -9 -34 -17q-32 -10 -37 -13q-33 0 -71 -7q-24 -2 -61 1q-42 3 -59 2q-19 4 -56 16q-35 11 -56 14q-19 21 -53 30q-3 14 -15 28q-15 19 -18 25q-11 4 -20 23q-9 21 -18 25q1 27 -15 53 q-2 25 -10 67q-10 45 -12 67q-1 6 2 13t2 14q-3 97 3 142q2 -5 4 101q4 37 0 49q3 6 0 21t4 24q-7 3 -8 7q-3 16 -26 26q-27 12 -30 15q0 17 4 23q2 2 7 4q7 2 8 3q6 4 30 15q2 16 11 19q2 15 -2 49q-3 30 2 44q-7 22 -7 27q-1 42 0 41q5 5 2 17q-2 10 5 13q-12 38 0 86 q0 4 -7 26q-3 6 3 7q6 2 4 8q-1 11 4 19q2 -12 19 101q2 1 5 8q2 5 6 7q4 0 4 9q0 8 3 9q1 6 10 16q8 9 5 22q27 8 49 45l71 22q-2 -3 26 11q1 1 2 4q1 4 2 4h4q2 -1 3 0q30 17 116 22q28 -4 72 -18q48 -15 71 -19q13 -16 37 -23q18 -19 34 -22q10 -17 37 -37q-1 -12 7 -22 q9 -10 8 -20q3 -5 6 -20q2 -15 5 -21q1 -25 -1 -55q-2 -39 -2 -42q2 -9 -3 -15q-5 -7 -5 -11q2 -16 3 -67q0 -40 8 -68q7 -14 15 -26q3 -4 12 -7t11 -8v-34z" />
<glyph unicode="d" horiz-adv-x="900" d="M634 747q0 6 15 23q6 135 0 165q4 7 5 85q1 19 0 47q-1 34 0 51q-7 32 -15 85q-11 5 -14 22q-1 4 -3 16q-1 10 -2 15q-30 44 -98 94q-17 3 -64 15q-43 12 -71 16q-7 0 -22 -5q-12 -3 -22 -4q-85 -73 -92 -89q5 -133 9 -152q-6 -24 -5 -151q-1 -10 -4 -27q-4 -18 -5 -27 l9 -112q0 1 16 -30q9 -18 23 -23q29 -34 29 -49q-20 -14 -24 -14q-5 -1 -11 -9t-13 -8q0 -8 -20 -50q4 -10 2 -25q-2 -22 -2 -28q1 -24 12 -102q9 -68 8 -108q11 -40 19 -201q5 -11 18 -33q12 -21 16 -34l63 -36q125 -7 204 45q37 62 39 67q5 32 20 98q-1 32 -3 109 q-2 79 -2 119q-3 140 -5 147q2 -1 -14 14q-9 8 -25 4q1 10 -15 14q-15 3 -14 13q-6 7 4 16q14 12 15 15q39 23 39 22zM874 692q-14 -7 -17 -11q-3 -5 -11 -24q-6 -15 -13 -21q-5 -73 0 -85q-2 -1 -10 -22q4 -31 -3 -88q-7 -47 3 -69q-7 -2 -9 -16q-2 -16 -5 -19v-31 q-4 -23 -18 -55q-17 -38 -21 -53q-15 -38 -39 -102q-39 -33 -44 -40q-32 -7 -48 -32q-30 -4 -49 -18q-48 2 -72 -13q-23 7 -83 4q-20 2 -92 18q-38 9 -83 18q-4 2 -12 14q-7 9 -17 9q-11 -1 -17 -16q-7 -17 -12 -20q-1 -3 -13 -4q-9 -1 -6 -10q-19 -1 -20 -4q-35 -1 -39 -5 q-50 6 -58 5q-16 -1 -14 13q-2 1 -16 0q-9 -1 -9 5q-18 1 -24 27q8 17 30 20q20 2 43 -7q20 5 53 36q1 36 15 58q-4 114 5 169q-6 73 -11 196q-5 134 -9 184q-1 2 -8 10q-5 7 -6 12q1 8 -11 8q-13 1 -14 6q-14 18 -14 17q0 32 39 36q-4 16 -1 19q0 -1 15 3q-1 13 5 14 q2 62 -10 111q11 75 10 143q0 4 -2 13q-3 9 -3 14q2 138 -5 183q-8 56 -34 72q-16 5 -28 -2q-14 -9 -30 -7q-18 20 -24 49q4 2 13 13q6 9 16 9q15 6 126 0q0 4 29 -18q2 -1 2 -7q1 -5 3 -6q1 -1 8 0q6 1 7 0q3 -3 5 -13q3 -11 4 -14q9 3 50 26q30 16 57 19q10 -1 16 7 q8 9 13 10q14 0 15 5q11 -2 30 2q15 2 23 -2q59 5 59 4q55 -13 68 -13q63 -21 77 -22q4 -6 34 -23q8 -1 17 -9q8 -8 17 -8q12 -34 39 -50q0 -20 15 -26q10 -49 34 -90q-7 -34 9 -71q-2 -79 5 -89q-14 -24 -8 -71q9 -65 8 -77q7 -34 20 -53q-4 -6 0 -36q13 -32 58 -54 q-2 -10 3 -21q6 -13 7 -19q0 -10 -13 -15z" />
<glyph unicode="e" horiz-adv-x="1068" d="M952 1354q-6 -48 -6 -61q-4 -19 -1 -48q3 -39 1 -61q0 -12 7 -27q8 -15 7 -27q-8 -1 -20 -10q-11 -7 -21 -8q-1 11 -18 9q-13 26 0 63q-1 13 -13 25q-13 13 -14 25q-18 7 -18 23q3 -2 -13 6q-7 3 -5 12q-17 1 -39 11q-25 10 -38 12q-21 2 -56 -2q-38 -3 -53 -3 q-8 0 -24 4q-17 5 -26 5q-6 1 -17 -2q-13 -2 -19 -2q1 0 -1 2q-1 3 -3 2q-34 -7 -110 -11q-80 -5 -117 -11q-1 -3 -31 -105q-2 -8 2 -50q2 -25 -11 -36q14 -101 4 -158q9 -95 9 -154q103 -3 140 9q-1 9 6 20q6 10 4 21q3 16 -15 29q-16 12 -8 25q-2 9 7 13q11 4 11 10 q31 -4 48 -31q1 -3 24 -55q1 -13 -3 -54q-2 -30 3 -50q-22 -120 -104 -95q-9 36 0 31q-1 11 6 22q7 13 8 19q-50 11 -127 5q2 -23 0 -69q-2 -47 0 -72q6 -77 5 -158q-1 -76 13 -127q0 -16 9 -41q17 -32 14 -31q-2 -22 4 -41q21 -42 41 -54q264 10 444 31q3 1 10 6q6 4 12 3 q14 5 32 23t32 23q-2 22 9 22q-1 5 1 13q3 9 3 14q1 7 0 21q-1 15 -1 21q1 25 15 31q7 -1 9 4q28 -2 33 -31q2 -10 2 -27q1 -22 1 -28q1 -8 9 -68q8 -52 14 -58q0 -7 -7 -12t-7 -11v-45q-15 -17 -56 -18q-71 -1 -66 0q-9 -3 -16 4t-16 5q-17 -2 -63 0q-7 -2 -28 -4 q-18 -3 -26 -5q-5 -1 -100 0q-23 0 -130 -4q-90 -3 -151 -1q-119 14 -135 14q-12 -2 -20 -17q-10 -16 -17 -20q-6 1 -31 -9q-19 -1 -43 3q-28 6 -39 6q3 -5 -31 19q-3 1 -3 4q-1 3 -2 5q-2 2 -9 6t-9 7q-10 9 -5 27q11 15 59 0q18 8 27 9q7 3 18 14q10 11 19 14q-1 17 13 31 q8 40 11 97q3 70 7 102q-2 45 0 181q2 121 -4 186q-7 8 -35 22q-23 12 -29 28q3 15 18 23q4 3 14 7q9 4 14 6q1 9 10 19q10 11 12 17q-1 8 5 9q4 53 4 136v140q1 33 -1 96q-3 74 -3 104q2 -6 -13 49q-9 29 -28 37q-5 -5 -23 -9q-17 -3 -22 -9q-4 -12 -19 -13q-15 -2 -22 8 q-4 17 8 26q18 12 19 15q21 6 45 22q34 2 37 5q61 -14 104 -18q21 -2 63 -2q44 -1 68 -3l54 -4q90 0 100 -5q42 9 122 7q110 -4 141 -2q135 6 144 4q10 -18 6 -52z" />
<glyph unicode="f" horiz-adv-x="1152" d="M1069 1115q-2 2 -8 7q-5 5 -8 7q-5 8 -2 22q3 17 2 28q2 10 -5 16q-8 8 -9 12q8 3 3 11q-8 14 -8 12q0 14 -18 50q-1 6 -11 13q-8 6 -8 15q-14 3 -31 15q-22 14 -28 17q-9 3 -20 2q-12 0 -22 3q-53 -5 -156 -12q-127 -9 -156 -11q-13 -6 -49 -11q-34 -5 -48 -12 q-132 -7 -124 -5q-7 -4 0 -13q8 -12 5 -19q-6 -24 -5 -313q1 -78 0 -87q0 -13 2 -35q3 -25 3 -34q4 -3 27 -1q26 3 37 1q17 5 32 24q27 36 23 31q0 4 -3 11q-4 9 -5 12q-4 14 4 23q19 20 48 4q24 -12 39 -36q8 -60 -14 -83q3 -9 17 -40q11 -25 15 -42q-8 -62 -18 -79 q-8 -4 -20 -1q-16 3 -26 1q-7 11 -7 27q0 20 -2 29q-9 14 -9 13q-5 4 -19 11q-13 7 -18 12q-15 1 -97 -4q4 -137 0 -170q5 -24 5 -184q0 -8 2 -21l3 -21q0 -8 -3 -25q-2 -17 -2 -25q0 -4 5 -51q4 -46 9 -59q1 -4 4 -3q4 0 5 -2q1 -1 0 -11q0 -10 5 -12q2 -4 14 -18 q9 -11 13 -19q29 -17 34 -22q19 -16 12 -33q1 -11 -11 -14l-21 -4q-10 2 -21 -2q-12 -4 -20 -3q-96 34 -106 46q-25 -27 -42 -37q-26 -4 -32 -9q-29 7 -59 5q-1 4 -9 5q-9 1 -10 4q-8 -1 -13 10q-5 10 -14 8q-19 12 -23 23q0 -8 36 32q41 -7 51 -4q20 8 32 27q-8 9 1 17 q12 13 13 16q-2 49 -2 149q0 104 -3 163q0 2 -2 6q-3 4 -2 8q3 22 -1 90q-3 68 1 98q-5 6 -5 19q-1 2 -7 11q-5 6 -7 12q-2 8 -20 16q-16 7 -16 20q0 14 4 23q2 5 9 14q1 1 5 3q4 1 5 2q0 1 -1 5q0 3 1 4q0 1 10 1q6 1 3 8q4 0 6 8q2 7 8 6q0 8 -3 24q-3 15 -1 27 q11 77 0 179q-3 -13 -5 230q-5 10 -10 29q-7 24 -9 30q-12 35 -32 46q-15 2 -45 -5q-25 -6 -42 1q2 12 10 26q11 19 13 24q17 6 59 7q44 2 61 7q83 -19 183 -23q23 -1 33 9q31 -11 82 -9q9 -2 15 4t13 5q135 10 326 19q3 -1 9 2q4 2 5 -2q50 4 170 -5q9 -1 14 -11 q11 -20 9 -16q7 -2 12 -12t11 -11q-7 -12 -1 -24q11 -24 10 -22q2 -28 7 -104q4 -66 7 -103q-6 -2 -11 -15q-4 -12 -12 -13q-14 -2 -25 5z" />
<glyph unicode="g" horiz-adv-x="1230" d="M748 1023q2 1 8 11q5 7 14 6q7 5 22 18q13 13 22 18q1 7 8 17q8 15 10 18q1 3 2 11t3 11q0 2 4 7q4 3 4 7q6 30 0 66q-3 24 -4 23q-1 2 -11 8q-8 5 -7 14q-31 27 -40 40q-47 21 -62 31q-17 1 -67 8q-40 5 -62 5q-80 -14 -115 -22q-5 -2 -33 -18q-20 -12 -38 -13 q-5 -2 -15 -14q-8 -10 -20 -8q-6 -5 -22 -28q-12 -18 -27 -21q-10 -18 -34 -51q-23 -33 -33 -51q-4 -8 -9 -35q-5 -23 -13 -32q2 -18 -1 -50q-4 -37 -3 -52q2 -82 0 -93q8 -61 66 -111l-13 -18q-3 -1 -4 -11q-1 -9 -10 -7q-8 -2 -15 -13q-8 -15 -11 -18q-7 -159 22 -297 q-5 -18 2 -47q6 -31 2 -46q6 -13 14 -35q10 -28 13 -36q1 -3 5 -7q3 -3 4 -6q72 -81 231 -116q141 -2 186 9q2 2 12 6q8 3 10 7q33 13 58 45q2 46 13 57q-6 17 -2 49q5 37 2 54q-2 10 -5 62q-2 38 -12 62q-6 5 -18 11q-14 7 -18 11q-70 7 -66 4q-10 2 -20 -7q-10 -8 -20 -6 q-3 6 -13 12q-11 6 -14 10q1 29 31 27q4 3 16 11q10 6 15 11q21 4 66 14q42 10 58 13q4 0 12 -4q7 -3 15 -1q77 -34 80 -35l26 13q1 1 0 5v4q28 22 27 18q10 2 29 9q19 6 29 8q105 5 137 -26q19 -1 24 -16q5 -14 -1 -33q-69 -8 -116 -18q-46 -26 -66 -35q-3 -29 -18 -45 q4 -14 3 -65q-1 -45 10 -68q-4 -20 -7 -84q-3 -49 -15 -80q-3 -8 -15 -18q-13 -10 -16 -17q-9 -2 -40 -23q-55 -13 -71 -22q-110 -13 -178 -22q-72 13 -128 4q-22 2 -156 18q-5 2 -23 10q-14 6 -25 8q-8 1 -23 11q-13 8 -26 7q-2 9 -14 17q-14 8 -17 14q-8 4 -17 14 q-11 14 -14 17q-14 7 -32 30q-18 24 -30 32q-5 31 -27 44q-10 53 -22 67q-1 12 -9 64q-7 44 -9 73q-4 70 -4 71q0 48 -5 58q2 38 0 49q-3 19 -10 41q-9 32 -12 43q-2 1 -5 3q-4 1 -6 2q-5 4 -2 13q-6 1 -13 7t-14 6q-11 -3 -14 6q-5 11 -8 12q-3 10 3 14q10 7 10 8q0 7 9 9 q11 3 13 5q37 72 36 71v84q1 10 18 44q-2 15 13 58q0 27 -5 31q11 1 9 22q23 74 22 85q19 25 18 44q12 3 22 31q17 10 23 31q13 8 41 32q25 22 43 30q17 15 89 58q25 6 93 17q61 10 93 18q8 2 15 -1q8 -3 12 -3q4 5 13 9q162 -18 182 -13q6 -1 16 -6q9 -5 19 -3q8 -2 17 -9 q10 -7 15 -9q25 -7 31 -18q8 1 12 -10q3 -12 10 -12q4 -2 10 -12q6 -8 12 -10q17 -41 31 -49q12 -46 22 -58q-3 -9 1 -31q6 -25 4 -40q3 -10 3 -38q1 -27 6 -37q-5 -11 -5 -53q-28 -36 -35 -49q-34 3 -49 -5q-128 -1 -160 27q-3 26 18 27z" />
<glyph unicode="h" horiz-adv-x="1213" d="M1111 1320q-1 8 -23 18q-19 3 -59 -14q-7 -2 -14 -13q-6 -12 -14 -14q2 -23 -22 -77q-1 -7 3 -18q3 -10 1 -19q1 3 -9 -132q-1 -17 0 -73q3 -120 0 -113q-9 -60 -4 -91q3 -4 13 -28q1 -7 12 -13q10 -6 11 -14q19 -4 23 -23q2 -15 -10 -20q-3 -1 -11 -3t-11 -4 q-4 -11 -17 -24q-15 -15 -19 -22q1 -13 -5 -22q7 -38 2 -99q-7 -78 -7 -102q0 -6 -4 -16q-4 -9 -5 -15q-1 -35 -2 -92q-1 -60 -2 -86q0 -5 13 -86q9 -21 19 -32q2 -3 12 -11q8 -6 10 -12q11 -5 23 4q10 6 14 0q11 1 17 -8q9 -14 10 -14q-7 -22 -38 -33q-5 -2 -27 -8 q-17 -5 -26 -9h-36q-1 2 -19 4q-22 24 -22 37q-13 -12 -23 -9q1 -10 -14 -19q-4 -7 -17 -14q-15 -8 -19 -13q-8 3 -26 2q-19 -1 -29 3q-32 11 -27 13q-3 5 -17 20q-10 12 -15 21q-6 1 -8 10q-2 11 -6 13q1 6 -7 8t-6 10q0 1 23 27q25 -1 54 -31q3 2 17 10q11 6 15 12 q4 10 9 30q6 21 9 30q-6 33 -4 113q1 81 -5 114q10 48 7 117q-3 104 -2 138q-80 12 -164 4q-50 11 -328 14q-7 -3 -9 -21q-1 -20 -5 -24q3 -31 -1 -82q-3 -44 1 -73q-3 -18 -6 -62q-3 -42 -7 -61q0 -14 4 -71q3 -46 0 -70q27 -71 23 -68q-1 -18 12 -32q18 -17 20 -23h18h19 q21 0 27 -9q5 -25 -11 -35q-4 -3 -15 -8q-11 -4 -15 -7q-26 2 -73 -9q-44 11 -64 41q7 6 -36 -32q-57 -14 -114 9q-2 4 -18 21q-11 12 -14 24q-13 9 -9 22q2 7 14 24q17 0 35 -15q20 -15 33 -17q25 7 23 68q-2 9 4 19q6 9 5 18q-1 -4 -5 45q9 75 13 211q5 151 10 208l-9 18 l-9 18q-2 8 -16 11q-15 4 -16 12q-5 19 0 50q28 2 32 0q3 3 7 18q4 12 11 14q0 -2 9 255q1 18 -1 48q-3 39 -3 48q0 3 2 10q2 8 2 12q0 5 -4 29q-4 22 -5 30q0 2 2 5q3 2 3 5q-1 5 -7 27q-5 16 -2 27q-1 4 -10 11q-6 6 -4 16q-7 3 -18 15q-10 10 -19 13q-32 0 -36 -9 q-6 -14 -32 -5q-9 16 5 33q18 20 18 31q18 3 50 23q39 6 77 4q5 -2 29 -12q19 -7 26 -15q-4 -5 82 32q10 1 27 -3q15 -4 28 -2q68 -66 77 -95q-13 -19 -36 -13q-37 9 -51 8q-8 -1 -14 -11t-13 -12q-3 -12 -18 -32q-3 -23 -12 -91q-8 -54 -11 -95q0 -7 5 -14t4 -13 q2 -9 -3 -17q-6 -9 -6 -15q8 -48 1 -129q-9 -87 -5 -117q21 -7 100 -9q190 -29 236 -23q28 -1 84 2q43 2 71 -2q7 24 5 89q-3 64 4 89q3 -4 -9 31q6 34 0 155q5 63 -9 118v55q-5 13 -8 40q-2 23 -10 37q-33 5 -32 5q-10 0 -18 -7q-11 -10 -14 -11q3 -27 -14 -32 q-14 -3 -23 4q-1 0 -13 14q6 27 31 51q5 6 21 20q14 12 21 20q71 21 68 18q3 -1 68 5q6 -7 26 -14q19 -6 24 -13q15 3 37 18q21 15 36 18h41q16 -3 37 -7q19 -4 36 -7q3 -9 14 -9q13 -15 27 -45q1 -6 12 -22q8 -10 2 -24q-2 -2 -41 -4z" />
<glyph unicode="i" horiz-adv-x="657" d="M424 1429l104 -14q8 -16 23 -14q5 -9 20 -24t20 -26q-5 -32 -36 -27q-9 -1 -10 10q-2 12 -8 13q-18 1 -18 4q-47 -4 -74 -46q-10 -14 -21 -39q-15 -34 -19 -42q2 -24 -3 -68q-6 -51 -6 -72q0 -6 2 -16q2 -11 3 -16q12 -140 -5 -232q5 -13 23 -36q32 -38 32 -32 q2 -13 -9 -20q-17 -9 -18 -11q0 -11 -10 -14q-16 -70 0 -122q8 -78 5 -73q-6 -42 9 -300q1 -5 5 -19q4 -12 4 -21q2 -10 16 -28q11 -16 11 -31q63 -32 55 -32q30 -32 18 -59q-73 -9 -145 -5q-54 27 -68 55q-9 -1 -14 -12q-5 -13 -9 -16q-22 -28 -23 -22q-21 0 -27 -14 q-28 0 -32 -4q-8 1 -33 7q-20 5 -35 6q-6 6 -18 14q-13 9 -18 13q-16 0 -36 28q0 18 24 25q30 8 35 16q19 -7 40 -5q21 5 31 33q1 5 7 25q4 15 8 24q-4 222 -5 218q-6 40 -9 45q9 31 9 27q-9 78 -9 77q7 94 -9 141q-2 12 -26 19q-23 7 -24 22q0 20 23 28q5 2 18 4q11 2 14 4 q-1 11 9 14q-3 167 -5 177q5 60 -2 160q-9 113 -7 180q-14 51 -18 55q-27 11 -54 0q-10 -4 -22 -29q-11 -20 -33 -17q-15 12 -7 30q16 33 16 34q2 4 9 7q7 4 9 6q4 10 14 14q4 5 16 13t16 14q94 12 172 5q-1 -8 8 -11q10 -3 10 -7q19 -3 23 -14q8 8 64 23z" />
<glyph unicode="j" horiz-adv-x="872" d="M624 1412q17 4 60 4t60 5q31 -18 64 -28q1 -49 -9 -59q-63 7 -120 -41q0 -6 -13 -23q-14 -59 -19 -65q6 -9 3 -26q-2 -17 2 -24q-9 -25 -6 -69q4 -53 1 -73q14 -85 14 -147q1 -5 6 -22q4 -13 3 -24q2 -3 13 -19q9 -11 10 -22q3 -6 18 -14q13 -7 14 -18q0 -10 -23 -28 q-7 -17 -18 -32q-7 -22 -9 -23q3 -25 5 -75q1 -52 4 -76q2 -21 12 -68q9 -45 11 -70v-18q-1 -12 0 -19q2 -30 -5 -91q-5 -2 -7 -10q-3 -10 -6 -13q-13 -10 -10 -42q-18 -13 -18 -22q-57 -50 -69 -65q-23 -12 -36 -23q-5 -3 -16 -14q-10 -10 -17 -13q-9 -6 -39 -14 q-25 -8 -39 -18q-82 -7 -137 -14q-69 21 -78 32q-23 -1 -42 11q-4 3 -16 11q-9 7 -16 10q-27 33 -36 83q-2 34 -5 36l6 14q4 9 -1 9q-4 9 -1 31q3 25 1 38q-6 41 -9 46q0 7 4 16q4 10 5 16q-30 3 -51 -14q-18 -2 -41 19q0 27 9 27q-2 9 7 12q9 4 7 11q18 14 37 32q56 6 64 5 q8 -2 41 -28q12 3 37 18q22 13 41 15q11 1 23 -5q10 -5 18 0q1 -1 37 -32q17 -21 14 -51q-3 -1 -11 -9q-7 -7 -12 -9q-20 -5 -33 7q-16 15 -22 16q-29 -25 -28 -97q0 -25 4 -62q5 -53 6 -57q36 -33 119 -18q34 19 41 32q8 3 16 21q7 16 21 16q0 -2 14 32q2 6 4 18q3 13 5 19 q1 2 9 23q7 16 9 27q3 14 2 31q-2 24 -2 38q5 179 5 188q1 9 -4 17q-6 8 -6 15q5 7 4 21q-2 15 1 25q-13 33 -23 46q-24 6 -37 4q-6 1 -8 10q-3 11 -5 13q0 15 17 22q27 9 29 10q-2 -5 18 51q-7 32 -3 90q2 54 -6 84v115q0 8 5 31q4 19 4 33q-1 9 -9 46q-5 25 0 46 q-35 64 -60 82q-18 1 -18 5q-34 -4 -43 -3q-22 2 -26 21q-2 5 4 14q11 15 28 18q17 16 46 19q3 1 7 5q3 3 7 4q24 -7 78 -9q4 -5 30 -20q20 -11 25 -26z" />
<glyph unicode="k" horiz-adv-x="1181" d="M1023 1279q-40 0 -57 -2q-51 -15 -150 -113q-4 -18 -25 -42q-20 -24 -23 -43q-6 -4 -56 -71q-8 -8 -24 -38q-13 -25 -28 -33q-7 -36 -38 -80q5 -6 19 -33q11 -21 24 -28q0 1 4 -33q9 -13 24 -43q14 -29 24 -42q28 -74 37 -90q4 -20 18 -46q17 -35 20 -43q30 -73 42 -85 q59 -133 81 -175q43 -100 94 -160q-7 1 52 -19l43 6q19 -1 28 -20q0 -15 -12 -24q-3 -3 -11 -7q-7 -4 -10 -7q-4 -2 -23 -11q-14 -6 -20 -12q-48 -12 -90 4q-53 66 -51 57q-11 -2 -19 -14q-11 -17 -14 -19q-30 -3 -52 -19q-55 -1 -76 5q-35 17 -28 19q-14 33 -14 28 q-4 4 -21 10q-14 5 -17 14q1 8 -3 20q-3 12 -2 22q4 2 11 7t10 7q14 8 31 5q10 -1 17 -14t16 -14q28 -5 45 9q6 4 14 14q9 11 12 14q-3 27 -23 67q-21 39 -24 65q-32 56 -38 80q-31 42 -33 67q-27 31 -38 61q-15 16 -36 62q-21 44 -39 60q1 -3 -38 90q-8 -7 -37 -71 q-5 -2 -13 -13q-7 -9 -16 -10q-9 -19 -165 -288q-2 13 28 -174q21 -41 67 -76q7 0 27 3q14 3 24 -3q17 -26 15 -42q-85 -27 -142 -24q-65 32 -75 52q-22 -26 -62 -52q6 -2 -33 -5q1 0 -5 3q-5 3 -9 2q-1 0 -6 -3q-4 -2 -8 -2q-1 1 -7 5q-6 5 -7 5q-4 1 -12 0t-12 0 q-2 0 -6 5q-5 4 -8 4q-2 1 -9 0t-10 0q-36 16 -28 19q-3 13 -17 32t-16 34q3 36 19 47q24 2 41 -23q17 -26 34 -29q19 2 38 10q10 3 16 22q6 21 12 25q-1 18 5 85q-1 18 -10 150q-7 98 -4 166q-11 55 -28 94q-1 8 -10 11q-12 5 -14 8q-11 -3 -13 8q-2 14 -6 16q1 13 14 19 l12 4q8 3 12 5q4 7 14 17t14 16q0 -3 -5 47q11 33 10 123q17 263 14 372q-14 48 -14 47q-23 28 -43 33q-11 -2 -23 -12q-15 -14 -19 -16q-3 -28 -42 -9q3 29 29 48q6 5 23 16q15 9 23 16q17 5 104 -5q2 -6 19 -9q14 -4 14 -15q12 4 25 18q15 16 22 20q65 18 113 5 q11 -3 23 -13q14 -13 20 -15q21 -13 14 -48q-14 -7 -30 -2q-5 2 -14 6t-13 6q2 0 -66 -43q3 -15 -9 -14q-1 -36 -19 -61q3 -15 0 -34q-5 -24 -5 -37q-2 -10 2 -21q4 -12 3 -21q-16 -76 -10 -231q3 -56 5 -335q8 0 11 10q4 12 8 14q14 17 14 23q7 8 24 52q22 33 47 108 q16 16 33 52q3 5 13 26q9 16 15 26q9 16 31 52q20 33 30 52q14 35 43 82q38 62 47 78q8 4 17 23q8 18 21 20q4 24 32 60q26 34 29 62q25 28 33 52q6 2 38 38q22 3 56 22q33 17 57 20q16 1 44 -8q26 -7 46 -6q53 -44 56 -47q18 -79 19 -85q-21 -6 -52 -7z" />
<glyph unicode="l" horiz-adv-x="1005" d="M302 1404q26 19 24 14q6 2 25 8q15 4 26 6q36 3 56 -9q22 8 37 -5q0 -4 3 -12t1 -15q0 -17 -20 -22q-36 -7 -35 -6q-6 -1 -15 -9q-8 -7 -18 -5q-10 -11 -24 -35q-14 -25 -22 -35q-5 -46 -19 -79q-10 -85 -5 -210q1 -8 3 -41q2 -25 2 -38q0 -1 -3 -8q-2 -6 -2 -10l5 -94 q13 -33 23 -46q4 -5 24 -15q17 -9 18 -22q0 -19 -19 -28l-32 -14q1 -18 -9 -23q5 -93 4 -117q1 -6 10 -46q-7 -23 -4 -88q2 -67 -1 -85q15 -44 9 -125q9 -4 140 -14q45 -11 122 -15q107 -6 134 -8q5 -1 11 3q5 3 12 1q25 9 79 51q12 29 9 24q7 12 19 14q-3 20 14 37v51 q-1 0 19 5q11 9 24 2q24 -12 22 -12q-9 -90 -23 -125q6 -25 5 -37q-7 -51 -5 -70q0 10 8 -52q4 -32 -8 -46q-12 0 -41 6q-20 5 -43 -1q-29 4 -95 1q-66 -2 -100 3q-224 -14 -345 5q-35 26 -37 33q-13 -7 -33 -19q-23 -14 -32 -19q-12 2 -30 -2t-31 -2q-12 2 -32 11 q-20 10 -33 12q0 2 -18 28q-1 9 -19 23q-15 37 5 65q31 4 51 -14q-3 -25 18 -42q17 0 21 1q9 2 7 13q11 -2 17 5q8 8 11 9q-1 8 5 10q1 20 9 55q-4 33 -1 129q3 85 -8 132q4 18 0 112q-1 18 1 57q1 31 -1 45q-14 28 -23 37q-1 2 -7 1t-7 -1q-9 5 -14 28q0 12 11 20 q14 9 17 13q-1 0 28 28q2 34 1 104q0 66 3 105q3 36 5 154q1 85 -5 116q4 9 -3 21q-6 10 -1 12q0 5 -10 32q-26 35 -46 38q-14 1 -23 -10q-11 -13 -19 -14q-46 0 -51 14q-1 13 8 20q1 0 20 8q5 4 14 14q8 10 14 14q17 -2 18 9q41 7 51 14q79 -8 126 -46q-3 0 23 18z" />
<glyph unicode="m" horiz-adv-x="1399" d="M1258 1424q0 -8 3 -17q-8 -11 -30 -10q-25 0 -33 -8q-18 -5 -33 -27q-20 -31 -26 -36q-1 4 -4 -31q1 12 18 -311q9 -183 9 -180q2 -7 12 -20q9 -11 10 -21q55 -16 50 -13q2 -15 -8 -26q-13 -13 -15 -19q-13 1 -21 -12q-10 -14 -19 -15q-1 -28 4 -92q3 -54 0 -88 q13 -80 9 -253q7 -39 9 -103q8 -22 27 -45q8 1 9 -5q21 -4 49 8q27 11 41 6q2 -2 4 -8q2 -5 6 -6q-1 -23 -19 -27q-32 -3 -27 -9q-9 -8 -33 -12q-33 -4 -39 -6q-38 8 -81 32q-11 -2 -22 -12q-15 -13 -18 -15q-2 0 -32 -14q-11 0 -58 -3q-33 -3 -54 3q-9 7 -32 15 q-23 9 -31 17q-6 12 4 36q15 8 44 1q31 -8 51 -1q10 -1 16 10q7 12 15 12q5 5 12 16t11 16q7 47 -5 301v37q1 23 0 36q0 7 -4 20q-4 14 -5 20q0 4 2 7q3 4 3 7q0 4 -2 7q-3 3 -3 6q0 7 2 35q2 30 3 46q-16 51 -23 59q-2 10 -20 18q-18 7 -20 18q-6 7 -1 18q6 15 5 22 q14 11 45 23q4 18 18 27q-2 118 -18 167v126q-4 -3 -13 -5q-10 -4 -13 -5q-15 -7 -19 -17q-10 -10 -23 -28q-17 -25 -22 -31q1 1 -10 -7q-5 -4 -3 -11q-8 -3 -18 -16t-18 -15q-7 -17 -29 -41q-23 -25 -30 -41q-9 -11 -29 -38q-19 -25 -30 -38q-3 -7 -3 -14q1 -10 -1 -18 q-26 -5 -77 18q-3 5 -8 15l-9 15q-11 16 -28 20q-1 18 -16 35q-17 20 -20 33q-9 4 -24 20q-14 15 -25 20q-1 -5 -23 23q0 9 -18 22q-39 41 -45 45q1 0 -21 22q-13 13 -33 10q-13 -3 -14 -25q0 -5 1 -19v-19q1 -147 9 -230q-2 -21 -1 -48q1 -35 1 -51q2 -15 25 -24 q24 -10 29 -21q1 -12 -10 -18q-12 -6 -13 -14q-20 -24 -22 -31q-6 -51 -3 -152q5 -121 3 -173q1 -4 3 -21q1 -14 6 -19q-5 -11 -5 -54q-2 -2 2 -17q3 -14 -6 -19q15 -37 22 -50q16 -30 27 -45q28 -11 36 -18q61 5 68 -22q-3 -20 -28 -21q-36 0 -40 -2q-6 1 -81 9q0 3 -13 5 q1 -4 -27 18q-7 2 -12 10q-7 10 -11 12q-17 -12 -81 -36q-30 -11 -59 -18q-35 -9 -90 -18q-52 17 -75 37q-34 28 -37 76q-4 -5 54 4q0 -52 58 -63q19 4 33 25q19 29 26 34q7 23 13 70q7 54 9 65q-9 225 -18 365q-3 13 -16 28q-17 21 -20 26q-39 0 -54 22q0 20 14 30 q13 11 31 2q16 19 45 45q-1 22 1 77q1 53 -1 80q0 28 5 32q-2 3 -3 15q-2 9 -6 12q7 30 6 76q-2 47 3 68q-9 31 -9 27q19 136 -36 198q-9 5 -41 12q-27 5 -36 15q-1 12 12 20q14 8 15 16q97 11 167 0q-1 -6 8 -7q9 -2 10 -6q-1 -7 8 -8t10 -6q29 8 63 32q19 -2 38 5 q23 8 25 8q2 1 17 5q11 3 18 4q23 3 33 -9v-22q1 -12 -15 -15q-19 -4 -21 -8q5 2 -36 -18q0 -6 -4 -12q-5 -7 -5 -10q0 -18 45 -113q17 -16 76 -85q40 -64 77 -86q0 -10 7 -18q10 -11 11 -13q37 -35 85 -91q12 0 18 15q6 16 14 17q22 29 27 32q-3 10 3 17q6 8 6 14 q20 17 40 59q9 17 41 58q6 40 5 50q11 5 23 19q16 17 22 21q5 5 16 24q10 16 20 21q0 13 9 31t9 32q-3 15 -25 23q-25 9 -29 18q0 -1 4 31q18 12 59 8q52 -4 63 -3q3 -10 19 -17q18 -7 21 -15q38 27 72 45q57 2 77 14q16 3 31 -9q3 -7 2 -15z" />
<glyph unicode="n" horiz-adv-x="1125" d="M1043 1423q1 -9 -1 -10q-4 -18 -36 -18q-3 -4 -36 -14l-9 -13q-6 -10 -15 -34q-9 -23 -16 -33q-12 -116 -18 -179q8 -130 0 -281q7 -8 11 -28q4 -24 7 -31q2 -7 13 -12q12 -5 14 -10q18 -5 31 -18q1 -24 -19 -41q-27 -25 -30 -30q-4 -11 -5 -36q-1 -19 -8 -27 q-1 3 9 -179q4 -80 13 -183q11 -35 22 -116q6 -13 50 -49q2 -3 9 -6q8 -4 11 -6q11 -8 6 -24q3 -8 -6 -9q-10 -2 -12 -4q3 10 -17 0q-10 -1 -27 3q-15 3 -27 1q-8 10 -31 19q-24 9 -32 17q-7 -3 -15 -14q-9 -10 -16 -13q-13 1 -13 -4q-10 -2 -35 -1q-23 1 -37 -4 q-52 -4 -53 40q30 25 58 32q30 39 31 40q18 134 9 161q5 10 4 53q-11 57 -9 108q0 8 -10 16t-12 15q-7 3 -12 14q-6 14 -10 17q-19 16 -23 31q-1 4 -13 12q-9 6 -9 15q-89 115 -89 116q-14 11 -34 36q-21 26 -33 36q-7 16 -27 40q-21 24 -27 40q-11 4 -24 21q-14 16 -25 20 q-2 6 -9 17q-7 10 -9 18q-37 29 -49 54q-10 0 -17 10q-9 11 -14 12q0 9 -9 16q-10 7 -9 16q-21 16 -52 50q-35 38 -51 52q0 -13 -5 -41q-4 -28 -4 -44q0 -7 4 -21q4 -16 5 -23q1 -15 0 -68q0 -45 4 -75l9 -18l9 -18q5 -9 24 -25q18 -14 21 -29q-1 -12 -20 -18 q-21 -7 -25 -13q2 -21 -9 -22q1 -5 4 -11l3 -9q2 -9 -7 -16q7 -12 7 -25q0 -16 2 -24q4 -59 3 -161q-1 -118 0 -157q5 -179 69 -263q55 4 58 -22q1 -22 -26 -28q-36 -7 -41 -13q-16 6 -31 0q-8 1 -20 8q-10 7 -21 6q-42 34 -35 31q-8 -23 -36 -49q-36 -16 -84 -6 q-11 2 -82 24q-2 6 5 45q10 -1 49 -5q20 4 31 29q21 47 18 43q-1 37 9 44q-6 23 -6 77q1 54 -7 84q-1 37 4 49q-5 17 -7 69q-2 47 -11 65q8 58 -4 157q-3 4 -13 23q-8 14 -14 21q-57 18 -58 18q-2 7 2 12q3 6 2 11q2 12 19 16q22 6 26 10q2 1 31 36q-1 22 1 102q2 59 -5 90 q5 29 2 80q-3 52 2 86q-4 96 -11 131q-14 64 -51 97q-12 -10 -14 0q-7 -1 -21 -6q-15 -4 -21 -5q-22 -4 -29 20q2 10 15 16q23 12 21 10h58q14 -4 40 -9q29 -7 41 -10q47 -12 66 -34q9 3 54 31q16 -3 67 9q45 11 67 0q8 -18 9 -36q-9 -9 -63 -13q-31 -18 -49 -63 q0 -11 5 -29q4 -18 4 -29q37 -81 85 -125q13 -20 50 -55q36 -33 48 -57q9 -5 27 -20q15 -15 27 -20q13 -20 53 -61q35 -37 50 -64q8 -3 17 -19q8 -14 19 -17q24 -36 62 -85q12 -15 35 -38q28 -27 37 -38q3 6 -5 54q-2 8 2 16q4 9 3 15q0 -4 -9 295q0 9 -4 19q-5 11 -5 17 q-1 205 0 201q1 -7 -9 27q-1 4 -3 14q-1 10 -2 13q-4 10 -40 58q-8 2 -32 3q-22 1 -30 6q-9 11 -3 26q7 14 20 14q16 2 28 -3q14 -6 17 -6q32 4 31 4q101 -24 112 -31q15 2 31 14q20 14 27 17q11 0 60 14q35 10 56 -5q-4 -5 -3 -16z" />
<glyph unicode="o" horiz-adv-x="907" d="M341 49q-3 -2 -1 -3q1 -1 3 1q2 1 1 3q-1 1 -3 -1zM678 795q10 8 14 14q-3 12 2 22q6 12 6 18q-14 73 -20 84v28q-17 27 -20 84q-8 11 -14 35q-7 30 -10 37q-3 11 -13 35q-10 21 -11 37q-18 9 -24 32q-17 12 -28 28q-24 13 -24 16q-38 14 -40 20q-8 -3 -36 4q-5 1 -10 1 l-6 -1q-23 9 -16 12q-72 6 -132 -8q-40 -15 -36 -16q-7 -13 -32 -20q-4 -11 -15 -25q-13 -15 -17 -23q-8 -5 -18 -24q-9 -18 -18 -24q-1 -10 -14 -56q-10 -33 -6 -64q1 -5 -5 -11q-5 -5 -3 -13q-1 -19 -7 -86q-5 -54 -5 -90q3 -4 5 -18q3 -13 7 -18q10 -20 8 -40 q33 -28 32 -23q-3 -13 5 -24t7 -20q-28 -11 -48 -56q-2 -35 6 -86q9 -56 10 -82q12 -28 20 -92q30 -72 40 -112q4 -5 18 -26q11 -16 22 -22q1 -8 20 -24q2 -5 10 -14q8 -7 10 -14q8 0 20 -16q18 -5 46 -14q36 -11 46 -14q18 2 68 0q42 14 60 16q0 1 28 16q29 16 32 16 q7 27 28 36q-1 -3 2 17q2 11 10 11q4 1 3 16q0 14 9 12q6 22 16 44q8 20 8 16q7 32 21 90q16 62 23 90q-2 28 1 72q3 48 3 72q-10 24 -16 48q-14 7 -12 20q-9 0 -20 16q-24 -3 -24 16q-2 11 7 18q11 9 13 13q3 5 14 14zM831 698q-14 -121 -8 -152q-13 -54 -4 -84 q-4 -3 -6 -15q-3 -14 -5 -17q1 -37 -10 -87q-13 -58 -14 -81q-7 -8 -15 -26q-8 -19 -13 -26q0 1 -12 -20q-1 -1 0 -4v-4q-1 -1 -5 0h-3q-1 -2 0 -6q1 -5 0 -6q-4 -6 -14 -14q-11 -10 -14 -14q-3 -3 -6 -8q-4 -5 -6 -8q-20 -23 -20 -24q-17 -24 -16 -24q-9 -5 -35 -26 q-21 -16 -37 -22q-15 -9 -43 -17q-36 -11 -45 -15q-50 -1 -56 -4q-6 1 -50 7q-30 4 -46 9q-15 3 -38 16q-24 13 -38 16q-32 28 -44 32q-23 26 -40 32q-2 3 -9 13q-6 7 -7 15q-3 2 -13 7q-8 4 -11 9q-3 30 -4 28q-8 6 -19 23q-11 19 -17 25v32q-4 8 -13 39q-7 25 -15 37 q-10 83 -28 124q-2 7 1 14q4 8 3 14q-18 37 -8 68q-13 48 -8 64q-1 5 -8 11q-8 6 -8 13q-9 8 -12 24q-5 3 -12 9q-8 8 -12 11q-9 1 -24 20q1 0 5 13q2 8 11 7q13 14 20 16q9 39 20 103q1 19 -4 48q-7 61 -4 56q-1 -1 12 80q20 72 16 128q1 2 24 68q22 52 24 64q10 2 20 15 q10 14 16 17q-4 -4 12 20v4q-1 3 0 4q-1 -1 8 2q6 2 4 10q32 19 44 36q16 2 72 28q20 0 46 8q33 10 42 12q3 0 8 2q3 2 4 -2q55 -2 120 -16q43 -9 100 -28q8 -3 27 -15q16 -10 29 -13q3 -13 20 -28q6 -1 13 -10t15 -10q2 -11 12 -22q14 -15 16 -18q22 -51 24 -52v-24 q26 -52 28 -104q3 -5 7 -20q5 -14 9 -20q-4 -28 12 -80q-3 -59 23 -188q4 -11 20 -22q17 -11 20 -22q-1 -21 -28 -55z" />
<glyph unicode="p" horiz-adv-x="865" d="M469 704q0 5 12 4q5 1 14 11q8 7 19 6q1 7 16 10t17 10q14 4 31 20q17 17 30 21q8 14 17 40q12 33 16 42q3 11 11 46q7 29 13 44q-5 16 1 33q8 22 8 33q-1 31 -13 74q-10 40 -28 69q-9 30 -35 63q-39 49 -43 56q-38 14 -53 37q-113 38 -177 33q-8 -3 -8 -13q-2 0 -24 -16 q-31 -126 -25 -152q-3 -6 -5 -19q-2 -17 -3 -22q4 -53 5 -168q0 -124 3 -176q13 -65 8 -82q19 -5 52 -9q45 -6 55 -7q47 12 86 12zM284 593q-1 -22 5 -66q5 -41 4 -56q0 -6 4 -15q3 -8 4 -14v-37q-1 -8 3 -17q5 -10 5 -16q-3 -7 -4 -27q0 -19 -4 -26q11 -41 8 -78 q3 -8 13 -59q7 -34 20 -56q-1 -27 33 -73q5 -11 28 -17q4 -8 0 -37q-17 -2 -48 0q-33 3 -54 0q-5 4 -14 8q-12 5 -15 7q-16 9 -16 26q-10 1 -15 -10t-14 -10q-2 -4 -12 -11q-8 -6 -9 -14q-27 -2 -32 -16q-6 4 -30 0q-23 -3 -32 4q-7 26 0 33q0 6 10 8q11 2 11 8 q16 26 33 127q-1 0 -5 29q4 9 1 27q-2 17 4 26q2 6 -3 9q-6 3 -6 7v33q4 44 4 41q0 6 -8 41q-1 35 1 114q1 70 -1 107q-4 97 -4 99q-4 9 -24 14q-21 6 -25 15q-2 12 16 41q8 1 15 12q6 11 14 12q1 -1 -4 49q-10 38 -12 118q-3 79 -13 116q1 4 -24 192q-4 11 -15 29 q-11 17 -14 29q2 -1 -29 20q-28 -4 -41 2q-14 7 -16 31q23 17 37 4q6 0 14 7q7 6 15 6q14 -8 49 -13q3 3 17 -2q16 -7 24 -6q20 -16 49 -25q-1 0 29 21q8 1 24 20q26 7 33 21q17 1 37 16q49 9 156 13q20 -1 48 -8q34 -7 46 -9q18 -16 45 -20q44 -41 41 -37q13 -3 30 -14 q18 -12 27 -15q5 -11 23 -26q18 -14 22 -27q12 -5 22 -27q11 -22 23 -26q4 -18 29 -78q-1 -8 8 -49q-6 -51 4 -78q-7 -36 -16 -136q-19 -24 -16 -49q-9 -14 -21 -42q-14 -33 -20 -44q-17 -12 -29 -28q-29 -36 -29 -29q-16 -3 -38 -18t-35 -19q-12 -7 -37 -17 q-27 -10 -37 -16q-47 -7 -197 8q-8 10 -34 15q-28 6 -36 14q-14 -14 0 -66z" />
<glyph unicode="q" horiz-adv-x="963" d="M724 862q5 16 6 21q2 19 -5 47q-6 27 -3 39q-32 66 -58 139q-4 6 -16 35q-10 21 -19 31q-4 16 -16 35q-15 22 -19 31q-5 5 -26 21q-17 12 -25 22q-24 6 -42 23q-14 1 -34 8l-24 8q-12 0 -90 -8q-28 -17 -50 -19q-3 -9 -16 -17q-15 -9 -19 -14q-31 -29 -35 -32 q-5 -14 -21 -35q-17 -22 -22 -34q-2 -12 -11 -28q-9 -20 -12 -27q-5 -44 -15 -58q-20 -171 -20 -178q10 -57 27 -109q5 -1 10 -10q4 -8 10 -9q18 -13 19 -20q-6 -15 -28 -40q-20 -23 -26 -41q8 -107 23 -179q-1 -47 16 -89q3 -47 35 -132q10 -12 31 -23q9 -30 7 -27 q40 -44 39 -43q5 -2 12 -7q8 -6 11 -8q5 -3 12 -10q8 -7 12 -10q75 -22 124 -31q16 -2 34 2q24 6 32 6q48 26 54 27q7 3 28 15q17 10 30 12q1 4 20 31q10 38 15 31q-16 16 -40 24q-29 11 -45 0l-47 4q0 -1 0 25q0 16 8 17q5 2 4 8q86 8 171 -16q11 19 19 61q10 48 15 64 q8 56 7 148q-1 108 1 139q-3 11 -11 33q-9 21 -12 33q-7 -1 -13 6q-5 7 -14 5q1 9 -9 12q-11 4 -11 12q0 4 20 54q-3 13 2 25zM916 765q-2 -2 -6 -5t-6 -5t-7 -14q-4 -9 -8 -13q-5 -17 -7 -67q-2 -45 -9 -65q5 -42 4 -98q-2 -65 0 -96q-13 -58 -12 -77q-9 -15 -19 -86 q-9 -10 -20 -36q-10 -28 -19 -37q-5 -69 8 -109q2 -5 11 -10q10 -5 12 -9q12 -4 31 -1t27 1q0 -14 5 -30q5 -13 3 -21q-14 -2 -39 -9q-24 -8 -38 -10q-23 12 -74 19q-38 46 -39 55q-45 -21 -70 -39q-6 -2 -30 -7q-19 -4 -28 -9q-134 -4 -167 0q5 -1 -132 35q-44 36 -77 51 q-30 14 -24 15q-1 10 -12 19q-12 10 -15 16q-13 18 -31 31l-19 58q-7 7 -12 27q-5 21 -11 28q1 20 -8 64q-8 39 -4 60q-13 41 -23 155q-4 8 -8 30q-3 22 -8 32q5 10 2 30q-4 24 -2 36q-9 11 -4 23q-1 9 -14 13q-14 5 -17 10q-6 4 -12 13q-9 12 -11 15q1 -5 19 19q6 2 11 9 q7 9 9 10q-2 23 2 75q4 43 -2 73q7 3 7 19q1 19 4 23q0 9 3 23q3 13 1 24q19 48 20 89q5 5 13 22q6 16 14 21q5 21 4 31q6 6 16 17q11 13 15 18q2 9 11 19q10 12 12 20q6 4 14 17q7 13 13 18q3 5 15 16q10 10 12 18q8 0 14 5q7 6 10 7q2 1 9 6q5 4 10 6q27 10 39 27 q7 1 24 9q14 7 26 6q5 4 25 7q17 3 22 9q44 4 66 8q3 -1 6 1t5 3q1 -2 7 -4q4 -1 5 -4q20 6 51 -2q38 -10 58 -10q56 -25 66 -27q16 -19 31 -19q55 -58 50 -55q4 -13 35 -58q18 -32 39 -54q0 -1 35 -86q-2 -29 11 -62q1 -13 6 -46q5 -35 6 -54q2 -19 11 -49q10 -32 12 -48 q7 -17 27 -31l15 -13q9 -7 9 -18q2 -12 -4 -18z" />
<glyph unicode="r" horiz-adv-x="991" d="M394 721q1 1 76 24q12 12 36 29q27 19 37 27q18 46 28 68v36q-1 8 6 12q7 5 6 12q2 21 8 33q4 42 -4 116q4 5 -1 13q-6 10 -3 19q-5 11 -4 44q-8 6 -8 24q-28 28 -28 56q-10 -1 -20 12l-25 32q-18 7 -42 28q-27 22 -42 28q-3 0 -80 4q-24 -13 -68 -20q-8 -29 -28 -52 q0 -17 -5 -41q-6 -28 -7 -39q-3 -11 3 -19q6 -10 5 -17q-10 -40 -8 -124q2 -102 0 -129q4 -17 6 -57q2 -45 6 -67q-8 -47 -4 -56q10 -6 88 -8q25 10 72 12zM668 568q27 -86 35 -116q3 -13 17 -57q11 -34 15 -59q4 -12 19 -55q12 -33 17 -57q36 -72 40 -88q44 -71 40 -65 q30 -10 48 -32q4 -1 15 -3q9 -2 14 -4q15 -6 12 -25q-2 -15 -24 -16q-27 -2 -29 -4q-33 12 -60 4q0 2 -16 4q-7 2 -36 24q-28 -12 -52 -28q-36 -6 -32 -4q-9 2 -29 6q-14 2 -27 6q-5 2 -15 4l-16 4q-17 5 -21 16q1 9 28 28q48 5 48 4q11 16 8 36q-2 4 -2 15q0 14 -2 22 q-1 16 -10 40q-8 26 -10 40q-7 30 -23 75q-20 54 -25 73q-9 23 -26 74q-16 50 -26 74q-9 30 -29 70q-26 53 -32 67q-24 1 -60 -1q-41 -4 -60 -3q-17 1 -61 11q-36 9 -63 9q-3 -55 -2 -133q1 -81 -2 -140q2 -9 -3 -15q-5 -8 -5 -13q2 -21 8 -82q5 -50 9 -78q13 -85 47 -133 q36 -19 28 -20q14 -22 12 -36q1 -8 -6 -11q-3 -2 -7 -3q-6 -1 -7 -2q-3 -1 -8 0h-4q-4 -1 -10 -4q-5 -3 -10 -4q-14 5 -34 7q-21 2 -34 5q-10 4 -21 15q-14 14 -19 17q-41 -52 -157 -36q-3 5 -1 12q2 5 -3 8q0 10 11 13q15 5 17 7q10 -1 18 7q7 8 18 5q-2 -3 20 61 q4 51 3 139q0 98 1 141q5 97 0 213q-2 12 -15 25q-14 14 -17 23q-24 8 -24 4q-1 2 -10 3q-8 1 -6 9q-5 27 32 28q3 11 17 21q16 11 19 19q1 16 4 16q-12 375 -16 421q-7 93 -24 140q-3 8 -14 16q-14 9 -18 12q-37 2 -40 2q-19 5 -16 27q1 6 15 8q13 2 17 -4q6 1 16 4 q11 3 16 4q47 -9 48 -8q20 -14 33 -25q6 -2 15 -12q8 -10 17 -12q-7 7 24 12q2 3 12 10q9 5 12 10q6 5 27 15q17 9 25 18q14 -1 30 6q18 8 26 10q6 4 25 9q17 5 23 11q30 -2 56 8q29 1 70 -9q51 -13 71 -15q12 -7 49 -32q29 -20 51 -29q3 -5 18 -19q12 -12 14 -25 q8 -4 20 -16q22 -19 16 -20q65 -221 68 -240q-1 -9 -6 -23q-5 -16 -6 -21l-4 -93q-1 -6 -12 -28q-9 -16 -4 -28q-8 -5 -15 -19q-9 -17 -13 -21q-2 -3 -13 -19q-9 -11 -11 -21q-5 -2 -32 -32q-20 -13 -32 -32q10 -46 33 -117z" />
<glyph unicode="s" horiz-adv-x="836" d="M684 1056q-4 1 -37 22q-10 -9 -33 -19q-26 -12 -35 -18q-20 5 -30 4q-2 6 -10 13q-10 8 -12 13q1 13 13 22q3 2 10 8q7 4 11 7q-1 7 15 34q1 16 2 35q1 23 1 32q1 -2 -15 30q2 -3 -3 16q-3 10 -12 11q2 6 -1 12q-2 7 -2 10q-8 11 -24 27q-19 18 -25 25q-27 5 -60 23 q-15 3 -30 0q-10 3 -34 7q-12 -3 -33 -13q-22 -9 -34 -13q-5 -2 -17 -15q-10 -9 -21 -11q-6 -12 -22 -37q-16 -23 -23 -38q3 -23 -11 -56q-5 -74 -4 -68q1 -4 3 -15q3 -10 1 -18q0 -8 6 -20q5 -11 2 -18q9 -14 15 -37q30 -56 33 -68q24 -31 98 -93q37 -31 48 -45 q34 -19 57 -38q27 -3 26 -3q3 -7 15 -17q12 -9 15 -17q12 -2 34 -23q8 -1 15 -10q8 -10 15 -12q9 -9 27 -25q21 -16 29 -24q32 -43 48 -60q3 -7 10 -17q7 -11 9 -16q6 -2 12 -15q5 -11 14 -12q7 -15 24 -62q14 -40 25 -61q0 -9 15 -94q0 -13 -2 -37q-1 -23 -2 -41 q-3 -17 -15 -45t-15 -45q-30 -21 -37 -42q-25 -13 -38 -33q-14 -1 -28 -11q-17 -13 -24 -16q-20 -5 -30 -3q-13 -8 -47 -17q-33 -9 -47 -17q-75 -6 -93 -11q-45 14 -53 11q-28 17 -56 8q-37 17 -71 22q-28 22 -56 26q-1 4 -23 23q-20 18 -22 18q0 3 -11 23q-5 7 -16 31 q-10 21 -18 33q-11 70 -15 119q-14 42 -23 72q-5 4 -30 30q-7 -1 -23 4q-12 4 -22 -1q-6 47 -7 45q14 5 34 7q25 2 37 4q7 0 30 -7q18 -5 34 -4q2 -6 14 -14q10 -7 12 -16q47 22 59 25q38 11 65 -6q-8 -23 -4 -22q-1 -9 -12 -11q2 0 -22 -1q-41 -49 -37 -142q3 -12 4 -28 t3 -24q3 -11 12 -37q8 -23 11 -38q11 -14 39 -29q34 -17 43 -24q98 -7 112 -7q49 19 64 22q7 3 26 16q15 10 27 14q14 22 26 26q7 31 30 57q-2 10 3 20q7 13 8 17q5 -5 11 26q-1 13 8 34q1 16 5 53q2 25 2 48q-23 79 -37 116q-4 7 -14 17q-12 11 -16 17q-1 0 -1 8q-1 5 -7 3 q-2 11 -15 24t-15 25q-26 23 -26 26q-10 4 -26 26q-13 4 -32 17q-20 13 -32 17q-5 10 -26 22t-26 23q-14 2 -34 15q-19 13 -34 15q-8 18 -41 34q-19 9 -26 7q-23 23 -64 49q-6 11 -45 41q-17 32 -22 37q-15 27 -26 30q-2 31 0 27q-8 10 -16 32q-11 28 -14 35q20 134 15 124 v33q16 21 22 53q2 4 17 19q10 11 9 26q18 5 19 7q1 9 15 8q2 6 11 11q9 6 12 11q8 1 28 12q16 10 24 7q12 7 11 15q7 -2 30 4q29 15 79 33q56 3 60 4q42 -12 67 -11q56 -26 71 -26q4 -7 20 -13q15 -6 18 -14h22q29 -30 38 -33q9 -23 33 -38q13 -47 38 -86l15 -67 q15 -21 15 -23q1 -1 27 -18q18 -12 18 -27q0 2 -11 -26q-45 5 -68 4z" />
<glyph unicode="t" horiz-adv-x="1033" d="M969 1336q-7 -70 -2 -92q-2 -7 -5 -26q-3 -16 -6 -25q-9 -26 -31 -30q-1 2 -15 4q-12 10 -8 53q-2 9 -8 24t-8 23q-1 6 -12 14q-11 7 -11 16q-10 1 -30 16q-39 3 -108 1q-74 -3 -104 -1q-9 -17 -12 -89q-4 -17 -11 -88q-4 -12 -3 -43q1 -29 -5 -46q4 -24 0 -146l2 -3 t2 -5q-1 -1 -2 -3l-2 -1q0 -1 2 -3t2 -4q-5 -20 -4 -112q3 -18 25 -33q24 -18 29 -29q-7 -29 -12 -31q-5 -1 -10 -8q-7 -9 -9 -11q-11 -52 -15 -61q-1 -20 0 -72q2 -43 0 -67q-1 -10 7 -270q2 -9 11 -35q7 -22 9 -38q2 -4 14 -20q8 -13 13 -22q30 -36 30 -39q23 0 23 -42 q-16 -12 -48 -10q-44 3 -52 2q-29 16 -46 16q-2 6 -19 15q-4 0 -8 8q-3 6 -11 4q-9 1 -15 -7q-6 -9 -12 -9q-2 -5 -12 -10q-9 -4 -11 -9q-6 -1 -131 8q-6 24 -16 27q1 1 23 27q6 1 15 10q9 8 16 9q3 8 14 21q10 13 13 21q5 5 10 23q6 15 13 20q16 130 16 150q1 15 7 31 q-3 28 -2 76q3 65 2 85q-1 44 -15 158q-9 21 -35 70q5 10 24 51q15 31 22 53q-4 121 -7 134q4 49 4 58q-1 17 -9 70q-6 44 -3 73q-5 11 -7 37q-2 30 -4 40q1 9 -6 15q-8 6 -6 15q-13 36 -12 31q-17 6 -88 -4q-60 15 -154 -15q-10 -6 -25 -21q-16 -16 -25 -21q-4 -15 -23 -47 q-8 -44 -4 -42q-7 -1 -16 2q-8 3 -15 2q-13 13 -14 31v20q0 14 -1 26q-10 42 -8 58q-1 6 -7 20q-4 12 -5 22q0 8 -8 18t-7 20q3 4 6 14q2 10 5 13q6 0 13 5q7 4 14 3q-2 1 10 -7q7 -4 10 3q19 -4 63 -1q43 3 68 -3q100 18 365 16q136 -1 251 0q-4 0 32 -1q28 0 45 1 q3 0 25 3q15 2 25 1q6 -2 9 2q3 5 6 5q6 2 10 -1q5 -3 9 -2q11 -26 6 -89z" />
<glyph unicode="u" horiz-adv-x="998" d="M337 1381q-30 -21 -45 -64q-2 -1 -38 -72q-1 -34 6 -90q7 -55 5 -91q6 -39 11 -159q4 -109 16 -162q11 -18 37 -34q0 -2 -37 -72q-2 -59 8 -186q8 -123 7 -173q2 -8 10 -37q7 -23 9 -39q5 -13 21 -35q15 -23 20 -36q8 -4 12 -12q18 -20 18 -15q17 -2 42 -19q33 -6 45 -15 h61q44 7 113 46q5 4 17 24q10 16 21 21q23 90 26 98q1 16 3 45q2 24 1 46q-3 9 1 18q3 9 -1 20q2 0 0 16q-1 18 4 21q-4 15 -4 125q0 58 0 57q-4 5 -4 15q0 -3 -15 15q-2 16 -11 19q3 12 -3 19q-8 10 -8 15q2 8 12 14q11 8 14 12q2 24 15 65q-1 46 -1 107q1 88 1 112 q0 21 -22 196q-2 6 -11 27q-7 17 -8 30q-3 7 -12 18t-11 20q-7 6 -31 25q-20 16 -29 28q-36 1 -57 22q1 14 15 21q4 2 13 5q10 3 13 5q14 0 52 -3q33 -3 50 -1q5 -8 28 -13q21 -4 25 -14q9 4 23 15q14 12 23 16q6 -1 18 2q10 3 20 1q6 0 11 6q7 5 11 6q14 0 51 7q27 4 47 0 q8 -7 8 -24q0 -19 -11 -21q-12 -13 -38 -27q-9 -7 -21 -28q-12 -20 -21 -28q5 -15 -11 -57q-8 -87 4 -348q4 -94 19 -166q4 -9 21 -18q14 -7 16 -23q4 -7 -3 -19q-7 -11 -15 -15q-3 -24 -16 -42q2 -32 -3 -53q0 -23 3 -26q-9 -36 -3 -87q1 -12 0 -46q-1 -27 3 -45 q-7 -11 -8 -33q-1 -24 -7 -35q2 -17 -6 -39q-7 -23 -5 -40q-21 -34 -15 -46q-29 -33 -38 -53q-1 0 -15 -11q-2 -1 -8 -6q-5 -3 -7 -5l-4 -4l-4 -4l-3 -2q-3 -1 -4 -2q-2 -1 -6 -5q-4 -5 -6 -6q-1 -1 -6 -2q-3 0 -5 -2q-1 0 -2 -4q-1 -3 -2 -3q-1 -1 -5 0h-6t-6 -5 q-6 -5 -9 -7q-16 -9 -27 -7q-5 -1 -10 -7q-5 -7 -9 -8q-35 -5 -45 -15q-10 1 -22 -3q-16 -4 -19 -5q-49 -1 -65 8q-7 -1 -17 -4q-12 -3 -17 -4q-2 2 -68 11q-7 2 -41 10q-25 7 -42 9q-11 14 -26 15q0 1 -11 13q-6 7 -16 6q1 10 -10 13q-15 6 -16 6q-3 10 -16 24 q-12 14 -14 25q-10 4 -17 22q-6 19 -14 24q5 9 -2 25q-9 22 -9 28q-2 7 -5 29q-2 19 -6 27q5 25 -4 87q6 11 5 30q-1 24 2 34q-8 52 -11 57q2 18 -4 132q-3 7 -9 19q-7 13 -10 19q-4 3 -27 10q-18 6 -22 17q5 19 42 26l15 61q-1 15 -2 134q-1 81 -9 134q-5 156 -15 177 q0 12 -19 76q-2 3 -9 7q-6 3 -7 8q2 7 -6 9t-9 6q-54 -9 -71 15q-2 11 7 20t8 18q26 0 41 19q4 2 20 9q12 5 18 10q30 7 30 8q6 -3 23 -6q17 -2 23 -6q11 2 20 -6q11 -8 17 -9q5 2 38 23q8 2 121 15q18 -2 19 -27q0 10 -34 -19z" />
<glyph unicode="v" horiz-adv-x="1167" d="M1102 1393q-21 -10 -41 -45q-24 -38 -37 -49q-12 -42 -26 -52q-4 -28 -34 -75q-5 -34 -28 -104q-20 -63 -24 -106q-20 -70 -23 -104q-17 -36 -30 -109q1 -12 16 -23q16 -11 18 -22q0 -8 -15 -19q-1 -2 -9 -1q-9 1 -14 -2q-27 -27 -63 -150q-10 -21 -27 -78 q-16 -51 -29 -76q-6 -31 -26 -81q-21 -52 -27 -80q-5 -12 -27 -77q-16 -48 -33 -72q1 -1 0 -12q-1 -7 4 -7q-15 -11 -22 -56q-34 -10 -56 -4q-2 0 -4 4l-4 4q-1 0 -6 -1q-4 0 -5 1q-1 0 -2 4q-1 3 -2 3h-4h-3q-2 2 -2 6q-1 4 -2 5q-1 2 -6 2q-4 1 -5 2q-14 15 -12 15 q2 14 -4 29q-7 17 -7 27q-26 32 -19 30q3 7 3 14q-1 6 1 12q-36 143 -37 154q-4 5 -9 21q-4 15 -10 20q-2 26 -15 71q-13 43 -15 71q-5 9 -9 34t-10 34q0 12 -8 34q-7 20 -7 37q0 1 -2 3q-1 2 -1 4q-2 5 -6 10q-4 7 -6 9q-5 11 -22 19q0 6 -11 7q-12 1 -11 8q1 10 14 45 q-2 31 4 48q-15 56 -15 71q-9 17 -20 61q-10 42 -21 59q-2 51 -30 112q2 7 -2 18q-2 8 2 12q-20 29 -26 83q-14 28 -19 41q-5 3 -9 19q-3 15 -10 18q0 10 -22 34q-2 8 -12 16q-11 9 -14 14q-42 -8 -56 -4q-19 36 0 53q0 8 15 9q16 1 18 5q6 3 18 5q16 2 20 3q20 -1 49 -6 q27 -6 48 -5q9 0 20 8t21 7q5 4 21 7q15 3 20 8q23 0 27 3q7 -1 32 -4q21 -3 32 -6q33 -10 37 -38q-3 -13 -34 -23q-7 -11 -19 -18q-1 -3 -37 -45q-1 -10 -5 -49q-3 -29 -3 -49q4 -17 4 -86q9 -48 30 -144q20 -93 30 -148q8 -12 17 -43q9 -30 17 -43q2 -7 12 -14 q11 -7 14 -12q15 2 30 -22q2 -11 -5 -14q-18 -8 -14 -5q0 -6 -8 -11q-7 -5 -7 -12q6 -37 22 -88q23 -67 27 -84q5 -16 14 -39q13 -33 16 -39q9 -50 30 -79q-8 -24 11 -60q6 6 10 26t9 27q5 19 20 75q13 44 21 78q6 7 10 25q6 22 9 27q0 11 8 26q7 15 7 27l33 101 q-9 19 -30 19q-6 38 -11 30q2 12 23 16q25 4 29 10q6 1 12 11q5 10 11 11q3 11 27 84q17 50 22 88q10 16 19 49q12 45 14 52q7 12 17 51q9 33 21 47q-1 41 26 86q0 20 19 67q6 64 -12 90q-17 4 -26 11q-8 -2 -24 -7q-15 -6 -25 -8q1 0 -14 12q-9 7 -8 18q1 10 16 14 q16 5 18 12q-4 0 120 0q7 0 15 -8q8 -9 14 -10q10 1 20 8q13 9 18 10q14 1 15 4l83 6q42 3 40 -40q-7 -11 -45 -3z" />
<glyph unicode="w" horiz-adv-x="1504" d="M1400 1420q10 -5 32 -8q25 -3 34 -6q-2 -7 8 -8q2 -12 -4 -35q-12 -6 -57 -9q-9 -5 -23 -24q-13 -18 -24 -23q2 -16 -9 -18q0 -8 -5 -27q-4 -16 -4 -29q-10 -18 -26 -91q-26 -54 -30 -83q-11 -18 -13 -43q3 -3 -2 -16q-7 -17 -7 -23q-1 -16 -10 -47q-8 -27 -7 -49 q-12 -27 -20 -77q-9 -55 -15 -75q1 -10 7 -21q9 -15 10 -18q-3 -13 -34 -26q-16 -60 -13 -56q-11 -54 -9 -48q-20 -82 -22 -109q-33 -74 -61 -243q-19 -29 -21 -82q-1 -2 -35 -100q-5 -6 -17 -7q-13 -1 -13 -2q-4 -3 -19 -5q-14 -1 -16 -8q-13 4 -33 5t-28 4q-11 21 -26 34 q-6 30 -24 70q-24 54 -28 65l-15 30q-10 21 -15 31q-13 35 -35 56q-5 22 -25 49q-21 31 -27 47q-7 -4 -14 -23q-7 -17 -17 -21q-2 -9 -12 -22q-11 -12 -14 -21q-37 -62 -43 -96q-6 -1 -11 -11q-4 -9 -11 -10q4 -7 -3 -22q-9 -19 -10 -26q-1 -5 -10 -25q-6 -15 -7 -27 q3 2 -22 -48q-3 -6 -9 -52q-30 -21 -47 -26q-17 10 -61 15q-40 4 -57 20q0 12 5 52q-11 34 -9 30q0 5 2 21q1 8 -6 14v43q-4 12 -9 35q-5 25 -9 35q0 14 -6 37t-7 37q-10 23 -13 65q-10 37 -25 124q-15 84 -27 123q-3 11 -24 18q-20 7 -24 17q0 14 15 25t16 23q0 15 -9 39 q-5 84 -26 152q0 -1 4 17q-7 17 -19 72q-9 48 -24 67v26q-11 21 -26 70q-15 48 -26 69q-4 7 -18 26q-12 15 -17 26q-32 18 -65 9q0 2 -6 9q-5 5 -3 13q-6 23 -8 17q-1 7 11 11q10 3 6 15q16 -1 28 3q11 4 24 1q7 -1 11 5t11 4q68 6 113 -26q10 9 28 26q20 19 28 26 q14 -2 13 9q12 -2 39 13q21 -2 39 4q14 -4 61 -6q36 -1 52 -16q-1 -8 2 -19q1 -8 -2 -15q-25 -9 -48 -9q1 0 -11 -9q-5 -5 -15 0q-6 -2 -16 -14q-8 -11 -18 -12q2 -14 -13 -21q-14 -100 -13 -105q19 -86 30 -230q17 -74 17 -126q34 -186 48 -295q5 -15 31 -143 q25 -73 34 -135q22 5 22 35q18 42 17 39q4 7 16 41q9 26 19 37q6 19 3 52q-4 37 -3 44q-7 29 -13 26q-2 9 -19 24q-14 13 -11 32q8 11 39 9q31 29 73 32q45 3 74 -28q10 3 21 12q13 11 18 14q19 4 40 22q69 4 99 -9q1 -7 9 -23q6 -11 0 -24q-8 -6 -30 -8q-20 -1 -31 -10 q-8 -3 -12 -20q-4 -19 -9 -23q6 -10 13 -41q7 -28 17 -37q2 -16 15 -37q13 -22 15 -37q19 -16 36 -56q20 -48 29 -61q13 25 14 65q15 19 17 60q11 22 23 64q14 50 20 67q28 116 39 134q-2 12 -18 23q-17 12 -21 21q0 7 8 14q8 6 5 16q4 5 14 8q14 4 17 5q8 14 21 22 q7 54 13 61q3 54 13 73q1 30 0 35q11 23 18 70q9 59 13 73q2 20 15 72q11 43 11 76q2 8 6 26t7 26q-10 35 -22 52q-8 -2 -13 3q-6 6 -8 6q-8 -2 -21 -8l-20 -8q-25 -9 -46 -1q0 9 -13 17q-1 -2 13 56q34 19 43 18q7 3 31 22q8 -1 34 8q62 -6 70 -4q4 -4 21 -14q14 -8 18 -17 q34 25 134 27z" />
<glyph unicode="x" horiz-adv-x="886" d="M375 1410q-1 11 -34 -21q1 -15 -17 -13q-8 -29 13 -182q33 -82 50 -161q11 -19 26 -80q7 -14 14 -39q9 -35 11 -42q0 -1 60 153q3 15 12 40q10 26 13 40q7 9 16 35q8 24 18 33q2 25 12 57q15 44 17 53q-1 19 -21 76q-6 2 -15 2q-11 1 -14 1q-14 2 -22 14q-7 13 3 25 q13 15 14 22q17 2 56 -1q43 -5 63 -3q30 -8 38 -13q6 3 26 10q17 5 25 11q26 0 30 4h33q20 1 31 -1q34 -4 37 -28q-1 -16 -17 -25q-22 -13 -25 -18q-6 0 -13 -8q-6 -8 -13 -9q-1 -5 -9 -11t-7 -14q-19 -11 -41 -44q-23 -34 -40 -45q1 -15 -9 -37q-10 -21 -8 -39 q-43 -62 -46 -106q-1 1 -13 -21q-3 -5 -5 -13q-2 -10 -4 -13q-1 -3 -6 -10t-6 -11q-1 -2 0 -8t0 -9l-4 -4q-4 -2 -5 -4q-33 -81 -42 -93q-5 -30 -23 -75q-19 -49 -24 -74q5 -16 24 -74q14 -45 23 -74q4 -13 25 -70q16 -43 21 -74q8 -14 18 -44q10 -32 16 -45q10 -14 21 -41 q13 -35 17 -44q48 -85 43 -80q1 -3 51 -72q9 -3 47 -21q28 -13 50 -17q-2 -10 4 -21q5 -9 0 -17q-14 -7 -152 -21q-1 0 -38 16q-83 -12 -81 -12q-43 -12 -76 -9q-1 4 -9 19q-5 11 -4 24q6 3 19 8t19 9q5 6 17 11q13 6 17 10q2 13 -1 30q-3 21 -3 29q-1 6 -11 23q-7 14 -6 28 q-4 7 -11 21q-7 16 -10 21q-4 16 -20 44q-14 27 -18 45q-8 15 -20 44q-13 33 -18 45q-5 7 -9 23q-4 17 -8 24q-5 4 -10 22q-5 16 -11 20q-10 -12 -23 -45q-13 -32 -24 -44q-4 10 -13 -42q-2 -10 0 -9q-17 -29 -21 -55q-7 -12 -21 -57q-12 -37 -26 -53q-17 -114 -16 -114 q0 -5 6 -12t6 -14q5 -3 25 -5q17 -1 22 -7q5 -15 4 -43q-2 -2 -12 -4q-9 -2 -9 -8q-10 -2 -20 6q-9 7 -18 6q-11 2 -25 -1q-15 -3 -22 -3q-4 0 -11 3t-14 1q-46 21 -55 21q-16 1 -43 -7q-31 -9 -42 -9q-9 -3 -21 8q-37 -3 -47 13q-4 5 -2 14t-2 15q12 11 21 9q8 13 17 13 q8 1 18 10q9 9 16 11q11 7 32 25q20 17 32 26q3 18 19 48q16 28 19 49q8 4 14 21q7 17 15 21q0 11 9 25t8 26q10 16 22 48q14 37 21 50q6 20 20 49q18 38 22 48q33 99 34 106q9 2 21 34q2 -7 -34 97q-3 20 -16 49q-14 31 -18 49q-7 5 -10 23q-4 22 -7 27t-17 47 q-31 82 -34 97q-3 6 -15 34q-8 21 -18 30q-9 67 -34 93q-1 35 -21 72q-26 49 -30 64q-57 8 -68 29q20 66 165 43q112 49 170 17v-26z" />
<glyph unicode="y" horiz-adv-x="1033" d="M541 343q-3 -2 -1 -4q1 -1 3 1q3 2 1 4q-1 1 -3 -1zM474 1348q5 -1 -9 7q-12 6 -21 1q-6 -1 -13 -8q-7 -8 -13 -9q-24 -29 -26 -82q5 -39 78 -239q2 -12 10 -29q9 -19 11 -27q0 -7 13 -26q3 -2 5 -15q1 -11 8 -11q16 -60 44 -113q10 21 22 66q13 50 21 69q5 27 17 70 q14 50 18 68q-2 41 17 83q-1 11 9 60q3 103 -35 152q-58 4 -69 13q-2 8 2 17q4 10 2 18q12 6 143 34q13 -7 45 -12q27 -5 38 -18q11 10 13 0q45 12 112 17q7 -2 20 -4q15 -2 20 -3q23 -6 30 -19q-2 -37 -48 -39q-12 -14 -35 -26q-3 -7 -28 -48q-17 -28 -19 -56q9 8 -44 -104 q-2 -22 -16 -55q-15 -34 -18 -53q-8 -6 -13 -25q-5 -21 -9 -27q-7 -5 -11 -24t-11 -24q-2 -18 -15 -57q-11 -33 -11 -60q-1 -5 3 -10q3 -5 1 -12q3 -9 17 -27q12 -16 14 -29q-3 -12 -17 -20q-23 -15 -22 -15q-57 -65 -61 -69q-1 -11 -11 -37q-8 -21 -6 -41q-13 -23 -27 -75 q-15 -56 -25 -77q-3 -12 -26 -73q-9 -44 -31 -70v-26q3 2 -34 -56q-3 -13 -14 -29q-13 -19 -17 -27q-121 -111 -199 -130q-156 -6 -217 52q-2 10 5 15l6 3q5 2 7 3q-3 14 13 22q16 1 32 -9q18 -12 28 -13q59 2 87 9q7 3 21 11t22 11q43 33 78 91q31 57 31 56q8 7 16 25 q9 21 14 27q12 35 46 121q30 76 45 122q-5 31 -23 78q-20 51 -25 78q-42 145 -43 156q-20 43 -44 112q-34 97 -38 109q-2 11 -11 28q-9 18 -11 28l-26 52q0 3 -22 57q1 7 -13 26q-5 4 -2 11q2 7 -2 10q-40 56 -35 48q-7 -2 -8 13q-8 3 -20 11t-19 11q-34 -11 -45 -12 q-26 -2 -33 20q4 23 26 22q5 2 11 11q6 8 10 11q27 -3 70 8q10 0 33 -6q19 -5 36 -2q8 -2 21 -10q12 -7 22 -8q19 4 70 32q41 23 82 20q21 -9 30 -30q5 -1 35 -22q-2 -2 -4 -39q-33 -9 -35 -8z" />
<glyph unicode="z" horiz-adv-x="998" d="M617 686q-26 -26 -37 -29q-8 -17 -31 -45q-23 -27 -31 -45q-2 -3 -57 -90q-63 -100 -106 -192q-30 -32 -62 -98q-8 -7 -17 -24q-10 -20 -15 -26q-3 -8 -15 -23q-12 -14 -14 -26q112 -2 241 8q20 2 54 -1q38 -3 53 -3q10 1 37 6q24 4 36 3q6 1 32 9q18 7 34 7q8 6 65 33 l21 30q13 18 12 39q20 7 25 41q1 1 5 2q3 2 4 3q5 3 3 12q6 -1 10 5q5 7 10 7l17 12q8 -1 16 12q0 -4 25 4q15 -6 17 -27q2 -35 3 -38q-16 -25 -19 -88q-4 -86 -5 -92q1 -9 7 -34q5 -20 5 -36q-18 -7 -21 -8q-6 -2 -31 2q-23 3 -38 -2q-13 8 -48 10q-38 2 -50 7 q-26 -1 -37 -5q-44 8 -155 5q-122 -3 -152 0q-6 -3 -23 -5q-16 -1 -22 -4q-247 -11 -250 -12q-30 -1 -32 -4q-61 20 -70 53q3 9 14 21t15 20q4 4 15 20q9 12 17 17q11 27 39 68q29 44 39 67q8 9 53 78q3 3 9 8q6 4 8 8t4 12q2 9 4 13l8 8q6 5 8 8l2 15q1 9 11 5q12 31 20 33 q2 9 37 66q4 6 40 64q24 39 42 63q4 82 4 81q-2 7 5 9q8 3 7 8q-10 1 -8 16q10 6 28 23q17 16 29 22q19 24 25 29q3 2 10 13q6 10 14 11q16 40 33 70q1 1 5 7q5 5 7 9q20 37 29 45q4 15 17 34q16 22 20 32q4 3 8 18q4 13 12 14q2 5 6 19q4 11 6 18q16 14 33 48q20 39 29 50 q6 17 25 53q17 33 24 54q-9 8 -35 10q-31 3 -39 6q-94 7 -258 -8q-49 3 -65 -4q-8 -1 -15 3q-8 5 -14 5q-14 -2 -63 -2q-37 0 -59 -10q-9 -1 -19 -11q-9 -9 -18 -10q-3 -4 -37 -49q-1 -16 -4 -16q-6 -5 2 -16q7 -12 2 -17q1 -8 -9 -11q-11 -3 -12 -9q-21 -6 -32 -4 q-13 13 -10 37q6 49 6 40q-4 10 -3 33q1 18 -6 25q2 14 -1 35q-4 21 -3 34q0 11 -12 25q-10 13 -8 28q0 8 10 11q12 3 14 6q3 0 6 4q4 3 7 4q2 -1 53 -20q18 -1 55 4q38 4 55 4q12 0 31 -4q21 -4 31 -4q41 -3 116 -3q83 0 117 -2q42 -1 136 2q84 2 126 -2q9 6 34 7 q27 2 35 6q11 -5 35 -3q21 2 31 -5q37 -17 45 -70q-13 -34 -20 -37q-5 -2 -11 -16q-5 -12 -14 -12q-7 -26 -25 -45q1 -8 -20 -21q-4 -20 -21 -45q-19 -29 -24 -41q-21 -30 -25 -41q-6 -2 -13 -18q-6 -13 -15 -15q-5 -24 -37 -73q-8 -12 -21 -35q-14 -25 -20 -35 q-7 -19 -20 -37q-5 -3 -10 -17q-4 -13 -11 -15q-9 -29 -37 -70q13 -85 8 -78q-15 -22 -36 -28z" />
<glyph unicode="{" horiz-adv-x="1014" d="M697 946q-3 0 -3 -2t2 -3q2 0 3 3q0 1 -2 2zM684 1572q3 -10 -7 -13q-23 -7 -18 -4q-3 -5 -14 -2q-10 3 -11 -4q-32 -2 -64 -12q-22 -7 -48 -29q-28 -25 -43 -32q-1 -8 -42 -51q-1 -11 -11 -23q-13 -14 -15 -19q-3 -4 -9 -22q-5 -14 -12 -20q6 -11 -6 -35q1 -11 3 -43 q1 -33 3 -49q15 -29 18 -58q33 -40 56 -87q4 -6 14 -16q9 -11 14 -17q9 -2 16 -15q7 -12 18 -15q21 -53 31 -89q-9 -31 2 -64q0 -48 -49 -126q-5 -1 -13 -8q-7 -6 -17 -5q-3 -16 -25 -17q-2 -11 -20 -21q-19 -9 -21 -20q1 -19 22 -34q38 -27 35 -25q12 -9 32 -26 q21 -18 30 -26q3 -10 14 -27q12 -17 14 -27q7 -6 13 -26q5 -19 15 -25q-2 -13 12 -61q-2 -9 -5 -39q-3 -29 -8 -49q-5 -7 -11 -22q-6 -17 -10 -23q-14 -24 -31 -38q-1 7 -16 -21q-3 -14 -15 -17q-9 -27 -31 -38q-36 -71 -40 -140q-4 -7 4 -10q7 -3 6 -8q-9 -5 -5 -18 q5 -15 3 -21q20 -55 80 -120q5 -4 26 -26q16 -16 31 -22q7 -12 29 -23q27 -13 34 -19q50 -2 58 -23q0 -10 -25 -10q-3 0 -11 -4q-7 -2 -14 -2q-34 6 -39 16q-13 0 -30 6q-18 6 -28 6q-4 5 -15 10t-14 9q-7 1 -17 6t-17 6q-6 6 -86 81q-1 31 -33 62q3 11 -3 24q-6 14 -5 22 q-6 7 -7 17q0 10 -6 16q3 33 -9 42q11 17 -3 40q24 23 7 60q10 3 11 17v12v13q22 43 23 70q7 2 9 16t11 15q-3 6 0 15q3 12 2 20q2 2 16 28q-2 58 -3 61q-4 -5 12 63q-3 13 -14 38q-10 23 -13 38q1 4 -8 7q-10 4 -11 7q-1 5 -8 12q-8 9 -11 14q3 -1 -24 19q-1 3 -11 8 q-8 5 -8 10q-10 2 -25 10q-14 7 -24 9q-2 4 -24 12q-4 1 -4 9t-5 9q5 10 36 27q59 34 65 37q23 44 37 66q0 29 11 35q-5 9 -1 30q5 27 4 41q-1 6 -9 23q-7 14 -4 27q-27 41 -24 40q8 10 -8 39q2 10 -8 21q-9 10 -5 22q-9 4 -13 18t-11 18q0 8 -7 21t-6 22q-5 11 -23 171 q0 8 5 31q3 19 2 33q5 15 16 37q13 29 16 36q3 5 21 23q13 13 11 29q30 20 30 24q32 26 31 24q51 32 50 30q19 2 47 8q36 8 48 10l49 7q32 4 50 7q34 1 43 -23q-4 1 -5 -3z" />
<glyph unicode="|" horiz-adv-x="499" d="M332 381q-2 1 -3 -3q0 -3 2 -3q3 -1 3 3q0 3 -2 3zM368 1527q-21 -10 -21 -11q-1 0 -38 -26q-39 -82 -34 -210q0 -7 -2 -20q-2 -14 -2 -22q0 -16 4 -62q4 -45 4 -69q0 -11 -2 -37q-2 -24 -2 -36q0 -11 2 -34t2 -34q0 -2 -2 -5t-2 -6q0 -2 2 -4t2 -1q0 -4 -2 -4l-2 -1 l2 -18q2 -20 2 -30q1 -14 0 -41v-43q6 -19 28 -37q25 -22 31 -31q3 -23 -7 -40q-17 -26 -18 -28q-11 -76 -8 -152q5 -40 8 -47q-4 -55 13 -221q5 -111 21 -225q4 -5 8 -18q5 -14 9 -19q39 -48 38 -47q-3 3 22 -20q13 -12 12 -32q-9 -10 -27 -20q-22 -12 -28 -17l-17 -5h-42 q-9 0 -21 8q-12 7 -22 7q4 0 -29 16q-53 -31 -114 -21q-9 4 -18 15q-13 14 -16 17q-3 4 -17 13q-11 8 -13 18q0 19 19 26q24 9 28 16q35 49 38 52q12 47 21 63q-3 28 8 58q3 38 0 112q-3 73 0 114q-6 12 -7 56q-2 41 -10 54q6 35 -1 88q-11 76 -11 90q-3 16 -23 30 q-20 13 -24 28q1 8 17 42q10 -1 14 13q5 17 12 18q8 90 8 89q1 104 -13 163q0 47 -4 120q-4 75 -4 111q-2 11 2 24q3 13 2 23q-7 52 -17 115q0 2 -2 5t-2 6q-2 11 -25 37q-1 10 -13 18t-13 18q-36 18 -42 32q0 16 15 27q14 11 23 4q10 1 29 9q17 8 30 7q-1 0 72 -32 q14 2 29 14q18 15 26 18q37 13 80 10q2 -2 28 -23q17 -13 19 -34q0 -15 -13 -21z" />
<glyph unicode="}" horiz-adv-x="1014" d="M309 411q3 -1 3 2q0 2 -2 3q-2 0 -3 -3q0 -1 2 -2zM275 -261q-3 10 7 13q23 6 18 4q3 5 14 1q10 -3 11 5q31 1 64 11q21 7 46 28q29 24 44 31q0 9 41 51q1 11 11 22q13 14 15 19q3 4 9 22q5 14 12 19q-6 12 7 35q-2 11 -3 42q-1 34 -3 49q-15 29 -17 57q-33 40 -55 87 q-5 5 -14 16t-14 16q-9 3 -16 16q-7 12 -17 14q-21 53 -30 89q8 30 -2 63q0 47 49 124q5 1 13 8q7 6 17 5q3 15 25 16q2 11 20 20q19 10 20 21q-1 18 -21 33q-37 27 -35 25q-11 9 -30 26q-21 18 -31 26q-2 10 -13 27q-12 16 -14 27q-6 6 -12 26q-6 18 -15 24q1 13 -12 60 q2 9 6 39q3 29 7 48q5 8 11 22q7 16 11 23q14 23 31 37q0 -7 15 20q4 15 15 17q10 27 31 38q36 69 40 138q4 7 -3 10q-8 3 -6 8q9 5 5 17q-5 16 -3 22q-20 54 -78 119q-5 3 -26 25q-16 16 -30 22q-7 12 -29 23q-27 13 -33 19q-49 2 -58 23q0 10 25 10q3 0 11 3q7 3 14 3 q33 -7 38 -16q13 -1 30 -6q18 -6 28 -7q4 -4 14 -9q11 -6 15 -10q6 -1 16 -6t17 -6q5 -6 85 -80q0 -31 31 -61q-3 -11 3 -24q6 -14 5 -22q6 -7 7 -17q0 -10 6 -15q-3 -33 8 -43q-10 -16 3 -39q-24 -23 -7 -59q-9 -3 -11 -17v-12v-12q-22 -43 -23 -70q-7 -2 -9 -16 q-2 -13 -12 -14q3 -6 1 -15q-3 -12 -2 -20q-2 -2 -16 -28q1 -57 2 -59q5 4 -12 -63q3 -13 13 -37t13 -38q-1 -4 8 -7q10 -4 11 -7q1 -5 8 -12q8 -9 10 -14q-3 1 24 -18q2 -4 11 -9q7 -4 8 -10q10 -2 24 -9q14 -8 24 -10q2 -4 24 -12q4 -1 3 -9q0 -8 6 -9q-6 -9 -36 -26 q-59 -34 -65 -36q-22 -44 -37 -65q0 -29 -11 -35q5 -9 1 -29q-5 -27 -4 -41q1 -6 9 -23q6 -14 4 -26q26 -41 23 -40q-8 -10 8 -39q-2 -9 7 -20t5 -22q9 -4 13 -18q4 -15 10 -18q1 -8 8 -21q6 -12 5 -22q5 -10 22 -169q0 -7 -5 -31q-4 -18 -2 -32q-5 -15 -16 -37 q-14 -28 -17 -35q-2 -5 -20 -22q-13 -13 -11 -30q-30 -18 -30 -23q-32 -25 -31 -23q-50 -31 -50 -30q-18 -1 -46 -7q-35 -8 -47 -10q-14 -2 -49 -6q-31 -4 -49 -7q-34 -1 -43 23q4 -1 5 3z" />
<glyph unicode="~" horiz-adv-x="1019" d="M385 821q-4 -3 -2 -5q2 -1 5 1q3 3 1 5q-1 1 -4 -1zM245 865q-3 -2 -1 -4q1 -1 4 1t1 4q-1 2 -4 -1zM921 839q15 -11 27 -12q-4 -34 -39 -33q2 -27 -5 -34h-28q-6 -11 -22 -26q-18 -15 -23 -24q-12 -5 -44 -19q-28 -12 -45 -18q-54 -18 -112 -13q-9 2 -35 12 q-21 9 -38 10q-14 17 -49 35q-40 22 -52 32q-166 23 -179 22q-17 -1 -55 -9q-35 -7 -57 -7q-9 -3 -30 -12q-18 -9 -31 -11q-9 5 -12 26q-3 22 6 30q4 7 18 19q13 11 16 20q18 11 41 32q33 32 37 35q40 7 67 23q17 -1 46 6q27 7 55 5q94 -27 173 -112q4 -1 10 -2q8 -2 10 -3 q12 -3 14 -12q12 0 58 -10q33 -7 54 -1q8 1 19 -3q10 -5 20 -2q21 -2 47 6q7 2 23 8q15 5 25 8q14 4 30 23q17 18 31 22q13 -1 29 -11z" />
<glyph unicode="&#xa1;" horiz-adv-x="485" d="M364 974q3 2 1 4q-1 1 -3 -1q-3 -2 -2 -4q2 -1 4 1zM275 969q3 2 1 4q-1 1 -4 -1t-1 -4q1 -1 4 1zM265 229q3 2 1 4q-1 1 -4 -1q-3 -3 -1 -4q1 -2 4 1zM216 198q-8 5 -10 -6t5 -9q1 6 5 5v10zM152 64q-10 -3 -10 -5q10 2 10 5zM159 10q-16 -4 -35 -4q-23 0 -37 -2 q-12 4 -44 -3q-23 -4 -28 9q-6 27 17 35q6 2 22 4q15 3 22 5q41 31 55 50q50 115 62 362q22 147 27 267q11 234 -22 322q-2 8 -22 26q-16 13 -11 36q67 23 133 -23q35 20 84 17q41 -15 61 -39q-2 -17 -28 -24q-29 -9 -33 -20q1 -21 -11 -28q-4 -28 -1 -75q3 -52 1 -81 q-1 -15 0 -44q0 -3 -3 -6t-3 -6l3 -4t3 -7q-1 -11 -6 -35t-5 -37q-3 -38 -3 -113q0 -71 -3 -110q0 2 -6 -128q-9 -212 23 -272q10 -18 27 -28q2 -6 22 -6q19 1 17 -11q5 -42 -61 -39q-7 -3 -83 -5q-10 8 -37 22q-25 13 -36 22q-40 -24 -61 -27zM363 970q2 -1 2 3q0 2 -2 3 t-3 -3q0 -3 3 -3zM333 1191h-50q-54 26 -72 48q-31 35 -23 96q24 54 74 82q58 32 115 2q13 -20 33 -67q1 -75 -22 -122q-44 -31 -50 -34q1 -5 -5 -5z" />
<glyph unicode="&#xa2;" horiz-adv-x="794" d="M379 807q-21 -10 -53 -16q-10 -15 -36 -20q-2 -8 -11 -14q-11 -7 -14 -10q-2 -2 -13 -11l-15 -10q-3 -6 -27 -46q-16 -28 -22 -51q-4 -7 -28 -122q5 -16 5 -50q-1 -47 -1 -55q10 -21 8 -40q7 -5 13 -20q5 -17 12 -21q1 -9 8 -26q7 -15 8 -27q7 -4 16 -13q13 -12 16 -15 q-2 1 18 -15q11 -10 19 -5q0 20 9 61q9 37 7 64q2 10 21 83q13 50 19 84q3 19 19 85q12 52 14 89q3 5 28 121h-20zM476 917q9 -6 35 -8t30 -4q6 9 -1 22q-10 15 -7 26q-1 7 -10 21q-8 11 -6 24q15 11 35 1q18 -8 25 -25l25 -25q6 -3 11 -13q7 -12 9 -15q-1 5 -4 -53 q14 -29 15 -64q2 -39 -15 -61q-42 -20 -57 -13q5 11 6 26q2 14 6 23q-16 40 -113 41q-8 -8 -16 -53q-4 -25 -17 -81q-12 -51 -16 -81q-5 -21 -15 -94q-9 -64 -21 -105q0 -33 -8 -61q2 -11 -6 -29q-7 -16 -2 -23q-22 -65 -25 -110q71 -49 288 -40q9 3 19 15q12 14 18 17 q3 6 15 17q10 10 13 20q2 14 -11 30q-11 14 -5 26q8 10 20 0q13 -9 16 -4q5 -3 12 -16q6 -13 12 -16q4 -5 9 -18q4 -13 8 -19q1 -24 -4 -77q-7 -16 -17 -24q4 -8 13 -20q9 -13 12 -20q1 -15 -1 -34q-3 -27 -3 -31q-3 -3 -6 -10q-4 -8 -6 -11q-8 -11 -25 -8q-6 6 -3 17 q4 14 3 20q-27 30 -89 48q-95 2 -134 0q-122 18 -174 41q-19 -51 -28 -122q-10 -20 -25 -77q-25 -15 -52 -12q-7 13 0 28q1 4 6 13l6 12q3 23 16 57q5 19 12 61q7 41 12 60q-102 59 -174 191q-2 32 -14 77q-15 57 -18 73q-17 25 -53 40q3 16 20 31q20 18 25 26q-1 7 4 8 q-1 30 9 67q13 47 15 63q4 8 23 37q15 23 22 40q18 12 59 52q35 35 62 49q94 45 170 53q17 59 29 146q0 2 4 6q3 3 4 6q21 0 44 -8q4 -76 -16 -146z" />
<glyph unicode="&#xa3;" horiz-adv-x="872" d="M199 893q-1 4 -3 -1v-7q1 -4 3 0q1 5 0 8zM842 1133q5 -7 5 -12q-12 5 -21 -3q-15 -15 -17 -15q-55 -11 -67 -8q-41 -30 -61 -38h-33q-68 18 -83 49q9 7 24 7q19 1 28 5q3 2 7 14q3 10 8 12q3 34 -26 132q5 -8 -30 37q-33 16 -49 27q-32 3 -41 7q-10 -1 -27 -4 q-14 -3 -26 -3q-85 -27 -124 -79q-44 -45 -57 -143q1 -16 0 -93q-1 -52 4 -84q0 7 38 -151q63 0 109 4q45 18 53 86q15 7 27 -9q19 -23 21 -24q9 -66 0 -98q3 -12 11 -27q10 -19 12 -26q-2 -8 -2 -25q-1 -20 -2 -28q-5 -30 -34 -30q-6 7 -4 20q1 14 -3 22q-10 36 -11 41 h-132q-8 -23 11 -45q6 -32 11 -49v-87q-3 -64 -45 -196q-14 -15 -28 -50q-16 -42 -24 -55q13 -1 37 4q29 7 42 7q4 1 14 -1q11 -2 16 -2q4 0 12 2q7 2 10 1q16 -1 39 -6q30 -8 37 -9q23 -18 73 -45q52 -30 73 -45q18 -6 51 -8q41 -2 47 -3q23 11 12 71q-1 3 -11 25 q-6 13 3 20q15 7 31 -7q28 -24 26 -23q7 -18 18 -56v-106q-2 -1 -15 -30q-17 1 -54 -6q-36 -6 -55 -5q-33 2 -75 22q-59 29 -64 31q-3 3 -72 49q-9 1 -23 7q-15 6 -22 8q-6 1 -20 3q-10 1 -21 4q-72 -4 -128 -30q-11 -3 -38 -15q-23 -10 -41 -11q-41 -25 -64 -30 q-4 -2 -16 -13q-8 -9 -22 -6q-10 0 -15 11q-1 2 -4 10q-2 6 -4 9q-5 8 -20 22q-16 14 -21 23q13 28 64 56q13 18 30 31q1 2 30 45q3 4 14 23q8 15 16 22q1 1 30 45q10 31 23 49q1 6 -6 9t-5 10q16 10 15 0q28 116 22 177q0 5 -3 13t-4 13q-2 11 -2 34t-2 34q-6 36 -38 117 q-5 8 -21 16q-19 9 -24 14q1 12 8 26q9 16 11 23v11q1 8 0 12q0 12 -11 11q-1 4 7 4q7 0 4 7q-12 75 -11 184q34 118 34 117q3 19 49 102q0 7 9 11q11 5 13 8q2 2 9 12q5 7 10 10q23 23 38 42q3 0 30 18q152 35 192 27q23 -7 54 -23q41 -22 51 -26q3 -7 13 -15q11 -9 14 -15 q6 -3 13 -14q6 -10 13 -13q40 -82 45 -90q28 -61 57 -75q9 -2 27 1q15 4 22 -1q-3 -9 2 -15z" />
<glyph unicode="&#xa4;" horiz-adv-x="879" d="M383 397q-3 -2 -1 -4q1 -1 4 1t1 4q-1 1 -4 -1zM297 855q-18 -19 -30 -27q-23 -41 -35 -102q-13 -67 -5 -123q2 -15 13 -37t12 -33q16 -9 15 -20q73 -46 70 -45q6 -1 5 -5q9 1 22 -3q12 -4 23 -2q6 6 14 -3q9 -11 21 -7q18 2 35 -1q16 -2 35 1q13 6 38 20q24 14 37 20 q9 22 35 45q45 117 50 145q-1 51 5 75q-29 75 -52 106q-37 49 -98 59q-6 -1 -5 -5q-110 -5 -175 -30q-11 -8 -30 -28zM746 1021q17 0 21 -8q10 0 21 -7q12 -7 19 -8q0 -6 15 -25q-3 -18 9 -55q10 -28 -4 -45q-17 1 -27 17q-20 31 -18 28q-13 4 -40 20q-34 -6 -45 -50 q8 -32 25 -40q2 -19 9 -44q10 -35 11 -41v-50q-5 -78 -50 -210q-7 -3 -14 -18q-8 -14 -16 -17q10 -41 60 -45q24 6 35 55q3 16 -7 31q-10 14 -8 29q19 15 37 0q6 -4 15 -15t13 -15q13 -43 8 -83q-6 -45 -33 -62q-7 0 -19 -6q-11 -5 -21 -4q-1 -17 -13 -37q-14 -23 -17 -33 q-18 2 -20 -10q-48 0 -60 -5q-11 3 -32 6q-25 3 -33 4q-37 7 -40 35q10 7 45 16q31 7 40 19q-3 10 -15 25q-12 14 -15 25q-81 -51 -180 -45q-114 36 -145 65q-28 -27 -20 -55q7 -5 43 -5q30 0 32 -15q-2 -35 -49 -35q-10 -1 -76 10q-3 10 -15 10q-23 36 -30 55q-24 0 -49 13 q-35 20 -41 22q-24 47 -20 90q5 4 10 13q6 11 8 14q12 15 32 13q9 -7 7 -38q-1 -29 13 -37q28 -6 44 3q11 6 26 27q-49 99 -40 205q16 106 45 155q-12 7 -27 33q-14 25 -28 32q-11 -6 -20 -30t-20 -30q-17 0 -25 14q-2 4 -10 31q14 44 23 60q17 29 47 35q9 43 25 70 q8 4 60 20q6 -1 27 -5q17 -2 26 -5q26 -10 22 -40q-9 -5 -31 -9q-26 -4 -34 -6q2 -25 16 -49l24 -41q98 67 150 75q134 7 220 -40q25 11 18 46q-6 27 -23 49q-7 10 -30 23q-22 12 -30 22q-1 11 15 20q9 6 10 0q19 3 41 -4q23 -8 39 -6q4 -12 25 -15q2 -11 13 -22 q14 -13 17 -18q1 -6 6 -24q5 -14 4 -26q1 -1 19 -2z" />
<glyph unicode="&#xa5;" horiz-adv-x="1012" d="M539 64q-3 -2 -1 -3q1 -1 3 1t1 3t-3 -1zM499 96q-2 -2 -1 -3t3 1q2 1 1 3q-1 1 -3 -1zM479 155q-2 -1 -1 -3q1 -1 3 1q3 2 1 3q-1 1 -3 -1zM516 301q-2 1 -2 -2q0 -2 2 -3q1 0 2 3q0 2 -2 2zM868 377q-3 -1 -1 -3q1 -1 3 1t1 3t-3 -1zM892 758q-3 -2 -1 -3q1 -1 3 1t1 3 t-3 -1zM352 1355q-11 -8 -17 -1q-6 1 -39 -12v-44q7 -30 27 -70q27 -52 32 -64q5 -7 17 -27q11 -17 19 -25q8 -18 20 -24q-1 -9 6 -14q9 -6 10 -10t9 -13q6 -7 7 -14q9 -4 31 -32q24 -29 24 -40q15 0 24 14q11 19 16 22q3 10 13 24q11 16 14 24l56 91q6 18 24 49t24 50 q68 98 23 135q-6 5 -24 2q-14 -3 -19 6q-7 10 3 18q9 8 25 5h59q10 -3 28 -14q17 -10 28 -13q7 1 52 19q31 12 63 8q39 -22 34 -18q18 -14 17 -37q-14 -4 -34 -3q-22 2 -33 -1q-24 -10 -32 -20q-20 -17 -44 -53q-32 -49 -39 -58q-9 -18 -35 -63q-22 -39 -33 -64 q-14 -25 -75 -119q-11 -25 -33 -64q-26 -47 -35 -63q3 -11 1 -40q-2 -32 -1 -47q17 2 88 5q49 3 79 11q38 -4 100 7q57 11 86 5q5 -6 3 -21q-1 -13 5 -19q11 -31 4 -40q-9 -8 -45 -8t-46 -7q-27 5 -73 2q-57 -3 -74 -2q-106 4 -123 0q-2 -16 4 -66q6 -46 0 -69 q10 -42 8 -127q18 2 166 11q101 6 160 17q11 -17 27 -28v-44q-1 -6 2 -10q3 -5 2 -10q-7 2 -8 -11q3 1 -55 -4q-8 1 -15 -4t-13 -4q-13 2 -33 -1q-24 -3 -30 -3q-9 0 -31 2q-20 2 -33 2q-125 -5 -139 -4q-1 -34 4 -56q-21 -153 56 -226q34 1 40 -12q2 -16 -11 -21 q-3 -1 -13 -3q-8 -1 -12 -4q-45 -12 -82 0q-39 11 -53 44q3 0 -20 -20q-3 -3 -12 -7q-8 -5 -12 -9q-10 1 -23 -4q-14 -4 -24 -4q-15 3 -35 11q-26 11 -33 13q-21 34 -23 44q-28 25 -8 39q15 2 25 -14q11 -16 22 -17q48 -2 72 31q1 3 2 8q0 6 2 8q14 28 15 36q6 28 3 79 q-4 62 -3 80q-37 8 -100 4q-74 -4 -110 0q-9 0 -17 -7q-9 -8 -15 -9q-3 3 -1 9t-2 11q-11 5 -16 15q2 8 3 32q1 23 5 36q57 3 51 4q35 -16 91 -13q104 5 107 5q1 46 -4 133q-4 87 -3 137q-63 8 -242 4q-9 17 -16 19q-1 15 4 32q7 23 8 28q18 -1 125 -4q77 -3 113 -8 q-3 46 -12 79q-3 7 -16 21q-10 12 -12 23q-7 6 -14 19q-9 16 -14 21q-54 82 -55 83q6 -18 -163 242q-7 10 -31 32q-20 20 -28 35q-15 4 -36 16q-72 6 -76 8q-5 12 8 25q19 21 20 23q78 20 76 19q10 0 55 -11q6 -6 16 -18q10 -13 16 -18q6 3 33 20q23 14 38 21q47 20 80 -5 q5 0 10 -4q7 -4 9 -4q0 -5 10 -4q10 0 6 -8q3 -12 -7 -19z" />
<glyph unicode="&#xa6;" horiz-adv-x="499" d="M332 381q-2 1 -3 -3q0 -3 2 -3q3 -1 3 3q0 3 -2 3zM368 1527q-21 -10 -21 -11q-1 0 -38 -26q-39 -82 -34 -210q0 -7 -2 -20q-2 -14 -2 -22q0 -16 4 -62q4 -45 4 -69q0 -11 -2 -37q-2 -24 -2 -36q0 -11 2 -34t2 -34q0 -2 -2 -5t-2 -6q0 -2 2 -4t2 -1q0 -4 -2 -4l-2 -1 l2 -18q2 -20 2 -30q1 -14 0 -41v-43q6 -19 28 -37q25 -22 31 -31q3 -23 -7 -40q-17 -26 -18 -28q-11 -76 -8 -152q5 -40 8 -47q-4 -55 13 -221q5 -111 21 -225q4 -5 8 -18q5 -14 9 -19q39 -48 38 -47q-3 3 22 -20q13 -12 12 -32q-9 -10 -27 -20q-22 -12 -28 -17l-17 -5h-42 q-9 0 -21 8q-12 7 -22 7q4 0 -29 16q-53 -31 -114 -21q-9 4 -18 15q-13 14 -16 17q-3 4 -17 13q-11 8 -13 18q0 19 19 26q24 9 28 16q35 49 38 52q12 47 21 63q-3 28 8 58q3 38 0 112q-3 73 0 114q-6 12 -7 56q-2 41 -10 54q6 35 -1 88q-11 76 -11 90q-3 16 -23 30 q-20 13 -24 28q1 8 17 42q10 -1 14 13q5 17 12 18q8 90 8 89q1 104 -13 163q0 47 -4 120q-4 75 -4 111q-2 11 2 24q3 13 2 23q-7 52 -17 115q0 2 -2 5t-2 6q-2 11 -25 37q-1 10 -13 18t-13 18q-36 18 -42 32q0 16 15 27q14 11 23 4q10 1 29 9q17 8 30 7q-1 0 72 -32 q14 2 29 14q18 15 26 18q37 13 80 10q2 -2 28 -23q17 -13 19 -34q0 -15 -13 -21z" />
<glyph unicode="&#xa7;" horiz-adv-x="1125" d="M223 161q-3 1 -4 -4q0 -2 3 -3q2 -1 3 3q0 3 -2 4zM276 180q11 3 12 6q-12 -3 -12 -6zM924 377q-3 -2 -1 -4q1 -1 4 1q3 3 1 5q-1 1 -4 -2zM928 503q-2 13 2 27q4 18 4 24q-13 78 -40 188q-23 30 -22 45q-20 13 -57 62q-14 4 -29 19q-17 17 -28 21q-9 9 -28 20 q-21 14 -28 20q-110 54 -142 57q-51 34 -80 39q1 11 -28 29q-7 20 -34 28q-1 7 -6 6q0 6 -5 5q-64 -59 -40 -204q49 -61 68 -96q44 -20 99 -77q63 -63 94 -82q-5 11 62 -80q83 -49 114 -102q9 -11 20 -36q13 -27 19 -37q-9 -2 51 51q3 8 34 73zM425 1546q-3 -3 -1 -5 q1 -1 4 1q3 3 1 5q-1 1 -4 -1zM741 305q-7 39 -43 81q-44 51 -53 72q-91 55 -142 130q-27 11 -78 57q-45 41 -75 46q-13 28 -74 85q-11 18 -34 59q-21 40 -34 60q2 20 1 55q-2 42 -1 64q22 68 28 85q52 60 57 74q41 5 40 5q-10 40 -57 148q-6 74 0 147q17 29 46 108 q11 4 11 17q8 4 20 17q11 13 20 17q3 9 17 19t17 21q37 13 79 51q26 4 71 22q46 19 71 23q50 9 45 6q16 -4 77 -12q48 -6 71 -16q29 -4 65 -20q45 -22 59 -26q7 -13 28 -31q22 -19 29 -31q-23 -121 34 -159q9 2 51 0q-12 -56 -34 -34q-47 -16 -57 -17q-12 0 -62 28 q-26 -32 -82 -26q-58 6 -65 49q9 9 49 21q34 10 41 30q-18 86 -73 113q-14 7 -44 11q-32 5 -47 12q-106 -11 -176 -45q-37 -31 -119 -136q-9 -54 -11 -119q3 -12 18 -59q11 -36 16 -61q38 -48 62 -68q11 -11 39 -26q30 -15 40 -25q167 -84 171 -85q9 -10 34 -28 q24 -16 34 -28q72 -62 68 -57q60 -59 62 -63q8 -8 27 -35q17 -23 30 -33q38 -151 40 -170q9 -140 -18 -244q-58 -64 -73 -96q-41 -22 -63 -45q-2 -16 6 -46q3 -7 -8 -16q-8 -8 2 -12q-11 -35 -5 -34q-2 2 5 -74q-4 -24 -22 -119q-26 -30 -46 -79q-115 -109 -193 -131 q-30 2 -79 -2q-51 -5 -79 -4q-36 11 -148 34q-62 28 -113 68q-7 12 -46 103q-4 104 -51 198q-13 0 -17 11q-9 1 -23 -1q-15 -1 -19 -1q-20 0 -31 14q-3 18 13 26q27 14 26 13q6 2 25 12q15 8 32 5q8 2 34 -11q22 -28 23 -23q11 4 25 20q15 16 26 20q14 0 44 4q27 4 47 2 q3 -7 23 -19q17 -9 16 -27q3 -17 -22 -17q-30 1 -34 -5q-10 -8 -15 -40q-4 -32 -14 -40q6 -13 6 -50q1 -38 6 -52q3 -12 28 -34q3 -7 14 -17q11 -9 14 -17q95 -45 244 -51q18 6 43 19q30 16 42 21q52 52 85 159q7 158 6 170q-6 47 -11 51z" />
<glyph unicode="&#xa8;" horiz-adv-x="0" d="M358 1633q-1 -1 -3 -1q-3 0 -4 -1q-4 -1 -4 -4q2 1 17 0q11 -1 10 6h-16zM335 1696q6 -2 21 -9q13 -6 19 -8q33 -43 39 -73q1 -6 -2 -13q-4 -6 -2 -13q-34 -82 -121 -90q-35 4 -52 30q-15 22 -14 58q1 32 14 65q12 32 30 49q7 -2 12 2q5 3 10 3q19 8 46 -1zM387 1094 q-2 0 -2 -3q0 -1 2 -2q1 -1 2 2q0 2 -2 3zM659 1702q4 -1 16 -3q9 -1 14 -1q34 -36 33 -34q17 -22 17 -51q-20 -73 -104 -88q-3 2 -10 3q-7 0 -9 1q-4 2 -7 4q-4 3 -4 4l-14 9q-7 6 -13 18q-1 1 -2 7q0 5 -2 8q-1 1 -4 3t-4 5q-7 24 4 65q12 15 27 27q10 -1 18 8q9 10 17 11 q8 6 27 4z" />
<glyph unicode="&#xa9;" horiz-adv-x="1476" d="M0 1730q-1 1 1 4zM33 1759l-1 3q1 -1 2 -3h-1zM730 1888q-1 2 0 4v-4zM737 1895q2 -2 0 -4v4zM190 622l-4 16q3 29 -2 72q-4 26 -4 40q2 26 5 72q6 70 6 110q28 77 32 111q18 27 41 90l6 14q12 13 30 42q3 6 6 10q28 25 39 48q9 6 21 19q11 12 17 14l8 3l4 6q5 9 22 23 q11 9 16 14q6 4 20 11q87 46 147 51h4q6 1 10 5q25 -5 55 -5q12 0 33 1q42 2 63 -1q24 -4 91 -26l23 -7q8 -3 11 -4q4 -1 17 -10q12 -7 19 -11q6 -3 18 -7q7 -2 8 -3q12 -8 38 -31q16 -15 25 -22q7 -6 17 -13q48 -38 66 -64l9 -12q12 -18 19 -27q3 -4 12 -21q8 -17 13 -26 q5 -7 14 -11q14 -29 51 -98l4 -7q5 -26 18 -77q14 -56 19 -86q0 -33 1 -97q0 -87 -1 -138q-8 -50 -31 -143q-7 -30 -11 -46q-16 -26 -42 -82q-14 -31 -21 -46q-17 -20 -56 -55q-36 -33 -52 -52q-23 -7 -58 -28q-9 -5 -14 -8q-14 -4 -35 -14q-25 -11 -40 -12l-6 -1l-4 -3 q-25 -15 -97 -29q-46 -9 -67 -16q-14 3 -38 3h-20q-36 0 -53 6l-6 2h-4q-22 0 -55 12q-27 11 -44 14q-19 11 -55 40q-44 35 -70 50q-29 24 -80 82q-18 20 -21 23q-4 23 -20 57q-9 17 -12 26q-2 16 -11 42q-9 29 -10 46l-2 16l-5 2q1 15 -4 26q-3 45 -23 120zM32 1755 q-1 -1 -2 -1q-3 3 -1 2zM1371 1017q-8 16 -21 50q-18 45 -28 65q-8 15 -26 43q-25 38 -33 58l-2 4l-18 20q-114 125 -184 177l-3 3l-5 1q-18 4 -49 21q-43 23 -70 28q-14 3 -34 9q-138 41 -219 41q-11 0 -22 -1t-17 -6q-6 -1 -8 -1q-22 -2 -40 2l-9 1l-8 -5q-22 -15 -50 -12 h-8l-7 -4q-31 -20 -83 -42l-4 -2q-91 -59 -211 -177l-3 -3l-2 -4q-19 -49 -55 -86l-4 -4l-1 -6q-5 -16 -21 -44q-23 -37 -28 -63q-75 -139 -56 -483q14 -183 101 -357l1 -3q24 -35 64 -117q11 -23 16 -33l8 -13h6l-1 -5l12 -7q9 -6 30 -22q55 -41 85 -50q5 -8 13 -11 q7 -4 20 -5q7 -1 8 -1t4 -4q10 -10 19 -13q11 -4 35 -7q15 -3 22 -4q98 -24 167 -28q11 -1 23 -1q27 0 82 6q56 6 87 6h6l6 3q28 17 60 18l6 1l5 3q24 15 79 42q57 28 84 45l3 2q49 42 134 136q23 25 37 40l2 3l2 4q13 29 43 84q15 26 22 39l1 4q107 337 39 660zM2 1735 q4 3 5 2q3 -3 -1 -6t-6 -1t2 5zM8 1736q6 -1 6 -6q-12 -9 -14 0q2 6 8 6zM2 1735q4 3 5 2q3 -3 -1 -6t-6 -1t2 5zM3 1729l1 4q1 -2 -1 -4zM66 1754q-2 1 0 4v-4zM73 1761q1 -2 -1 -5zM1074 623q-10 37 -47 37q-9 0 -29 -3q-31 -5 -47 -4q-7 3 -21 10q-29 15 -51 18h-2l-8 -2 q-19 -6 -33 -4l-11 1l-2 -10q-1 -8 -10 -21q-3 -5 -5 -8l-2 -5l2 -5q7 -20 39 -38q32 -19 31 -46q0 -11 -14 -21q-6 -5 -10 -8l-3 -4q-8 -21 -27 -32q-76 -43 -194 -32q-128 42 -127 268q2 1 12 4q33 8 31 34q-1 18 -21 33q-12 9 -12 18q18 59 52 120q9 7 25 22q22 20 35 29 h29l1 10q1 5 12 10q11 4 15 8q65 18 142 -5q20 -16 25 -73q1 -12 1 -13q-2 -5 -15 -12q-35 -18 -28 -52l1 -4l2 -2q17 -16 40 -7q11 4 19 4h6l3 1q9 5 30 11q14 5 22 8q18 -15 49 -15q28 0 43 14l3 3l1 4q2 31 -26 56q-16 13 -18 24q-11 55 -28 105l-2 4q-67 70 -155 80 q-107 3 -179 -34l-9 -3q-46 -15 -64 -30q-14 -6 -33 -24q-16 -15 -25 -19l-4 -2l-4 -7q-73 -130 -86 -220q-9 -11 -44 -22q-22 -6 -31 -11l-6 -2l-1 -7q-3 -26 25 -40q6 -3 9 -5q3 -14 17 -30q7 -8 10 -12q1 -6 4 -17q8 -29 6 -48v-4l1 -2q11 -23 30 -69q12 -30 19 -46l1 -2 l2 -2q37 -29 51 -61q3 -5 12 -9h2q5 -6 12 -15q30 -38 49 -51l4 -2q38 -9 102 -16q31 -4 46 -6l3 -1l2 1q11 4 34 10q55 15 78 30l3 3q5 7 24 15q12 6 17 9q6 4 16 15q14 14 23 16l6 1l2 5q6 14 22 38q25 39 32 65q5 4 14 12q34 28 44 50q1 0 6 1q34 10 36 35v2zM2 1735 q4 3 5 2q3 -3 -1 -6t-6 -1t2 5zM2 1735q4 3 5 2q3 -3 -1 -6t-6 -1t2 5zM14 1737q0 -3 -14 -7q1 3 14 7z" />
<glyph unicode="&#xaa;" d="M529 1284q-8 -12 -9 -22q-9 -45 -9 -59q-33 -69 -31 -122q-49 -184 -50 -194q-5 -6 -11 -22q-7 -17 -12 -23q1 -10 -3 -28q-3 -17 -1 -31q-18 -62 -18 -58q24 1 111 -2q58 -2 96 6q23 1 45 -2q26 -2 41 -2q-1 29 -15 86q-13 52 -12 90q-1 5 -7 13q-6 7 -6 14 q-4 51 -23 95q0 9 -18 99q-5 14 -11 48q-6 32 -12 47q-2 7 -8 53q-4 33 -14 46q-2 6 -9 5q0 -7 -5 -14q0 -10 -9 -23zM718 1307q-16 13 -26 14q-3 -35 27 -145q28 -137 32 -144q9 -69 27 -149q2 -69 31 -145q15 -23 59 -45q-1 -11 7 -20q10 -9 11 -16q-3 -12 -17 -24 q-16 -13 -19 -21q-3 -9 -5 -29q-2 -22 -4 -30q3 -23 15 -72q11 -44 12 -63q1 -6 13 -27q0 -42 23 -68q3 -34 22 -76q23 -54 28 -69q38 -64 40 -72q4 -6 26 -15q19 -7 20 -21q1 -19 -19 -27q-28 -11 -31 -14q-59 -4 -95 32q-8 -2 -25 -17q-15 -13 -29 -15q-17 -2 -68 18 l-36 41q-6 15 -5 45q7 0 16 5q10 4 16 4q5 0 10 -8q5 -7 13 -5q4 1 4 14q-1 12 5 13q1 11 -5 22q-8 13 -9 18q-4 26 -25 112q-19 77 -25 123q-3 4 -6 17q-2 11 -7 15q-1 30 -14 84q-11 47 -9 83q-9 8 -35 10q-24 2 -37 -1q-14 4 -47 7q-34 3 -48 6q-14 0 -86 1q-54 1 -81 -5 q-25 -37 -13 -81q-6 -3 -8 -13q-4 -12 -6 -14q-3 -53 -18 -113q-9 -132 -32 -217q2 -16 -1 -35q-3 -25 -3 -33q-2 -6 -3 -26q-1 -16 -6 -28q9 -23 45 -32q6 -7 24 -12q20 -5 26 -10q0 -4 3 -13q3 -7 1 -14q-5 -8 -26 -12q-22 -4 -28 -11q-87 -12 -126 18q-8 2 -10 -6 q-3 -8 -8 -7q-3 -3 -12 -5q-8 -2 -11 -4q-14 -3 -29 2q-17 6 -25 7q-2 7 -15 15q-12 6 -12 16q-6 2 -20 6q-13 4 -19 7q-20 11 -16 37q19 24 50 4q9 5 26 8q14 3 24 10q3 1 7 9q3 7 11 5q32 115 31 158q38 157 41 199q20 35 18 77q12 29 23 90q-6 13 -25 24q-24 14 -29 21 q-2 28 20 41q12 6 47 13q4 0 6 8q2 6 8 6q13 15 20 54q9 45 16 59q3 16 11 61q7 39 12 61q0 4 -4 12q-3 7 -1 15q27 148 45 221q2 7 -2 13q-4 7 -2 14q7 14 10 37q4 26 8 35q-19 3 -34 -13q-16 -16 -34 -14q-1 5 -9 7t-9 7q-6 10 18 49q16 12 23 41q16 0 22 18q15 -1 29 5 q21 8 25 9q19 -6 61 -10q41 -5 52 -8q7 4 25 9t25 9q16 1 37 -2q24 -3 35 -3q6 -11 27 -9q-1 1 73 -41q0 -9 13 -22q4 -4 5 -18q2 -32 -18 -41q-19 -3 -33 9z" />
<glyph unicode="&#xad;" horiz-adv-x="670" d="M560 487q-2 -29 2 -45l-4 -4l-4 -4q-6 -4 -14 -3q-4 -1 -7 -10q-3 -7 -7 -8q-123 5 -128 5q-68 1 -121 -9h-9h-9q-11 0 -15 4q-41 -9 -104 0q-13 -3 -21 -1q-4 1 -15 8q-1 9 3 38q5 32 4 52q4 2 19 9q11 5 17 9q21 -1 60 8q36 8 52 7q30 4 63 4q37 -1 60 -8q21 2 52 0 q43 -4 48 -4q8 0 19 1q15 1 19 1q22 0 38 -5q5 -17 2 -45z" />
<glyph unicode="&#xae;" horiz-adv-x="1448" d="M297 1251q-1 1 0 3v-3zM323 1274l-2 2q1 0 2 -2v0zM866 1374q-1 2 0 3v-3zM871 1380q2 -1 0 -3v3zM200 598l-4 16q3 28 -2 70q-3 26 -4 40q2 25 5 71q6 69 6 108q27 76 32 109q17 27 40 89l6 14q12 13 29 42l6 9q28 24 39 48q8 6 20 18t18 14l7 3l4 6q5 9 22 23 q10 9 15 14q6 3 21 11q85 45 144 49l4 1q5 1 10 4q25 -4 54 -4q12 0 32 1q42 1 62 -2q24 -3 90 -25l23 -7q8 -3 11 -4t16 -9t19 -11t18 -8q7 -2 8 -2q12 -8 38 -31q15 -14 24 -21q7 -6 16 -14q48 -37 66 -63l8 -12q12 -17 19 -26q3 -4 12 -21q8 -17 13 -25q5 -7 13 -11 q14 -29 51 -96l4 -7q5 -26 18 -76q13 -55 19 -85q-1 -33 0 -96q1 -85 0 -136q-8 -49 -31 -141q-7 -29 -11 -46q-16 -25 -41 -80q-14 -31 -21 -45q-16 -20 -55 -55q-36 -32 -52 -50q-22 -7 -56 -28q-9 -6 -15 -8q-13 -4 -34 -14q-25 -11 -40 -12l-5 -1l-5 -2q-24 -15 -94 -29 q-46 -9 -67 -16q-14 3 -37 3h-20q-35 0 -52 6l-6 1h-4q-22 0 -55 13q-26 10 -42 13q-19 12 -55 40q-43 34 -69 49q-28 24 -79 81q-18 20 -20 23q-4 22 -20 56q-9 17 -12 25q-2 16 -10 41q-10 29 -11 46l-1 16l-5 2q1 14 -5 25q-3 45 -22 119zM321 1271l-1 -1q-2 2 -1 1h2z M1364 987q-8 16 -21 50q-17 43 -28 63q-8 15 -25 42q-25 38 -33 58l-1 4l-18 19q-113 124 -182 175l-3 2l-4 1q-18 5 -49 22q-42 22 -69 27q-13 4 -33 9q-136 40 -217 40h-21q-10 -1 -17 -7h-8q-21 -2 -38 1l-10 2l-8 -6q-21 -15 -49 -12l-8 1l-6 -4q-31 -20 -83 -41l-3 -2 q-90 -58 -208 -175l-3 -3l-2 -4q-19 -48 -54 -85l-4 -4l-2 -5q-4 -17 -21 -44q-21 -36 -27 -62q-74 -137 -54 -476q13 -180 98 -352l2 -2q23 -36 63 -116q11 -23 16 -32l8 -14l5 1v-5l11 -7q9 -6 30 -22q54 -41 84 -49q5 -8 12 -11t20 -5q7 0 8 -1q1 0 4 -4q10 -10 19 -13 q10 -3 34 -7q15 -2 21 -4q98 -23 165 -27q11 -1 23 -1q27 0 80 6q56 5 86 5h7l5 4q27 17 59 18h6l5 3q24 16 78 42q57 27 83 44l3 2q48 42 132 135q23 24 36 39l3 3l1 3q13 29 43 84q14 25 21 38l1 4q106 331 39 650zM296 1263q-2 5 -4 -1q-1 -7 1 -12q1 -6 4 1q0 7 -1 12z M-19 2251q-4 -3 -2 -5t6 1t1 6q-2 1 -5 -2zM-16 2297q-2 4 -5 -3q0 -6 2 -10q3 -4 5 3q0 7 -2 10zM-33 2424q-4 -3 -2 -6q2 -2 6 1t1 6q-1 2 -5 -1zM874 864q3 13 2 30q-1 16 3 30q0 -1 -16 54q-5 3 -16 15q-8 10 -17 12q-3 3 -13 20q-8 12 -19 13q-8 6 -27 6q-20 0 -27 -6 q-9 17 -41 12q-48 -8 -57 -7q5 -15 2 -44q-3 -27 3 -42q-9 -35 -6 -113q4 -83 -5 -126q55 -4 106 19q12 5 42 21q26 13 42 20q26 33 44 86zM8 2554q-4 -3 -1 -5q1 -2 5 1t2 6q-2 1 -6 -2zM695 1098q53 6 106 -8q9 -2 44 -13q27 -8 45 -12q-2 -10 16 -11q8 -7 76 -92 q7 -107 6 -136q-15 -26 -82 -119q1 -6 33 -92q3 -14 17 -45q12 -27 15 -47q9 -17 27 -57q17 -38 28 -57q3 -11 22 -24q18 -12 21 -25q-8 1 32 2q11 0 17 -13q5 -17 -7 -24q-3 -2 -10 -5q-8 -2 -10 -3q-21 -11 -65 -11q-13 -3 -24 3q-13 8 -20 8q-8 -3 -25 -16 q-15 -10 -29 -11q-64 6 -71 16q1 24 38 33q39 9 44 26q0 34 -44 114q-8 12 -28 51q-17 32 -31 47q-16 54 -27 76q-98 -23 -163 -6q33 -241 70 -287q3 -7 25 -10q20 -3 19 -17q-14 -28 -49 -27q-11 -5 -71 -6q-35 16 -54 44q-26 -27 -54 -38q-39 -3 -81 5q-50 9 -60 22 q1 18 23 23q7 1 21 2q16 1 21 2q30 18 44 68q1 4 16 95q-16 361 -44 510q-9 -2 -11 5q-6 13 -35 16q-33 5 -40 11q-1 36 37 47q11 3 35 6q25 4 36 7q82 -1 130 -44q55 10 71 17zM298 1255q3 3 4 1q2 -2 -1 -4t-4 -1q-2 2 1 4zM298 1255q3 3 4 1q2 -2 -1 -4t-4 -1q-2 2 1 4z M308 1256q0 -2 -11 -5q0 2 11 5z" />
<glyph unicode="&#xb0;" horiz-adv-x="443" d="M346 1361q2 2 1 6q-2 2 -4 3t0 -3v-2v-2q1 -4 3 -2zM194 1394q-14 -6 -25 -8q-2 -8 -13 -16t-14 -15q-16 -17 -23 -34q-2 -9 -1 -25q2 -19 1 -29q17 -32 50 -58q55 -8 104 15q24 34 35 70v61q0 -1 -27 47q-15 4 -66 3q-3 -1 -21 -11zM248 1475q28 -1 33 0q9 -6 36 -18 q24 -11 33 -21q0 1 24 -58q14 -32 19 -61q-2 -15 -8 -48q-6 -31 -8 -49q-55 -82 -115 -112q-64 -14 -128 12q-5 3 -16 15q-9 10 -18 12q-8 23 -35 58q-2 10 -7 28q-5 20 -7 29q-8 34 -5 59q2 20 17 46q19 31 21 38q8 8 27 23q18 15 27 24q2 0 37 13q23 8 44 6q8 5 29 4z" />
<glyph unicode="&#xb2;" horiz-adv-x="1012" d="M108 22q9 3 10 5q-10 -3 -10 -5zM903 208q-3 -2 -1 -4q1 -1 3 1q3 2 1 4q-1 1 -3 -1zM193 1006q-2 -2 -1 -4q1 -1 4 1t1 4q-1 1 -4 -1zM547 1380q9 3 9 5q-9 -3 -9 -5zM752 623q-25 4 -37 1q7 4 -65 -51q-7 -12 -29 -30q-21 -16 -27 -31q-16 -6 -34 -24q-21 -21 -32 -27 q-15 -12 -56 -61q-10 -3 -27 -20q-15 -14 -29 -17q-6 -10 -23 -26t-23 -26q-9 1 -14 -11t-14 -12q0 5 -19 -28q-49 -83 -56 -135q185 -23 513 -10q6 1 14 8q7 6 14 6q42 35 61 70q16 8 30 33q16 30 26 37q47 -6 42 -71q-2 -19 -9 -54q-9 -37 -10 -47q0 -62 5 -80 q-20 -13 -98 -9q-17 2 -55 1q-32 -2 -52 4q-10 2 -15 -4q-7 -7 -13 -6q-20 3 -77 1q-50 -1 -73 4q-9 2 -16 -5t-16 -4q-15 1 -93 1q-52 -1 -85 8q-4 0 -16 -7q-9 -5 -21 -2q-71 10 -233 -10q-4 4 -10 15q-5 10 -9 13q-2 16 19 52q-2 19 14 53q17 37 18 59q10 7 20 24 q12 21 18 27q3 9 17 27q13 15 15 29q15 14 38 49q22 35 37 49q11 22 40 48q34 31 44 45q15 15 84 89q25 15 59 43q44 36 58 46q0 14 14 37q2 10 -2 29q-4 16 2 23q30 11 65 9q8 3 28 42q22 41 23 47q4 13 14 168q-2 9 -14 81q-8 50 -18 77q-7 16 -23 36q-19 25 -24 34 q-6 5 -39 24q-25 14 -36 28q-13 -1 -46 14q-131 5 -173 -33q-5 -2 -18 -15q-10 -10 -24 -8q-23 -29 -51 -52q0 -7 -14 -28q1 -22 -5 -42q-1 -7 3 -16q3 -8 2 -16q2 -12 12 -35q8 -21 11 -35q7 -2 12 -12t11 -12q-1 -28 10 -23q-6 -16 -17 -19q-6 -2 -30 0q-108 0 -192 10 q-6 11 -2 37t-2 37q11 5 9 33q24 77 24 79q7 10 30 53q19 34 35 50q18 35 37 47q2 5 10 11q7 7 9 12q1 3 12 9q8 5 7 14q33 15 51 33q10 -2 16 4q8 9 12 10q19 3 23 14q-4 2 38 9q30 6 98 5q77 -2 98 0q7 -7 36 -10q27 -3 34 -13q15 0 34 -10t36 -9q10 -13 34 -29 q27 -19 36 -27q-1 0 4 -8q3 -6 10 -6q5 -23 21 -53q20 -36 25 -50q8 -17 17 -55q9 -40 16 -57q1 -22 2 -55q1 -27 3 -47q-11 -56 -10 -94q-27 -92 -28 -126q-16 -16 -32 -51q-3 -18 5 -55q6 -31 -1 -48q-7 -5 -28 -1z" />
<glyph unicode="&#xb3;" horiz-adv-x="1005" d="M933 468q-2 -2 -1 -4q1 -1 4 1q2 2 1 4q-1 1 -4 -1zM465 1405q-3 -2 -1 -4q1 -1 3 1q3 2 1 4q-1 1 -3 -1zM750 754q22 -8 28 -11q54 -45 101 -89q7 -14 20 -33q16 -26 20 -33q4 -6 16 -34q10 -22 19 -32q3 -16 12 -46q9 -29 11 -47q0 -20 4 -53q4 -36 4 -53 q-4 -128 -101 -265q-40 -21 -71 -44q-148 -53 -225 -53q-15 -1 -70 6q-48 6 -81 2q-85 10 -225 80q-27 34 -35 35q-1 13 -13 27q-13 14 -14 26q-5 8 -13 25t-13 24q0 7 -27 97q-6 8 -34 12q-27 4 -32 15q1 13 12 20q-2 -1 23 11q8 9 40 22q64 1 79 -14q31 19 84 23 q6 -3 25 -10q15 -6 23 -11q26 -14 28 -41q-26 -10 -31 -5q-10 3 -18 -2q-8 -7 -13 -7q-16 -14 -14 -75q13 -24 46 -51q41 -33 52 -46q20 0 26 -13q12 -1 71 -13q57 -13 66 -18q164 29 203 53q5 0 10 8q5 6 13 5q62 80 57 75q2 21 18 53q2 15 0 80q0 4 2 7t2 6q0 10 -4 49 q-13 116 -89 207q-115 72 -225 80q-83 6 -80 4q-14 35 -4 67q13 4 55 9q36 4 51 13q59 31 102 70q52 92 57 155q-5 79 -22 150q-6 18 -24 43q-19 27 -25 41q-18 11 -46 35q-31 26 -46 36q-90 14 -89 13q-75 -12 -185 -115q-14 -23 -18 -59q-4 -39 9 -64q20 -5 37 9 q17 15 33 13q11 -13 0 -38q-18 -46 -17 -42q-72 -17 -97 -13q-12 2 -27 8q-17 8 -22 10q-12 -2 -32 -12q-20 -9 -34 -10q1 0 -71 17q-1 5 -10 24q-6 14 -3 29q12 12 35 9q26 -3 40 5q19 7 22 70q5 13 22 97q5 6 17 28q9 18 18 25q6 7 21 22q13 13 19 23q98 53 181 66 q202 3 341 -97q2 -6 14 -17q10 -10 12 -19q14 -9 27 -31q9 -12 22 -37q14 -27 22 -38q2 -18 15 -77q10 -50 11 -82q1 -5 -2 -33q-1 -20 2 -33q0 -1 -39 -124q-27 -43 -27 -40q-9 0 -17 -9q-8 -11 -14 -13q-1 -6 -14 -10q-12 -4 -12 -12q7 -8 25 -15z" />
<glyph unicode="&#xb4;" horiz-adv-x="322" d="M209 1666h-2q-3 -1 -3 -3h3q1 1 2 1q3 0 3 3q-1 -1 -3 -1zM38 1491q2 2 6 7q4 4 6 7l9 12q7 8 9 14q25 31 76 106q9 7 21 24q14 18 20 25q18 8 37 10q23 2 39 -7q2 -6 19 -26q4 -26 -6 -49q-2 -4 -9 -19q-6 -11 -8 -19q-61 -43 -140 -79q-7 -3 -24 -19q-14 -13 -28 -15 q-4 2 -16 3q-10 2 -14 5q-3 11 3 20z" />
<glyph unicode="&#xb5;" horiz-adv-x="894" d="M104 -215q-2 -1 -1 -2t3 1q1 1 0 2zM175 -166q-1 -2 0 -3l2 1t1 2t-3 0zM802 33q-2 -1 -1 -2t2 0q2 2 1 3q-1 0 -2 -1zM682 31q5 1 5 3q-5 -2 -5 -3zM671 33q-2 -1 -1 -2t2 0q2 2 1 3q-1 0 -2 -1zM648 47q-2 -1 -1 -2t3 1q1 1 0 2zM115 187q-1 -1 0 -2t2 0q2 1 1 2t-3 0z M121 292q-1 -1 0 -2q0 -1 2 0q1 2 0 3zM721 513q-1 2 -2 -1v-4q1 -2 2 1t0 4zM184 691q-2 -1 -1 -2t2 0q2 1 1 2t-2 0zM188 699q-2 0 -2 -2q0 -1 1 -2q2 0 2 2t-1 2zM261 833q-2 -1 -1 -2t2 1q2 1 1 2t-2 -1zM691 953q-2 -1 -1 -2t2 0q2 1 1 2t-2 0zM148 972q-1 1 -2 -1 q0 -2 1 -2q2 -1 2 2q0 1 -1 1zM189 990q-1 -1 0 -2t2 0q2 1 1 3q-1 0 -3 -1zM650 934q-12 -7 -20 2q-5 7 1 12q8 8 8 11q19 14 20 14q54 2 62 -25q6 1 20 17q4 2 14 5q9 3 12 6q62 2 74 -40q-6 -6 -26 0q-14 -25 -19 -39q0 -24 -6 -57q6 -264 6 -257q0 -17 -2 -50 q-1 -33 -1 -49q0 -18 2 -102q2 -62 1 -101q-7 -146 -3 -176q11 -50 22 -60q4 -1 15 4q9 4 14 -1q4 -10 -5 -19q-8 -8 -21 -10q-15 -9 -48 -8q-18 2 -40 23q-6 -3 -19 -11q-12 -7 -21 -9q-10 -2 -48 8q-4 3 -8 12t-9 11q0 4 -8 12q-7 7 -1 14q7 4 20 -2q12 -5 20 -1 q7 1 37 28q13 46 9 89q-32 -54 -52 -80q-55 -42 -156 -74q-13 0 -44 -1q-27 -1 -48 1l-68 23q-3 5 -13 12q-11 8 -15 13q-3 3 -7 10q-5 7 -8 10q-21 26 -22 29q-33 52 -52 99q-12 -63 -14 -151q0 -12 1 -44q0 -29 -1 -55q-2 -9 -4 -29q-2 -19 -4 -28q0 -31 -5 -97 q-3 -56 -1 -88q2 -7 9 -34q5 -21 11 -32q3 -5 10 -9q11 -6 13 -8q3 -2 15 -3q11 -1 13 -6q-1 -9 -16 -14q-18 -5 -21 -8q-14 1 -26 -3q-30 2 -28 3q-9 2 -18 10q-13 11 -16 12q-39 -31 -91 -11q-2 6 -9 6q-20 36 -11 51q-4 -3 34 0q17 17 23 20q-1 11 5 14q3 58 5 199 q2 121 7 188q1 13 2 53q2 33 3 53q2 16 11 103q6 65 9 108q12 46 18 136q6 99 14 140q-5 222 -3 213q-2 3 -8 10q-5 5 -6 10q-33 12 -40 12q-8 -2 -18 -8q-12 -7 -16 -9q1 1 -12 -14q-8 -9 -17 -3q-4 8 2 19q9 15 9 20q23 19 40 38q10 4 30 10q21 6 30 9q5 -2 16 0 q14 2 21 0q40 -15 71 -48q15 -41 20 -60v-34q-11 -57 -11 -83q-5 -7 -9 -28q-3 -21 -8 -29l-3 -56q-7 -129 -11 -163v-74q9 -43 85 -211q15 -21 48 -59q6 -2 23 -18q8 0 26 -5q17 -5 28 -6q28 -1 77 11q11 3 29 13q17 11 28 13q45 57 51 77q41 43 66 145q0 27 6 82 q5 55 5 83v149q1 8 -1 26t-1 28q2 73 -6 125q-7 45 -23 54q-8 1 -23 -8z" />
<glyph unicode="&#xb6;" horiz-adv-x="1153" d="M872 -59q-3 -3 -1 -5q1 -1 4 1q3 3 1 5q-1 1 -4 -1zM536 179q-3 2 -4 -3q0 -4 5 -4q4 0 5 4q-2 0 -6 3zM507 473q-3 -3 -1 -4q1 -2 4 1q3 2 1 4q-1 1 -4 -1zM877 640q-3 -3 -1 -4q2 -2 4 1q3 2 2 4q-2 1 -5 -1zM449 1026q-2 -2 -1 -4q2 -1 5 1t1 4q-2 1 -5 -1zM204 1036 q-3 -2 -1 -4q1 -1 4 1q3 3 1 4q-1 2 -4 -1zM277 1073q-3 -2 -1 -4q1 -2 4 1q3 2 1 4q-1 1 -4 -1zM933 1091q-2 5 -5 -1q0 -7 1 -12q2 -5 5 1q0 7 -1 12zM523 1136q-3 -3 -2 -5q2 -1 5 1q3 3 1 5q-2 1 -4 -1zM566 1150q-2 1 -3 -3q0 -3 2 -3q3 -1 3 3q0 3 -2 3zM371 1423 q-3 -3 -1 -5q1 -1 4 1q3 3 1 5q-1 1 -4 -1zM142 1532q-3 -2 -1 -4q1 -1 4 1t1 4q-1 1 -4 -1zM1064 1406q0 19 -15 18q-1 9 -8 20q-8 12 -8 21q4 -2 -36 24q-22 15 -48 13q-1 -5 -5 -146q-5 -180 16 -261q4 -108 5 -381q0 -16 3 -50q2 -33 2 -49q0 -11 -3 -32q-2 -20 -2 -31 q3 -182 31 -459q4 -17 8 -52q5 -35 8 -52q12 -59 37 -84q13 -8 39 1q21 6 28 -11q4 -19 -11 -26q-29 -14 -25 -11q-8 -1 -25 -9q-14 -7 -27 -7q-65 12 -84 32q-11 2 -15 -11q-5 -12 -16 -10q1 4 -31 -21h-42q-7 1 -52 31q-1 8 -16 25q-12 14 -5 22q0 16 26 16q31 0 36 5 q-1 0 42 73q7 56 4 165q-3 110 1 148q-3 8 -5 26q-2 19 -5 26q-3 75 -2 228q1 143 -3 221q-2 19 -11 141q-20 267 -26 292q7 34 5 68q3 12 -3 23q-7 12 -7 19q15 78 -5 151q-6 -1 -43 -3q-20 0 -30 -12q-4 2 -136 10q-6 -36 -10 -240q-1 -10 -3 -34q-3 -22 -3 -34 q1 -43 6 -148q4 -95 5 -149q0 -13 -3 -39t-2 -40q0 -8 2 -23q2 -17 3 -23q1 -29 -4 -76q-6 -56 -7 -76q-1 -36 5 -104q6 -73 6 -105v-135q2 -63 -5 -287q1 -8 5 -21q4 -14 5 -21q-3 -12 6 -20q11 -8 10 -17q12 -9 32 0t30 0q5 -25 -15 -37q-31 -18 -32 -20q-90 -18 -115 -16 q-13 -3 -20 8q-8 13 -16 13q-13 3 -24 -4q-13 -7 -23 -6q-48 16 -84 31l-31 25q-19 15 -10 33q15 13 34 -4q28 -25 39 -28h57q6 2 13 11q7 8 13 10q6 155 -5 480v42q0 4 -3 10q-2 6 -2 11q0 2 3 7q2 4 2 8q0 13 -6 42q-4 28 -4 42q0 13 2 42q3 27 3 41q-6 283 -5 303 q-78 14 -173 5q-42 10 -88 42q-4 3 -8 8l-8 8q-3 2 -10 5q-8 3 -11 5q-19 17 -47 58q-1 2 -5 5t-5 5q-29 37 -52 125q-22 80 -16 146q12 72 104 199q99 55 105 57q69 8 177 5q25 0 65 6q50 9 66 10q4 0 8 -2q4 -3 7 -3q2 0 22 4q17 4 30 1q13 3 22 -4q10 -8 20 -6 q24 0 137 6q74 3 129 -1q17 -6 52 -11q30 -16 84 -68q4 -11 19 -46q13 -28 17 -47v-53q0 -26 -20 -31q-12 -1 -11 19z" />
<glyph unicode="&#xb9;" horiz-adv-x="478" d="M264 431q-2 1 -2 -3q0 -2 2 -2q2 -1 2 2t-2 3zM361 1369q-21 -8 -22 -8q-1 -1 -38 -22q-40 -67 -35 -172q0 -6 -2 -17t-2 -17q0 -13 4 -51q4 -37 4 -57q1 -9 -2 -30q-2 -20 -2 -30q0 -9 2 -27q2 -19 2 -29q0 -1 -2 -3q-2 -3 -2 -5t2 -3q2 -2 2 -1q0 -3 -2 -4q-2 0 -2 -1 q0 1 2 -14q2 -16 2 -24q1 -12 0 -34v-35q7 -16 28 -30q26 -18 33 -26q3 -19 -8 -33q-17 -21 -18 -23q-12 -62 -9 -124q6 -33 9 -39q-4 -45 13 -180q5 -92 21 -185q4 -4 9 -15t8 -15q40 -40 39 -39q-2 3 22 -16q13 -10 12 -27q-8 -8 -27 -16q-22 -10 -28 -14l-18 -4h-43 q-8 0 -21 7q-12 6 -22 6q4 -1 -30 13q-53 -25 -116 -18q-8 4 -18 12q-12 12 -16 14q-3 4 -17 11q-11 6 -13 15q0 16 19 21q24 7 28 13q37 41 39 43q12 39 21 52q-3 23 9 47q3 32 0 92q-4 60 0 93q-7 10 -8 46q-1 34 -9 44q5 29 -2 73q-10 61 -11 73q-3 13 -23 24 q-21 11 -24 23q0 7 17 35q10 -1 14 11q5 13 12 14q8 74 8 73q1 85 -13 134q0 38 -4 98q-4 61 -4 91q-2 9 1 19q4 11 3 19q-7 43 -17 95q-1 1 -3 4q-2 2 -1 4q-2 9 -26 30q-1 9 -13 16q-12 6 -13 15q-37 14 -43 25q0 14 15 23q14 9 24 3q9 1 29 8q17 6 31 5q-1 0 73 -26 q14 1 29 12q18 12 27 14q37 11 81 9q2 -2 29 -19q17 -11 19 -29q0 -12 -13 -17z" />
<glyph unicode="&#xba;" horiz-adv-x="907" d="M341 49q-3 -2 -1 -3q1 -1 3 1q2 1 1 3q-1 1 -3 -1zM678 795q10 8 14 14q-3 12 2 22q6 12 6 18q-14 73 -20 84v28q-17 27 -20 84q-8 11 -14 35q-7 30 -10 37q-3 11 -13 35q-10 21 -11 37q-18 9 -24 32q-17 12 -28 28q-24 13 -24 16q-38 14 -40 20q-8 -3 -36 4q-5 1 -10 1 l-6 -1q-23 9 -16 12q-72 6 -132 -8q-40 -15 -36 -16q-7 -13 -32 -20q-4 -11 -15 -25q-13 -15 -17 -23q-8 -5 -18 -24q-9 -18 -18 -24q-1 -10 -14 -56q-10 -33 -6 -64q1 -5 -5 -11q-5 -5 -3 -13q-1 -19 -7 -86q-5 -54 -5 -90q3 -4 5 -18q3 -13 7 -18q10 -20 8 -40 q33 -28 32 -23q-3 -13 5 -24t7 -20q-28 -11 -48 -56q-2 -35 6 -86q9 -56 10 -82q12 -28 20 -92q30 -72 40 -112q4 -5 18 -26q11 -16 22 -22q1 -8 20 -24q2 -5 10 -14q8 -7 10 -14q8 0 20 -16q18 -5 46 -14q36 -11 46 -14q18 2 68 0q42 14 60 16q0 1 28 16q29 16 32 16 q7 27 28 36q-1 -3 2 17q2 11 10 11q4 1 3 16q0 14 9 12q6 22 16 44q8 20 8 16q7 32 21 90q16 62 23 90q-2 28 1 72q3 48 3 72q-10 24 -16 48q-14 7 -12 20q-9 0 -20 16q-24 -3 -24 16q-2 11 7 18q11 9 13 13q3 5 14 14zM831 698q-14 -121 -8 -152q-13 -54 -4 -84 q-4 -3 -6 -15q-3 -14 -5 -17q1 -37 -10 -87q-13 -58 -14 -81q-7 -8 -15 -26q-8 -19 -13 -26q0 1 -12 -20q-1 -1 0 -4v-4q-1 -1 -5 0h-3q-1 -2 0 -6q1 -5 0 -6q-4 -6 -14 -14q-11 -10 -14 -14q-3 -3 -6 -8q-4 -5 -6 -8q-20 -23 -20 -24q-17 -24 -16 -24q-9 -5 -35 -26 q-21 -16 -37 -22q-15 -9 -43 -17q-36 -11 -45 -15q-50 -1 -56 -4q-6 1 -50 7q-30 4 -46 9q-15 3 -38 16q-24 13 -38 16q-32 28 -44 32q-23 26 -40 32q-2 3 -9 13q-6 7 -7 15q-3 2 -13 7q-8 4 -11 9q-3 30 -4 28q-8 6 -19 23q-11 19 -17 25v32q-4 8 -13 39q-7 25 -15 37 q-10 83 -28 124q-2 7 1 14q4 8 3 14q-18 37 -8 68q-13 48 -8 64q-1 5 -8 11q-8 6 -8 13q-9 8 -12 24q-5 3 -12 9q-8 8 -12 11q-9 1 -24 20q1 0 5 13q2 8 11 7q13 14 20 16q9 39 20 103q1 19 -4 48q-7 61 -4 56q-1 -1 12 80q20 72 16 128q1 2 24 68q22 52 24 64q10 2 20 15 q10 14 16 17q-4 -4 12 20v4q-1 3 0 4q-1 -1 8 2q6 2 4 10q32 19 44 36q16 2 72 28q20 0 46 8q33 10 42 12q3 0 8 2q3 2 4 -2q55 -2 120 -16q43 -9 100 -28q8 -3 27 -15q16 -10 29 -13q3 -13 20 -28q6 -1 13 -10t15 -10q2 -11 12 -22q14 -15 16 -18q22 -51 24 -52v-24 q26 -52 28 -104q3 -5 7 -20q5 -14 9 -20q-4 -28 12 -80q-3 -59 23 -188q4 -11 20 -22q17 -11 20 -22q-1 -21 -28 -55z" />
<glyph unicode="&#xbf;" horiz-adv-x="900" d="M42 378q6 19 10 71q3 50 11 70q11 20 39 70q25 44 38 70q201 197 225 232q28 137 28 162q3 13 -3 28t-4 28q1 14 -14 42q-11 23 0 42q-8 -4 120 7q15 -17 25 -65q11 -52 24 -68q-9 -25 0 -50q-4 -17 -12 -86q-5 -50 -16 -68q-41 -81 -64 -112q0 -2 -7 -4q-6 -2 -7 -3 q0 -2 1 -8q1 -5 -1 -7q-1 0 -23 -12q-14 -8 -12 -23q-20 -6 -41 -29q-27 -28 -36 -34q-67 -72 -63 -70q-17 -43 -63 -112q-1 5 -7 -71q1 -71 35 -147q44 -54 42 -49q24 -3 86 -23q52 -16 96 -12q-16 -4 162 98q17 44 35 56q0 19 10 68q8 40 4 73q-1 10 -42 84q4 17 28 28 q29 13 35 21q10 14 34 20q26 6 43 -6q17 -11 8 -38q-10 -31 -1 -46q7 -13 15 -35q10 -27 13 -36q17 -41 43 -56v-28q-52 -33 -96 -115q-78 -145 -73 -138q-157 -83 -161 -84q-135 -31 -274 14q-162 102 -190 330v21zM389 1311q-37 31 -49 35q-10 45 -7 91q6 -1 7 7 q1 13 17 22q16 10 18 21q6 1 23 12q14 8 26 9q33 1 58 -16q8 -6 21 -17q14 -12 20 -17q4 -92 -22 -126q-42 -25 -112 -21z" />
<glyph unicode="&#xc0;" d="M529 1284q-8 -12 -9 -22q-9 -45 -9 -59q-33 -69 -31 -122q-49 -184 -50 -194q-5 -6 -11 -22q-7 -17 -12 -23q1 -10 -3 -28q-3 -17 -1 -31q-18 -62 -18 -58q24 1 111 -2q58 -2 96 6q23 1 45 -2q26 -2 41 -2q-1 29 -15 86q-13 52 -12 90q-1 5 -7 13q-6 7 -6 14 q-4 51 -23 95q0 9 -18 99q-5 14 -11 48q-6 32 -12 47q-2 7 -8 53q-4 33 -14 46q-2 6 -9 5q0 -7 -5 -14q0 -10 -9 -23zM718 1307q-16 13 -26 14q-3 -35 27 -145q28 -137 32 -144q9 -69 27 -149q2 -69 31 -145q15 -23 59 -45q-1 -11 7 -20q10 -9 11 -16q-3 -12 -17 -24 q-16 -13 -19 -21q-3 -9 -5 -29q-2 -22 -4 -30q3 -23 15 -72q11 -44 12 -63q1 -6 13 -27q0 -42 23 -68q3 -34 22 -76q23 -54 28 -69q38 -64 40 -72q4 -6 26 -15q19 -7 20 -21q1 -19 -19 -27q-28 -11 -31 -14q-59 -4 -95 32q-8 -2 -25 -17q-15 -13 -29 -15q-17 -2 -68 18 l-36 41q-6 15 -5 45q7 0 16 5q10 4 16 4q5 0 10 -8q5 -7 13 -5q4 1 4 14q-1 12 5 13q1 11 -5 22q-8 13 -9 18q-4 26 -25 112q-19 77 -25 123q-3 4 -6 17q-2 11 -7 15q-1 30 -14 84q-11 47 -9 83q-9 8 -35 10q-24 2 -37 -1q-14 4 -47 7q-34 3 -48 6q-14 0 -86 1q-54 1 -81 -5 q-25 -37 -13 -81q-6 -3 -8 -13q-4 -12 -6 -14q-3 -53 -18 -113q-9 -132 -32 -217q2 -16 -1 -35q-3 -25 -3 -33q-2 -6 -3 -26q-1 -16 -6 -28q9 -23 45 -32q6 -7 24 -12q20 -5 26 -10q0 -4 3 -13q3 -7 1 -14q-5 -8 -26 -12q-22 -4 -28 -11q-87 -12 -126 18q-8 2 -10 -6 q-3 -8 -8 -7q-3 -3 -12 -5q-8 -2 -11 -4q-14 -3 -29 2q-17 6 -25 7q-2 7 -15 15q-12 6 -12 16q-6 2 -20 6q-13 4 -19 7q-20 11 -16 37q19 24 50 4q9 5 26 8q14 3 24 10q3 1 7 9q3 7 11 5q32 115 31 158q38 157 41 199q20 35 18 77q12 29 23 90q-6 13 -25 24q-24 14 -29 21 q-2 28 20 41q12 6 47 13q4 0 6 8q2 6 8 6q13 15 20 54q9 45 16 59q3 16 11 61q7 39 12 61q0 4 -4 12q-3 7 -1 15q27 148 45 221q2 7 -2 13q-4 7 -2 14q7 14 10 37q4 26 8 35q-19 3 -34 -13q-16 -16 -34 -14q-1 5 -9 7t-9 7q-6 10 18 49q16 12 23 41q16 0 22 18q15 -1 29 5 q21 8 25 9q19 -6 61 -10q41 -5 52 -8q7 4 25 9t25 9q16 1 37 -2q24 -3 35 -3q6 -11 27 -9q-1 1 73 -41q0 -9 13 -22q4 -4 5 -18q2 -32 -18 -41q-19 -3 -33 9zM557 1576l-6 6q-8 7 -10 0q4 0 12 -10q3 -4 5 -5q2 0 3 4q-1 1 -4 5zM378 1755q-3 -2 -1 -4q1 -2 4 1q3 2 1 4 q-1 1 -4 -1zM421 1797q-7 -3 -8 -5q-2 -3 1 -3q3 -1 8 1t8 4q4 2 3 3q-3 3 -12 0zM621 1513q-25 -2 -34 -13q-21 10 -42 32q-6 6 -35 39q-15 8 -39 35q-23 26 -43 32q-5 14 -27 35q-19 20 -24 37q-4 4 -16 12q-11 7 -15 13q-1 4 -4 13l-5 15q-6 18 -1 24q11 27 46 39 q34 11 72 2l5 -5q4 -4 6 -5q6 -5 14 -6q60 -58 98 -133q-1 3 41 -77q33 -90 36 -77q-9 -11 -33 -12z" />
<glyph unicode="&#xc1;" d="M529 1284q-8 -12 -9 -22q-9 -45 -9 -59q-33 -69 -31 -122q-49 -184 -50 -194q-5 -6 -11 -22q-7 -17 -12 -23q1 -10 -3 -28q-3 -17 -1 -31q-18 -62 -18 -58q24 1 111 -2q58 -2 96 6q23 1 45 -2q26 -2 41 -2q-1 29 -15 86q-13 52 -12 90q-1 5 -7 13q-6 7 -6 14 q-4 51 -23 95q0 9 -18 99q-5 14 -11 48q-6 32 -12 47q-2 7 -8 53q-4 33 -14 46q-2 6 -9 5q0 -7 -5 -14q0 -10 -9 -23zM718 1307q-16 13 -26 14q-3 -35 27 -145q28 -137 32 -144q9 -69 27 -149q2 -69 31 -145q15 -23 59 -45q-1 -11 7 -20q10 -9 11 -16q-3 -12 -17 -24 q-16 -13 -19 -21q-3 -9 -5 -29q-2 -22 -4 -30q3 -23 15 -72q11 -44 12 -63q1 -6 13 -27q0 -42 23 -68q3 -34 22 -76q23 -54 28 -69q38 -64 40 -72q4 -6 26 -15q19 -7 20 -21q1 -19 -19 -27q-28 -11 -31 -14q-59 -4 -95 32q-8 -2 -25 -17q-15 -13 -29 -15q-17 -2 -68 18 l-36 41q-6 15 -5 45q7 0 16 5q10 4 16 4q5 0 10 -8q5 -7 13 -5q4 1 4 14q-1 12 5 13q1 11 -5 22q-8 13 -9 18q-4 26 -25 112q-19 77 -25 123q-3 4 -6 17q-2 11 -7 15q-1 30 -14 84q-11 47 -9 83q-9 8 -35 10q-24 2 -37 -1q-14 4 -47 7q-34 3 -48 6q-14 0 -86 1q-54 1 -81 -5 q-25 -37 -13 -81q-6 -3 -8 -13q-4 -12 -6 -14q-3 -53 -18 -113q-9 -132 -32 -217q2 -16 -1 -35q-3 -25 -3 -33q-2 -6 -3 -26q-1 -16 -6 -28q9 -23 45 -32q6 -7 24 -12q20 -5 26 -10q0 -4 3 -13q3 -7 1 -14q-5 -8 -26 -12q-22 -4 -28 -11q-87 -12 -126 18q-8 2 -10 -6 q-3 -8 -8 -7q-3 -3 -12 -5q-8 -2 -11 -4q-14 -3 -29 2q-17 6 -25 7q-2 7 -15 15q-12 6 -12 16q-6 2 -20 6q-13 4 -19 7q-20 11 -16 37q19 24 50 4q9 5 26 8q14 3 24 10q3 1 7 9q3 7 11 5q32 115 31 158q38 157 41 199q20 35 18 77q12 29 23 90q-6 13 -25 24q-24 14 -29 21 q-2 28 20 41q12 6 47 13q4 0 6 8q2 6 8 6q13 15 20 54q9 45 16 59q3 16 11 61q7 39 12 61q0 4 -4 12q-3 7 -1 15q27 148 45 221q2 7 -2 13q-4 7 -2 14q7 14 10 37q4 26 8 35q-19 3 -34 -13q-16 -16 -34 -14q-1 5 -9 7t-9 7q-6 10 18 49q16 12 23 41q16 0 22 18q15 -1 29 5 q21 8 25 9q19 -6 61 -10q41 -5 52 -8q7 4 25 9t25 9q16 1 37 -2q24 -3 35 -3q6 -11 27 -9q-1 1 73 -41q0 -9 13 -22q4 -4 5 -18q2 -32 -18 -41q-19 -3 -33 9zM603 1762q-3 0 -4 -1q-3 -1 -3 -4q1 1 3 1h3q4 1 4 4h-3zM372 1526q2 3 8 9q5 6 7 9q1 1 14 17q8 10 12 18 q33 42 101 143q13 10 29 32q19 26 27 34q24 11 50 14q31 2 52 -9q3 -9 25 -36q6 -35 -7 -66q-2 -5 -12 -25q-8 -15 -11 -26q-83 -57 -188 -106q-10 -5 -33 -26q-19 -17 -38 -20q-5 2 -21 4q-14 2 -20 6q-3 16 5 28z" />
<glyph unicode="&#xc2;" d="M529 1284q-8 -12 -9 -22q-9 -45 -9 -59q-33 -69 -31 -122q-49 -184 -50 -194q-5 -6 -11 -22q-7 -17 -12 -23q1 -10 -3 -28q-3 -17 -1 -31q-18 -62 -18 -58q24 1 111 -2q58 -2 96 6q23 1 45 -2q26 -2 41 -2q-1 29 -15 86q-13 52 -12 90q-1 5 -7 13q-6 7 -6 14 q-4 51 -23 95q0 9 -18 99q-5 14 -11 48q-6 32 -12 47q-2 7 -8 53q-4 33 -14 46q-2 6 -9 5q0 -7 -5 -14q0 -10 -9 -23zM718 1307q-16 13 -26 14q-3 -35 27 -145q28 -137 32 -144q9 -69 27 -149q2 -69 31 -145q15 -23 59 -45q-1 -11 7 -20q10 -9 11 -16q-3 -12 -17 -24 q-16 -13 -19 -21q-3 -9 -5 -29q-2 -22 -4 -30q3 -23 15 -72q11 -44 12 -63q1 -6 13 -27q0 -42 23 -68q3 -34 22 -76q23 -54 28 -69q38 -64 40 -72q4 -6 26 -15q19 -7 20 -21q1 -19 -19 -27q-28 -11 -31 -14q-59 -4 -95 32q-8 -2 -25 -17q-15 -13 -29 -15q-17 -2 -68 18 l-36 41q-6 15 -5 45q7 0 16 5q10 4 16 4q5 0 10 -8q5 -7 13 -5q4 1 4 14q-1 12 5 13q1 11 -5 22q-8 13 -9 18q-4 26 -25 112q-19 77 -25 123q-3 4 -6 17q-2 11 -7 15q-1 30 -14 84q-11 47 -9 83q-9 8 -35 10q-24 2 -37 -1q-14 4 -47 7q-34 3 -48 6q-14 0 -86 1q-54 1 -81 -5 q-25 -37 -13 -81q-6 -3 -8 -13q-4 -12 -6 -14q-3 -53 -18 -113q-9 -132 -32 -217q2 -16 -1 -35q-3 -25 -3 -33q-2 -6 -3 -26q-1 -16 -6 -28q9 -23 45 -32q6 -7 24 -12q20 -5 26 -10q0 -4 3 -13q3 -7 1 -14q-5 -8 -26 -12q-22 -4 -28 -11q-87 -12 -126 18q-8 2 -10 -6 q-3 -8 -8 -7q-3 -3 -12 -5q-8 -2 -11 -4q-14 -3 -29 2q-17 6 -25 7q-2 7 -15 15q-12 6 -12 16q-6 2 -20 6q-13 4 -19 7q-20 11 -16 37q19 24 50 4q9 5 26 8q14 3 24 10q3 1 7 9q3 7 11 5q32 115 31 158q38 157 41 199q20 35 18 77q12 29 23 90q-6 13 -25 24q-24 14 -29 21 q-2 28 20 41q12 6 47 13q4 0 6 8q2 6 8 6q13 15 20 54q9 45 16 59q3 16 11 61q7 39 12 61q0 4 -4 12q-3 7 -1 15q27 148 45 221q2 7 -2 13q-4 7 -2 14q7 14 10 37q4 26 8 35q-19 3 -34 -13q-16 -16 -34 -14q-1 5 -9 7t-9 7q-6 10 18 49q16 12 23 41q16 0 22 18q15 -1 29 5 q21 8 25 9q19 -6 61 -10q41 -5 52 -8q7 4 25 9t25 9q16 1 37 -2q24 -3 35 -3q6 -11 27 -9q-1 1 73 -41q0 -9 13 -22q4 -4 5 -18q2 -32 -18 -41q-19 -3 -33 9zM602 1652q-2 -2 -1 -4q1 -1 4 1q2 2 1 4q-1 1 -4 -1zM467 1652q-2 -2 -1 -4q1 -1 4 1t1 4q-1 1 -4 -1zM648 1727 q5 -12 29 -71q18 -43 31 -68q17 -20 37 -65q27 -21 33 -66q-14 -3 -24 2q0 1 -13 12h-28q-9 7 -28 26q-17 17 -28 26q-2 11 -12 23q-2 2 -8 9q-5 6 -8 9q-26 36 -28 38q-8 16 -27 40q-21 26 -29 39q-76 -72 -111 -112q-21 -11 -61 -51q-18 -10 -56 -56q-8 4 -19 -1 q-13 -7 -27 -4q2 9 -5 12q-8 4 -9 7q1 18 14 32l23 24q6 9 21 23t21 23q11 12 41 50q24 33 43 48q1 16 12 32q13 21 16 29q2 14 15 26q2 2 11 10q7 6 11 10q21 -5 72 5q50 10 72 4q15 -38 19 -65z" />
<glyph unicode="&#xc3;" d="M529 1284q-8 -12 -9 -22q-9 -45 -9 -59q-33 -69 -31 -122q-49 -184 -50 -194q-5 -6 -11 -22q-7 -17 -12 -23q1 -10 -3 -28q-3 -17 -1 -31q-18 -62 -18 -58q24 1 111 -2q58 -2 96 6q23 1 45 -2q26 -2 41 -2q-1 29 -15 86q-13 52 -12 90q-1 5 -7 13q-6 7 -6 14 q-4 51 -23 95q0 9 -18 99q-5 14 -11 48q-6 32 -12 47q-2 7 -8 53q-4 33 -14 46q-2 6 -9 5q0 -7 -5 -14q0 -10 -9 -23zM718 1307q-16 13 -26 14q-3 -35 27 -145q28 -137 32 -144q9 -69 27 -149q2 -69 31 -145q15 -23 59 -45q-1 -11 7 -20q10 -9 11 -16q-3 -12 -17 -24 q-16 -13 -19 -21q-3 -9 -5 -29q-2 -22 -4 -30q3 -23 15 -72q11 -44 12 -63q1 -6 13 -27q0 -42 23 -68q3 -34 22 -76q23 -54 28 -69q38 -64 40 -72q4 -6 26 -15q19 -7 20 -21q1 -19 -19 -27q-28 -11 -31 -14q-59 -4 -95 32q-8 -2 -25 -17q-15 -13 -29 -15q-17 -2 -68 18 l-36 41q-6 15 -5 45q7 0 16 5q10 4 16 4q5 0 10 -8q5 -7 13 -5q4 1 4 14q-1 12 5 13q1 11 -5 22q-8 13 -9 18q-4 26 -25 112q-19 77 -25 123q-3 4 -6 17q-2 11 -7 15q-1 30 -14 84q-11 47 -9 83q-9 8 -35 10q-24 2 -37 -1q-14 4 -47 7q-34 3 -48 6q-14 0 -86 1q-54 1 -81 -5 q-25 -37 -13 -81q-6 -3 -8 -13q-4 -12 -6 -14q-3 -53 -18 -113q-9 -132 -32 -217q2 -16 -1 -35q-3 -25 -3 -33q-2 -6 -3 -26q-1 -16 -6 -28q9 -23 45 -32q6 -7 24 -12q20 -5 26 -10q0 -4 3 -13q3 -7 1 -14q-5 -8 -26 -12q-22 -4 -28 -11q-87 -12 -126 18q-8 2 -10 -6 q-3 -8 -8 -7q-3 -3 -12 -5q-8 -2 -11 -4q-14 -3 -29 2q-17 6 -25 7q-2 7 -15 15q-12 6 -12 16q-6 2 -20 6q-13 4 -19 7q-20 11 -16 37q19 24 50 4q9 5 26 8q14 3 24 10q3 1 7 9q3 7 11 5q32 115 31 158q38 157 41 199q20 35 18 77q12 29 23 90q-6 13 -25 24q-24 14 -29 21 q-2 28 20 41q12 6 47 13q4 0 6 8q2 6 8 6q13 15 20 54q9 45 16 59q3 16 11 61q7 39 12 61q0 4 -4 12q-3 7 -1 15q27 148 45 221q2 7 -2 13q-4 7 -2 14q7 14 10 37q4 26 8 35q-19 3 -34 -13q-16 -16 -34 -14q-1 5 -9 7t-9 7q-6 10 18 49q16 12 23 41q16 0 22 18q15 -1 29 5 q21 8 25 9q19 -6 61 -10q41 -5 52 -8q7 4 25 9t25 9q16 1 37 -2q24 -3 35 -3q6 -11 27 -9q-1 1 73 -41q0 -9 13 -22q4 -4 5 -18q2 -32 -18 -41q-19 -3 -33 9zM460 1637q-2 -2 -1 -3t3 1q2 1 0 2q0 1 -2 0zM374 1664q-2 -1 0 -3q0 -1 2 1q2 1 1 3q-1 0 -3 -1zM787 1648 q9 -7 17 -7q-3 -21 -24 -21q1 -16 -4 -20h-17q-3 -7 -13 -16q-11 -9 -14 -15q-7 -3 -27 -11q-17 -8 -27 -11q-33 -12 -69 -9q-5 2 -21 8q-13 5 -23 6q-9 11 -30 22q-24 13 -32 19q-101 14 -109 14q-10 -1 -33 -6q-22 -5 -35 -5q-6 -1 -18 -7q-12 -5 -20 -6q-5 3 -7 16t4 18 q2 4 11 11q7 7 9 13q12 6 25 19q21 20 23 22q24 3 41 13q11 0 28 4q17 5 34 3q57 -16 105 -68q2 -1 6 -2q5 -1 7 -1q7 -2 8 -7q8 -1 35 -6q21 -5 33 -1q5 1 12 -2q6 -3 12 -2q13 0 29 4q4 2 14 5l15 5q9 2 19 14q10 11 19 13q7 0 17 -6z" />
<glyph unicode="&#xc4;" d="M529 1284q-8 -12 -9 -22q-9 -45 -9 -59q-33 -69 -31 -122q-49 -184 -50 -194q-5 -6 -11 -22q-7 -17 -12 -23q1 -10 -3 -28q-3 -17 -1 -31q-18 -62 -18 -58q24 1 111 -2q58 -2 96 6q23 1 45 -2q26 -2 41 -2q-1 29 -15 86q-13 52 -12 90q-1 5 -7 13q-6 7 -6 14 q-4 51 -23 95q0 9 -18 99q-5 14 -11 48q-6 32 -12 47q-2 7 -8 53q-4 33 -14 46q-2 6 -9 5q0 -7 -5 -14q0 -10 -9 -23zM718 1307q-16 13 -26 14q-3 -35 27 -145q28 -137 32 -144q9 -69 27 -149q2 -69 31 -145q15 -23 59 -45q-1 -11 7 -20q10 -9 11 -16q-3 -12 -17 -24 q-16 -13 -19 -21q-3 -9 -5 -29q-2 -22 -4 -30q3 -23 15 -72q11 -44 12 -63q1 -6 13 -27q0 -42 23 -68q3 -34 22 -76q23 -54 28 -69q38 -64 40 -72q4 -6 26 -15q19 -7 20 -21q1 -19 -19 -27q-28 -11 -31 -14q-59 -4 -95 32q-8 -2 -25 -17q-15 -13 -29 -15q-17 -2 -68 18 l-36 41q-6 15 -5 45q7 0 16 5q10 4 16 4q5 0 10 -8q5 -7 13 -5q4 1 4 14q-1 12 5 13q1 11 -5 22q-8 13 -9 18q-4 26 -25 112q-19 77 -25 123q-3 4 -6 17q-2 11 -7 15q-1 30 -14 84q-11 47 -9 83q-9 8 -35 10q-24 2 -37 -1q-14 4 -47 7q-34 3 -48 6q-14 0 -86 1q-54 1 -81 -5 q-25 -37 -13 -81q-6 -3 -8 -13q-4 -12 -6 -14q-3 -53 -18 -113q-9 -132 -32 -217q2 -16 -1 -35q-3 -25 -3 -33q-2 -6 -3 -26q-1 -16 -6 -28q9 -23 45 -32q6 -7 24 -12q20 -5 26 -10q0 -4 3 -13q3 -7 1 -14q-5 -8 -26 -12q-22 -4 -28 -11q-87 -12 -126 18q-8 2 -10 -6 q-3 -8 -8 -7q-3 -3 -12 -5q-8 -2 -11 -4q-14 -3 -29 2q-17 6 -25 7q-2 7 -15 15q-12 6 -12 16q-6 2 -20 6q-13 4 -19 7q-20 11 -16 37q19 24 50 4q9 5 26 8q14 3 24 10q3 1 7 9q3 7 11 5q32 115 31 158q38 157 41 199q20 35 18 77q12 29 23 90q-6 13 -25 24q-24 14 -29 21 q-2 28 20 41q12 6 47 13q4 0 6 8q2 6 8 6q13 15 20 54q9 45 16 59q3 16 11 61q7 39 12 61q0 4 -4 12q-3 7 -1 15q27 148 45 221q2 7 -2 13q-4 7 -2 14q7 14 10 37q4 26 8 35q-19 3 -34 -13q-16 -16 -34 -14q-1 5 -9 7t-9 7q-6 10 18 49q16 12 23 41q16 0 22 18q15 -1 29 5 q21 8 25 9q19 -6 61 -10q41 -5 52 -8q7 4 25 9t25 9q16 1 37 -2q24 -3 35 -3q6 -11 27 -9q-1 1 73 -41q0 -9 13 -22q4 -4 5 -18q2 -32 -18 -41q-19 -3 -33 9zM432 1692q6 -3 18 -8t17 -7q29 -37 34 -63q1 -6 -2 -12q-3 -5 -2 -11q-29 -71 -105 -78q-30 3 -45 25 q-13 20 -12 51q1 28 12 57q11 27 27 42q5 -1 10 2q4 3 8 2q17 8 40 0zM620 1691q3 -1 15 -3q9 -1 14 -1q33 -35 32 -33q16 -21 16 -49q-19 -72 -101 -86q-3 1 -9 2q-7 1 -9 2q-5 1 -7 3q-4 4 -5 4l-13 9q-6 6 -13 17q-1 2 -1 7q-1 6 -2 8q-1 1 -4 3t-4 5q-7 23 4 63 q11 15 26 26q9 0 17 9q9 9 17 10q8 6 27 4z" />
<glyph unicode="&#xc5;" d="M529 1284q-8 -12 -9 -22q-9 -45 -9 -59q-33 -69 -31 -122q-49 -184 -50 -194q-5 -6 -11 -22q-7 -17 -12 -23q1 -10 -3 -28q-3 -17 -1 -31q-18 -62 -18 -58q24 1 111 -2q58 -2 96 6q23 1 45 -2q26 -2 41 -2q-1 29 -15 86q-13 52 -12 90q-1 5 -7 13q-6 7 -6 14 q-4 51 -23 95q0 9 -18 99q-5 14 -11 48q-6 32 -12 47q-2 7 -8 53q-4 33 -14 46q-2 6 -9 5q0 -7 -5 -14q0 -10 -9 -23zM718 1307q-16 13 -26 14q-3 -35 27 -145q28 -137 32 -144q9 -69 27 -149q2 -69 31 -145q15 -23 59 -45q-1 -11 7 -20q10 -9 11 -16q-3 -12 -17 -24 q-16 -13 -19 -21q-3 -9 -5 -29q-2 -22 -4 -30q3 -23 15 -72q11 -44 12 -63q1 -6 13 -27q0 -42 23 -68q3 -34 22 -76q23 -54 28 -69q38 -64 40 -72q4 -6 26 -15q19 -7 20 -21q1 -19 -19 -27q-28 -11 -31 -14q-59 -4 -95 32q-8 -2 -25 -17q-15 -13 -29 -15q-17 -2 -68 18 l-36 41q-6 15 -5 45q7 0 16 5q10 4 16 4q5 0 10 -8q5 -7 13 -5q4 1 4 14q-1 12 5 13q1 11 -5 22q-8 13 -9 18q-4 26 -25 112q-19 77 -25 123q-3 4 -6 17q-2 11 -7 15q-1 30 -14 84q-11 47 -9 83q-9 8 -35 10q-24 2 -37 -1q-14 4 -47 7q-34 3 -48 6q-14 0 -86 1q-54 1 -81 -5 q-25 -37 -13 -81q-6 -3 -8 -13q-4 -12 -6 -14q-3 -53 -18 -113q-9 -132 -32 -217q2 -16 -1 -35q-3 -25 -3 -33q-2 -6 -3 -26q-1 -16 -6 -28q9 -23 45 -32q6 -7 24 -12q20 -5 26 -10q0 -4 3 -13q3 -7 1 -14q-5 -8 -26 -12q-22 -4 -28 -11q-87 -12 -126 18q-8 2 -10 -6 q-3 -8 -8 -7q-3 -3 -12 -5q-8 -2 -11 -4q-14 -3 -29 2q-17 6 -25 7q-2 7 -15 15q-12 6 -12 16q-6 2 -20 6q-13 4 -19 7q-20 11 -16 37q19 24 50 4q9 5 26 8q14 3 24 10q3 1 7 9q3 7 11 5q32 115 31 158q38 157 41 199q20 35 18 77q12 29 23 90q-6 13 -25 24q-24 14 -29 21 q-2 28 20 41q12 6 47 13q4 0 6 8q2 6 8 6q13 15 20 54q9 45 16 59q3 16 11 61q7 39 12 61q0 4 -4 12q-3 7 -1 15q27 148 45 221q2 7 -2 13q-4 7 -2 14q7 14 10 37q4 26 8 35q-19 3 -34 -13q-16 -16 -34 -14q-1 5 -9 7t-9 7q-6 10 18 49q16 12 23 41q16 0 22 18q15 -1 29 5 q21 8 25 9q19 -6 61 -10q41 -5 52 -8q7 4 25 9t25 9q16 1 37 -2q24 -3 35 -3q6 -11 27 -9q-1 1 73 -41q0 -9 13 -22q4 -4 5 -18q2 -32 -18 -41q-19 -3 -33 9zM660 1695q3 2 1 5q-1 3 -4 3q-2 1 0 -3v-2v-1q1 -4 3 -2zM513 1727q-13 -7 -24 -8q-2 -8 -13 -16t-13 -14 q-15 -17 -23 -34q-2 -8 0 -23q1 -18 0 -29q17 -31 49 -56q53 -7 101 15q23 32 33 67v60q1 -1 -26 45q-14 4 -63 4q-4 -2 -21 -11zM565 1805q27 -1 32 0q9 -6 35 -18q23 -10 33 -19q-1 0 22 -57q13 -31 19 -59q-2 -14 -8 -47q-5 -29 -7 -47q-54 -79 -112 -108 q-62 -14 -124 11q-5 3 -15 14q-9 10 -18 12q-8 22 -34 56q-2 10 -7 27l-7 28q-7 34 -5 57q2 21 17 45q18 31 21 38q7 7 26 22q17 14 26 23q2 0 36 12q22 8 42 6q8 5 28 4z" />
</font>
</defs>
</svg>
